<svg xmlns="http://www.w3.org/2000/svg" viewBox="0 0 99.26 66"><defs><style>.cls-1{fill-rule:evenodd;}</style></defs><title>Ресурс 1</title><g id="Слой_2" data-name="Слой 2"><g id="Layer_1" data-name="Layer 1"><path class="cls-1" d="M39.16.48c0,.79-1.62.49-2.57.5-.28,0-1.13.26-1.16-.33C35.38-.19,38.86-.18,39.16.48Z"/><path class="cls-1" d="M64.35,1.31c.73-.55,1.45,1.4,1.74,2.32a14,14,0,0,1,.58,3.31c0,.79.18,3.7-.58,3.65s-.35-.87-.33-1.41c.12-3-.23-5.28-1.24-6.88C64.41,2.14,63.93,1.62,64.35,1.31Z"/><path class="cls-1" d="M9.49,1.72c-.21.89-.45.61-.83,1.08C7.24,4.53,7,7.34,6.92,10.59c0,.22.16,1.28-.41,1.33S6,10.24,6,9.43c.13-3,.74-6.32,2.57-7.79C8.74,1.36,9.4,1.45,9.49,1.72Z"/><path class="cls-1" d="M65,38.44c-1.62,1-4,.9-6.22,1.08-6.86.53-14.36-.28-20.88-.66-4.61-.27-9.22-.27-13.76-.75S15,38.42,10.48,38A12.07,12.07,0,0,1,10.23,34a98,98,0,0,0-.17-12.6c-.22-2.61-.53-5-.66-8-.12-2.65-.86-6.34.17-8.29,2-3.8,8.89-2.57,14.59-2.57,9.59,0,20.52-.05,29.92-.5,2.56-.12,5.33-.22,7,.75,2.61,1.55,2.5,5.38,2.82,9.61.17,2.28.5,4.59.5,6.88s.08,5,.08,7.38-.09,5.06.08,7.29C64.64,35.53,65.33,36.95,65,38.44ZM62.69,27.17c-.09-2.44,0-5,0-7.46s-.31-4.67-.5-7S62.11,7.63,61.45,6a5.08,5.08,0,0,0-1.33-1.91c-1.17-.65-3.81-.49-5.47-.42-7.15.34-11.59.42-19.89.42-5,0-10.79.38-15.91,0-3.29-.24-7-.2-7.87,1.91-.74,1.75,0,5.47.17,7.13A212.2,212.2,0,0,1,12,36.45c8.75-.36,17.29.29,25.86.66,8.33.37,17.31,1.55,25.53.25C62.76,34.35,62.84,31,62.69,27.17Z"/><path class="cls-1" d="M6.09,4.13c0,.72-.38,1.93-.5,3-.06.54.11,1.48-.75,1.33A6.62,6.62,0,0,1,5.51,4C5.73,4,6,4,6.09,4.13Z"/><path class="cls-1" d="M67.25,5c0-.33.37-.24.58-.17s1,4,.08,4.06c-.77.08-.45-1.27-.5-1.91C67.36,6.11,67,5.56,67.25,5Z"/><path class="cls-1" d="M72.8,14.74c0-1.13,2.53-.85,2.49-.17S73.27,15,72.8,14.74Z"/><path class="cls-1" d="M40.15,25.76c-2.65-.08-5.77.14-8.45-.08-.85-.07-4.08.36-4.14-.41s2.85-.53,3.65-.5c3.33.15,7,.05,9.61.17a27,27,0,0,1,.91,3c1.67-1.65,3-3.59,4.64-5.3a53.19,53.19,0,0,0-5.88-4.31c-.32.45-.06,1.49-.5,1.82-2,0-4.86-.22-7.46-.33-1.11,0-2.13-.39-3.15-.5-.55-.06-1.57.27-1.82-.41.21-.72,1.15-.54,1.66-.5.92.08,1.94.44,2.9.5,2.43.15,4.89.19,7.21.33.26-.57.12-1.54.58-1.91.93-.19,1.66.65,2.4,1.16.57.39,1.18.75,1.82,1.24s3.19,2,3.15,3c0,.51-.93,1.27-1.33,1.74-1.06,1.26-1.72,2-2.82,3.31-.38.46-1,1.57-1.57,1.49C40.71,29.11,40.65,26.38,40.15,25.76Z"/><path class="cls-1" d="M7.17,19.38c.86-1,1.26,1.75,1.33,2.65s0,2.32,0,3.15c0,1,.22,2.52-.33,2.57-.71.06-.47-1.63-.5-2.24,0-1,0-2.58-.08-3.65C7.51,21,7,19.89,7.17,19.38Z"/><path class="cls-1" d="M74.21,32.22a27.15,27.15,0,0,1-.17-5c0-1.23-.26-4.17.33-4.81s3.41-.68,4.48-.75a15.15,15.15,0,0,1,3.56-.08,4.59,4.59,0,0,1,1.82,1.33c1.18,1.08,4.13,3.38,4.56,4.81s.06,3.56,0,4.81c-1.17.84-3.07.5-4.81.5s-3.54,0-5.14-.08A12.15,12.15,0,0,1,74.21,32.22Zm13-3.89a47,47,0,0,0-3.81-3.89c-.45-.41-1-1.07-1.41-1.16a10.72,10.72,0,0,0-2.49.08c-1.26.06-2.51.29-3.73.42a20.92,20.92,0,0,0,.08,3c.5-.77.42-2.12,1.41-2.4.6.74-.16,1.64-.5,2.4-.52,1.17-1.23,2.32-.91,3.9.83-1.68,1.77-3.53,2.57-5.22.25-.52.37-1.46,1.16-1.49,0,.06.07.1.17.08a10.58,10.58,0,0,1-1.41,3.56c-.55,1.19-1.14,2.36-1.74,3.48.38,0,.52.15.91.08.47-1.06.86-1.92,1.41-3.15.21-.46,1.06-3.09,1.57-3.07.8,0,.22,1.16.08,1.49-.72,1.7-1.5,3.3-2.15,4.81h.91c.61-1.45,1.44-2.88,2.07-4.31.17-.4.35-1.22,1-1.16.53.36.08,1-.08,1.41-.62,1.44-1.46,2.78-2.07,4.06.42-.05.67.1.91,0,.35-1,1.2-1.94,1.66-2.9.23-.48.22-1.37.91-1.33.67.6-.08,1.54-.41,2.15a17.54,17.54,0,0,0-1.16,2.15H83c.66-.95.69-2.51,1.82-3,.74.88-.72,2-.83,3.07h.66c.66-.47.45-1.81,1.41-2,.64.55-.13,1.49-.33,2a5.9,5.9,0,0,0,1.58-.08C87.24,30.35,87.2,29.38,87.22,28.33Z"/><path class="cls-1" d="M98.16,22.44c.12.6.82.62.75,1.41C98.14,24.62,96.63,22.46,98.16,22.44Z"/><path class="cls-1" d="M98.16,26.67c-.71-.18-.92-1-1.33-1.49s-.87-1-1.24-1.49a.75.75,0,0,1-.75-.33c0-.67.76-.79,1.24-.41C96.91,23.59,98.89,25.81,98.16,26.67Z"/><path class="cls-1" d="M49.85,23.44A3.28,3.28,0,0,1,49,25.34c-2.22,3.31-4.47,6.82-6.8,10.19-.3.44-.59,1.38-1.33,1.33-.56-.6.2-1.41.5-1.82,2.59-3.67,5.27-7.81,7.79-11.6.11,0,.31-.28.33-.08C49.69,23.32,49.74,23.41,49.85,23.44Z"/><path class="cls-1" d="M52.58,24.27c0,.66-.58,1.08-.91,1.57-1,1.43-1.73,3.19-2.73,4.64s-2.1,2.75-3.07,4.31c-.25.41-.5,1.29-1.24,1.16-.18-1.1.72-2.1,1.41-3.07s1.36-1.79,2-2.73c1.37-2.06,2.27-4.35,3.73-5.8C52,24.15,52.21,23.91,52.58,24.27Z"/><path class="cls-1" d="M55,25.09c.19.61-.38,1.07-.66,1.49-.89,1.35-1.75,2.73-2.73,4.06s-2,2.5-2.9,3.9c-.28.41-.57,1.1-1.24,1-.16-1.06.73-1.95,1.33-2.73s1.36-1.59,2-2.4c1.31-1.72,2.36-3.72,3.56-5.3A.42.42,0,0,1,55,25.09Z"/><path class="cls-1" d="M56,26.67c-.83,2.64-2.45,4.51-4,6.46a17.77,17.77,0,0,1-1.41,2c-1-.52,0-1.63.41-2.15s1.11-1.38,1.57-2c1.12-1.47,1.9-3.17,2.73-4.39,0-.09.16-.06.17-.17C55.74,26.42,55.81,26.6,56,26.67Z"/><path class="cls-1" d="M24.57,26.67a4.34,4.34,0,0,1-1,2.74c-1,1.57-2.11,3-3.15,4.56-.46.71-.77,1.77-1.66,2-.71-.59.46-1.66.83-2.24a60.62,60.62,0,0,0,4.31-6.88.42.42,0,0,1,.25-.25C24.39,26.52,24.37,26.7,24.57,26.67Z"/><path class="cls-1" d="M37.08,26.83a10.29,10.29,0,0,1-1.41,2.57c-1,1.61-2,3.19-3.07,4.81-.45.69-.9,1.82-1.82,1.91-.3-.88.59-1.65,1.08-2.4,1.34-2,2.94-5,4.39-6.8A.51.51,0,0,1,37.08,26.83Z"/><path class="cls-1" d="M21.17,27.91A35.36,35.36,0,0,1,18,33.22c-.31.46-.65,1.37-1.41,1.33-.33-.64.26-1.34.58-1.82,1-1.56,2.31-3.27,3.23-5,0-.09.16-.06.17-.17C20.93,27.55,21,27.76,21.17,27.91Z"/><path class="cls-1" d="M32.78,27.75a5.57,5.57,0,0,1-1,2.4,46.38,46.38,0,0,1-3.32,5.39c-.2.27-.45.88-.91.66-.6-.76.4-1.38.83-2,1.22-1.77,2.4-4.75,3.65-6.3C32.23,27.66,32.34,27.59,32.78,27.75Z"/><path class="cls-1" d="M27,28.41c-.83,2.12-2.37,3.86-3.48,5.8-.34.59-.46,1.69-1.41,1.66-.32-.71.34-1.42.66-2s.78-1.23,1.16-1.82c.79-1.24,1.52-2.68,2.32-3.73,0-.09.17-.06.17-.17C26.71,28.12,26.78,28.32,27,28.41Z"/><path class="cls-1" d="M57.47,28.41a3.86,3.86,0,0,1-.91,1.82c-.74,1.1-1.41,2.25-2.15,3.48-.32.53-.61,1.31-1.24,1.41-.7-.43.06-1.28.33-1.74a47.57,47.57,0,0,1,3.4-5.14C57.13,28.26,57.46,28.17,57.47,28.41Z"/><path class="cls-1" d="M29.46,28.91a13.76,13.76,0,0,1-2.07,3.56l-1.16,1.74c-.27.41-.85,1.61-1.24,1.57-1.08-.1.24-1.61.33-1.74,1.15-1.68,2.44-4,3.56-5.3A.63.63,0,0,1,29.46,28.91Z"/><path class="cls-1" d="M38.41,28.91a8.42,8.42,0,0,1-1.16,2.15c-.83,1.37-1.64,2.71-2.57,4.06-.42.62-.81,1.48-1.57,1.74-.54-.71.27-1.5.66-2.07,1.26-1.84,2.69-4.29,4-6.05A.73.73,0,0,1,38.41,28.91Z"/><path class="cls-1" d="M8.33,30.4a.47.47,0,0,1-.75.58C7.41,30.39,7.93,30.15,8.33,30.4Z"/><path class="cls-1" d="M39.9,30.48c.05.73-.53,1.09-.83,1.57-.55.9-1.17,1.83-1.82,2.82-.26.39-.55,1.37-1,1.33-.77-.07-.13-1.15.08-1.49s.66-1,.91-1.41c.81-1.2,1.31-2,1.91-2.82,0-.09.16-.06.17-.17A.62.62,0,0,1,39.9,30.48Z"/><path class="cls-1" d="M57.8,30.9a11,11,0,0,1-1.33,2c-.4.63-.67,1.62-1.57,1.74-.51-.6.34-1.35.75-2a7.31,7.31,0,0,1,1.57-2.07A.58.58,0,0,1,57.8,30.9Z"/><path class="cls-1" d="M41.31,31.39a5.2,5.2,0,0,1-1.16,2.32c-.39.65-.6,1.81-1.57,1.91-.35-.7.33-1.49.75-2.15a20,20,0,0,1,1.41-2.24A.63.63,0,0,1,41.31,31.39Z"/><path class="cls-1" d="M8.58,37.19c-1.2.13-.92-2.21-.41-2.24C8.91,34.92,8.85,36.57,8.58,37.19Z"/><path class="cls-1" d="M99.08,38.11c-.82.19-.92-1.1-1.49-1.66-.28-.27-.65,0-.66-.5s.73-.53,1.08-.33a8,8,0,0,1,1.24,1.74A1,1,0,0,1,99.08,38.11Z"/><path class="cls-1" d="M81.51,36.53c.76.4.91,1.41.83,2.65-1.51,1.27-5.5.88-7.87.75a3.76,3.76,0,0,1-.58-2.4C75.09,35.86,78.87,36.77,81.51,36.53Zm-5.8,1.82a30.66,30.66,0,0,0,3.81-.08A14.91,14.91,0,0,0,75.7,38.35Z"/><path class="cls-1" d="M82.67,40.43a2.59,2.59,0,0,1-.41,2.4h-.41C81.69,42.23,81.58,40.34,82.67,40.43Z"/><path class="cls-1" d="M1.86,42c0,.62-.7.85-.91,1.41-.15.41.07,1-.42,1.24H.12C-.37,43.48.69,41.24,1.86,42Z"/><path class="cls-1" d="M81.09,59.49c-.57-.29-.19-.84-.17-1.24A7,7,0,0,0,80,53.6a12.71,12.71,0,0,0-1.41-1.49,7.49,7.49,0,0,0-2-1.49c-.68-.18-1.42.26-2-.17-.18-1,1.45-.93,2.32-.66a5.3,5.3,0,0,1,1.24.83,20.71,20.71,0,0,1,2.4,2.24,7.68,7.68,0,0,1,1.24,5.63C81.77,58.86,81.57,59.44,81.09,59.49Z"/><path class="cls-1" d="M23.66,51a8.21,8.21,0,0,0-3.23,5.8c0,.53.21,1.41-.33,1.66-.84-.23-.54-1.59-.5-2.15.18-2.41,2.25-5.4,3.73-6.13C24.22,49.77,25,51,23.66,51Z"/><path class="cls-1" d="M27.72,50.21c0,.1,0,.15.08.17a.51.51,0,0,1-.91.42C26.76,50.17,27.29,50,27.72,50.21Z"/><path class="cls-1" d="M79.35,53.94c-1.16.76-1.46-.92-2.4-1.41a6.29,6.29,0,0,0-2-.33c-.66,0-1.94.63-2-.17s2.08-.73,2.74-.66a3,3,0,0,1,2.65,1.49C78.8,53.1,79.31,53.29,79.35,53.94Z"/><path class="cls-1" d="M70.81,52c0,.57-.42.63-.66.91a10.43,10.43,0,0,0-1.33,5.14c0,.59.31.85-.25,1.16-.88-.41-.68-1.82-.58-2.82C68.16,54.74,69.49,51.13,70.81,52Z"/><path class="cls-1" d="M23.91,52.44a17.57,17.57,0,0,0-1.24,2.65c-.15.61,0,2-.66,1.91s-.17-2,0-2.57C22.39,53.22,23,51.59,23.91,52.44Z"/><path class="cls-1" d="M26.23,53.52A4.22,4.22,0,0,1,30,55.59c.83,2-.6,4.41-1.74,4.72a3.9,3.9,0,0,1-4.56-4.56A3.11,3.11,0,0,1,26.23,53.52Zm1,1.82c-2.64-1.32-2.38,4.13.58,3.31a3.37,3.37,0,0,0,.58-2.4C27.81,56.28,27.68,55.57,27.22,55.34Z"/><path class="cls-1" d="M74.21,53.52a4.22,4.22,0,0,1,3.73,2.07c.78,1.88-.57,4.41-1.74,4.72a3.87,3.87,0,0,1-4.56-4.56A2.86,2.86,0,0,1,74.21,53.52Zm1,1.82c-2.64-1.32-2.38,4.13.58,3.31a3.37,3.37,0,0,0,.58-2.4C75.8,56.28,75.66,55.57,75.21,55.34Z"/><path class="cls-1" d="M30.45,63.3c-.18-1,.77-1.44,1.24-2.07,1.36-1.82,1-4.18.75-7.13,1.19-.78,1.26,3,1.16,4.39a5.92,5.92,0,0,1-1.08,3C32,62.31,31.33,63.47,30.45,63.3Z"/><path class="cls-1" d="M70.81,55.59c.08.85-.41,1.94-.17,3,.13.53.78.75.58,1.33-1.75,1-2-4-.75-4.39C70.66,55.47,70.7,55.57,70.81,55.59Z"/><path class="cls-1" d="M30.79,59.32c0-.08-.1-.06-.17-.08,0-.47.12-2.62.75-2.57C32.17,56.73,31.85,59.41,30.79,59.32Z"/><path class="cls-1" d="M86.48,57.58c.52,1.08-.16,2-.5,2.9-.22.59-.21,1.55-.91,1.49-.73-.93.53-2.17.75-3.48,0-.22,0-.43,0-.66s.15-.13.17-.25Z"/><path class="cls-1" d="M88.63,58.24c.27.8-.28,1.48-.5,2.07a1.27,1.27,0,0,1-.58,0C87.37,59.71,87.69,58,88.63,58.24Z"/><path class="cls-1" d="M62.36,58.41a1.43,1.43,0,0,1,.17.83c.18,1,1.69,2.11.91,3a4.11,4.11,0,0,1-1.66-3.81A1.27,1.27,0,0,1,62.36,58.41Z"/><path class="cls-1" d="M16.61,62.72c-.36.62-1.12.16-1.49-.17a4.63,4.63,0,0,1-1.24-3.4.57.57,0,0,1,.5-.41c.48,0,.43,1,.58,1.57C15.29,61.63,15.9,61.83,16.61,62.72Z"/><path class="cls-1" d="M59.71,59c0,1,.86,1.45.66,2.32C59.27,61.8,58.16,58.64,59.71,59Z"/><path class="cls-1" d="M38.25,59.24c.67.78,0,2-.41,2.82s-.88,2-1.74,2.15c-.43-.77.35-1.54.75-2.24a5.84,5.84,0,0,0,.91-2.57C37.92,59.36,38,59.2,38.25,59.24Z"/><path class="cls-1" d="M70.15,59.9a.74.74,0,0,1-.17.66h-.41C69,60.22,69.66,59.37,70.15,59.9Z"/><path class="cls-1" d="M79.93,60.48c-.07-.5.37-.69.75-.5A.45.45,0,1,1,79.93,60.48Z"/><path class="cls-1" d="M24.16,62.31c.72,0,1.34,0,1.41.66-.35.5-1.28.32-1.74.17a4.5,4.5,0,0,1-2.4-2.57C22.66,59.88,22.94,62.16,24.16,62.31Z"/><path class="cls-1" d="M79.35,61.23c-.12,1.6-2.7,2.25-5.22,2-.89-.09-2.05-.4-2-1.24.93-.16,2.58.63,4.31.41a4.41,4.41,0,0,0,2.15-1.16C78.72,61,79.23,61,79.35,61.23Z"/><path class="cls-1" d="M40,61.39c-.06.68-.31,1.57-.83,1.57C38.18,63,39.13,60.55,40,61.39Z"/><path class="cls-1" d="M28.13,62.89a.48.48,0,0,1-.75.58C27.22,62.88,27.74,62.64,28.13,62.89Z"/><path class="cls-1" d="M95.68,37.69a4.38,4.38,0,0,1,1.82.58c1,.84.72,2.28.91,4.06,0,.35.22.74.25,1.08,0,.5-.18.85-.17,1.24,0,.56.36,1.18.41,2,.18,2.91.33,7.65-1.24,8.54a12.25,12.25,0,0,1-3.07.58c-3.22.53-6.67.34-10.11.41C84.4,59.76,84,62.25,82,64c-2.63,2.32-8.32,2.63-11.85,1.08a9.85,9.85,0,0,1-2.57-1.82A8.21,8.21,0,0,1,65.18,57c-9.1.4-19.34.38-28.67.83-.32,2.78-.83,4.68-2.49,6.13-2.61,2.3-8.29,2.64-11.85,1.08a9.91,9.91,0,0,1-2.57-1.82,9.33,9.33,0,0,1-2.49-5.3c-4.42-.1-9-.74-13.09-.5-.78,0-1.47.4-1.91.08s-.32-2.18-.41-3.23c-.22-2.48-.37-3.92-.5-6.63-.05-1.13-.26-2.68.08-3.15s1.51-.45,2.24-.66a9.44,9.44,0,0,1-.08-1.74,2.91,2.91,0,0,0,.75-.75c20.66-.4,42,.23,62.74,0,.16-6.55.17-10.19.17-17.32,0-2.1-.44-6.16.66-7,.87-.63,3.1-.3,3.81-.33,3.33-.16,6.68.33,10.19.33a18.38,18.38,0,0,1,3.48,0,9.08,9.08,0,0,1,1.74,1,21.13,21.13,0,0,1,5.55,4.64,20.16,20.16,0,0,0,1.82,1.91c.68.6,1.55,1.16,1.82,1.82a10.4,10.4,0,0,1,.25,4.31C96.27,32.93,95.71,35.56,95.68,37.69ZM89.3,21.86a16.25,16.25,0,0,0-2.15-1.74,10.07,10.07,0,0,0-2.49-1.41,18.93,18.93,0,0,0-3.23,0c-4.31,0-8.57-.62-12.51-.17-.43,7.42,0,15.73-.25,23.29-.53.38-.6,1-1.16,1.16-.86.31-2.56.08-4,.08-4.25,0-8-.23-12-.17C46.16,43,41.1,43.19,36,43c-11.34-.42-21.34.13-30.83-.17a3.45,3.45,0,0,0,.08,1c6.65.33,13.18,0,19.64.33,3.11.18,6.19.62,9.28.66,3.29.05,6.53.13,9.86,0,6.45-.26,12.92-.26,19.39-.58s13-.31,19.64-.41c-.12-1.38.21-5,1.08-4.64.5.19-.12,2.56-.17,3.48,0,.64-.16,1.07.17,1.16.56.16.42-.25.58-.75a22.65,22.65,0,0,0,.75-3.32c.13-.8.16-4.44,1-4.39s.27,1.09.17,1.82c-.4,2.9-.53,4.11-1.08,6.63.55,0,.85-.15,1.41-.08.48-2,.81-4.14,1.24-6.3.12-.61.2-1.87.66-1.91.85-.07.33,1.33.25,1.74-.47,2.26-.69,4.41-1.24,6.3A14.45,14.45,0,0,0,90,43.49c-.05-.5.11-1.21-.08-1.57-.17.63,0,1.55-.91,1.49-.46-.54,0-1.32.17-2,.31-1.5.56-3,.83-4.47.12-.65,0-1.73.75-1.91.79,1.18-.29,3.05-.33,4.48a4.43,4.43,0,0,0,.91-1.16c.37-.83.22-2.72.91-2.65.88.08.08,1.73.25,2.24.33-.28,1.16-.06,1.57-.25.19-4,1-7.59.66-10.61C92.55,25.59,91.49,23.72,89.3,21.86ZM92.53,39.6c-1.08.58-1.1,2.62-.66,3.9A25,25,0,0,0,93.11,41c-.14-.93.8-1.21,1-.5.25.92-1.23,2.5-1.24,3h.58c.18-.34.92-3.11,1.57-3.07.21,0,.39.27.41.5.1.82-1.06,1.85-1.16,2.57a4.06,4.06,0,0,1,1.24.08c-.25-1.48,1.83-2.43.91-4.06C94.95,39.69,93.58,39,92.53,39.6Zm-4.14,5.64c-3.36.26-7.3.33-11,.33-7.46,0-14.44.59-21.55.66-3.63,0-7.19.07-10.69.25-7.16.37-14.07-.27-21.05-.66s-14.16-.13-21.22-.17c0,1,.15,1.68.08,2.65,4.61-.06,9.86-.25,14.75-.25a44.16,44.16,0,0,0,5,.08c.77-.1,1.48-.61,2.32-.75a13,13,0,0,1,4.14,0c1,.2,1.43.79,2.24.91a42.67,42.67,0,0,0,4.81.08c9.5.23,19.08.08,28.92.08a31.46,31.46,0,0,0,5,0c1-.18,1.54-.86,2.73-1.08a12.74,12.74,0,0,1,4.23,0c.65.12,1.33.64,2,.75a41.16,41.16,0,0,0,4.56.08A114.13,114.13,0,0,0,97.25,48,9.05,9.05,0,0,0,97,45.48,51.36,51.36,0,0,0,88.38,45.23ZM3,49.21c-.06.88.08,1.58.08,2.4H14.38a17.51,17.51,0,0,0,3.81,0c.45-.13,1.15-1.07,1.57-1.41s.57-.47.83-.66.73-.29.58-.58C14.9,48.83,9.07,49.13,3,49.21ZM80.26,49c.32.36.84,1.19,1.49,1.33a5.26,5.26,0,0,0,1.08-.08c4.42-.2,10.54.13,14.42-.66V49C91.85,49.09,85.86,49.35,80.26,49Zm-55.53.08a11.41,11.41,0,0,0-5.22,3.73A9.66,9.66,0,0,0,19.35,60,7.56,7.56,0,0,0,23,63.55c3.86,1.57,9.76.79,11.19-2.49A11.4,11.4,0,0,0,34.76,56a9.74,9.74,0,0,0-2.15-4.31,14.08,14.08,0,0,0-3.32-2.49C27.68,49.47,26.32,48.82,24.74,49.13Zm9.78,2.07c1,.27,2.83,0,4.14,0,4.2.1,8.19.09,12.18-.08,4.2-.18,8.22.16,12.1-.17a33.11,33.11,0,0,0,4-.16c.74-.18,1.21-1,1.91-1.49-12.24-.06-25.34.43-36.3-.08,0-.05,0-.1-.08-.08C32.68,49.46,34,51.05,34.52,51.2Zm37.54-1.82A8.27,8.27,0,0,0,69.65,51a6.39,6.39,0,0,0-2.15,1.91,10.42,10.42,0,0,0-.66,5.22,6.74,6.74,0,0,0,2,4c3,2.86,11.46,3.33,13.34-1A11.27,11.27,0,0,0,82.75,56a10.24,10.24,0,0,0-2.16-4.31c-.77-.88-2.57-2.36-3.73-2.4A25,25,0,0,0,72.06,49.38ZM82.33,51.2c.1.37.38.56.5.91,4.7-.2,9.77,0,14.42.08V50.7C92.35,50.94,87.6,51.33,82.33,51.2ZM34.93,52c.19.4.4,1.39.91,1.57a5.16,5.16,0,0,0,1.66-.08c4.72-.19,9.82,0,14.75-.25,1.81-.1,3.55-.38,5.3-.5s3.81-.18,5.64-.25c.79,0,2.73.53,3.07-.83C56.14,52.17,45.41,52.27,34.93,52ZM3.35,53.77c4.75,0,9.54,0,14,.25q.27-.72.5-1.49H3.35C3.13,52.84,3.35,53.41,3.35,53.77Zm80.8.75A89.08,89.08,0,0,0,94.68,54c.82-.13,1.94-.1,2.32-.83-4.2-.39-9.18-.2-13.59-.25A4,4,0,0,0,84.16,54.52Zm-28.67-.75c-6.34.58-12.62.63-19.39.75a7.92,7.92,0,0,1,.33,1.57c5.31-.22,10.47-.11,15.42-.41,5.56-.34,8.34.12,13.34-.41.13-.59.18-1.26.33-1.82C62,53.47,58.83,53.46,55.48,53.77Zm-52,.91a5.08,5.08,0,0,0,.08,1.08c4.79-.12,9,.38,13.67.33-.1-.49.19-.93,0-1.24C12.64,54.79,7.94,54.52,3.44,54.68Z"/></g></g></svg>