<?xml version="1.0" standalone="no"?>
<!DOCTYPE svg PUBLIC "-//W3C//DTD SVG 20010904//EN"
 "http://www.w3.org/TR/2001/REC-SVG-20010904/DTD/svg10.dtd">
<svg version="1.0" xmlns="http://www.w3.org/2000/svg"
 width="118.000000pt" height="118.000000pt" viewBox="0 0 118.000000 118.000000"
 preserveAspectRatio="xMidYMid meet">
<metadata>
Created by potrace 1.11, written by Peter Selinger 2001-2013
</metadata>
<g transform="translate(0.000000,118.000000) scale(0.100000,-0.100000)"
fill="#000000" stroke="none">
<path d="M374 934 c1 -25 -4 -29 -84 -54 -67 -20 -84 -30 -82 -43 2 -10 27
-68 56 -130 29 -62 63 -136 76 -165 12 -28 27 -52 33 -52 5 0 18 10 28 21 22
25 27 17 31 -46 l3 -40 75 0 c75 0 75 0 78 28 3 27 5 28 60 25 53 -3 56 -2 57
22 1 14 5 52 9 85 4 33 9 78 12 100 7 66 15 138 20 167 4 25 2 27 -66 38 -58
10 -70 15 -70 31 0 10 -6 19 -12 20 -7 1 -24 2 -38 4 -14 1 -62 5 -106 9 l-81
7 1 -27z m166 -39 c10 -12 9 -24 -4 -60 -23 -60 -18 -235 7 -263 19 -21 23
-57 7 -67 -5 -3 -10 1 -10 9 0 20 -14 28 -35 20 -12 -5 -15 -15 -12 -31 l5
-25 -21 20 c-19 20 -19 22 -3 61 11 29 16 72 16 145 0 90 -2 105 -20 121 -21
19 -27 60 -10 70 6 3 10 -1 10 -9 0 -20 14 -28 35 -20 10 4 15 14 12 25 -6 23
6 25 23 4z m142 -124 c-2 -23 -7 -41 -11 -41 -3 0 -5 20 -3 45 2 25 7 43 11
41 4 -3 5 -23 3 -45z m-329 29 c-31 -12 -29 -29 12 -120 38 -84 43 -110 21
-110 -20 0 -26 11 -47 98 -22 85 -34 105 -60 97 -14 -5 -19 -1 -19 11 0 10 3
14 6 11 4 -3 16 0 28 8 11 8 34 15 51 14 28 0 28 -1 8 -9z m321 -191 c-7 -65
-16 -84 -37 -76 -19 7 -14 67 11 140 16 48 17 48 25 20 4 -15 5 -53 1 -84z"/>
<path d="M45 490 c-34 -67 -41 -89 -31 -93 21 -8 41 12 69 68 l24 49 28 -56
c38 -79 56 -80 91 -6 32 66 38 65 69 -17 16 -40 16 -42 -19 -117 -20 -42 -36
-81 -36 -87 0 -21 37 -11 48 14 9 20 19 25 49 25 30 0 40 -5 48 -22 6 -14 19
-23 33 -24 12 -1 22 0 22 2 0 2 -26 59 -57 126 -122 260 -124 261 -172 166
l-30 -60 -28 58 c-41 84 -55 81 -108 -26z m305 -172 c0 -5 -7 -8 -15 -8 -17 0
-18 2 -9 25 5 13 8 14 15 3 5 -7 9 -16 9 -20z"/>
<path d="M484 390 c-43 -17 -70 -91 -46 -126 33 -47 109 -58 147 -19 32 31 32
45 0 45 -14 0 -25 -4 -25 -9 0 -16 -38 -23 -60 -11 -42 22 -12 98 34 84 11 -4
23 -11 24 -15 4 -10 52 -13 52 -3 0 19 -24 43 -51 53 -37 13 -46 13 -75 1z"/>
<path d="M620 380 c0 -15 7 -20 25 -20 22 0 25 -4 26 -37 2 -97 3 -98 29 -98
24 0 25 2 25 65 0 59 2 65 23 70 13 3 23 8 23 13 -1 4 -1 11 -1 15 0 5 -34 9
-75 10 -68 1 -75 -1 -75 -18z"/>
<path d="M812 317 c-23 -45 -42 -85 -42 -89 0 -10 44 -6 51 5 9 13 88 15 93 2
4 -11 56 -19 56 -8 0 17 -93 173 -103 173 -7 0 -31 -37 -55 -83z m72 -13 c9
-22 8 -23 -14 -21 -11 1 -20 2 -20 3 0 11 14 34 20 34 4 0 11 -7 14 -16z"/>
<path d="M999 370 c0 -16 -1 -48 -1 -70 0 -79 1 -80 26 -80 22 0 25 5 28 43
l3 42 24 -41 c18 -33 29 -41 52 -42 32 -1 32 2 -8 55 -12 17 -19 34 -14 38 5
3 12 -3 15 -13 7 -20 56 -90 56 -79 0 4 -12 25 -26 47 l-27 40 27 40 c14 22
22 40 16 40 -5 0 -10 -3 -10 -7 0 -5 -10 -19 -21 -33 l-20 -25 15 32 c21 41
20 43 -7 43 -17 0 -30 -12 -48 -42 l-24 -43 -3 43 c-3 37 -6 42 -28 42 -20 0
-24 -5 -25 -30z"/>
</g>
</svg>
