<?xml version="1.0" standalone="no"?>
<!DOCTYPE svg PUBLIC "-//W3C//DTD SVG 20010904//EN"
 "http://www.w3.org/TR/2001/REC-SVG-20010904/DTD/svg10.dtd">
<svg version="1.0" xmlns="http://www.w3.org/2000/svg"
 width="179.000000pt" height="179.000000pt" viewBox="0 0 179.000000 179.000000"
 preserveAspectRatio="xMidYMid meet">
<metadata>
Created by potrace 1.11, written by Peter Selinger 2001-2013
</metadata>
<g transform="translate(0.000000,179.000000) scale(0.100000,-0.100000)"
fill="#000000" stroke="none">
<path d="M335 1743 l5 -48 -165 -50 c-151 -45 -164 -51 -159 -70 4 -11 34 -76
67 -145 32 -69 76 -161 97 -205 21 -44 60 -128 88 -187 28 -60 55 -108 59
-108 5 0 26 18 48 40 21 21 41 37 45 35 3 -2 7 -23 9 -47 1 -24 5 -65 9 -93
l7 -50 105 0 c58 0 121 2 140 5 37 6 35 3 39 79 1 27 3 28 39 22 56 -10 125
-6 130 7 2 6 9 9 17 6 19 -7 23 3 30 76 3 36 8 76 10 90 2 14 7 54 10 90 3 36
10 99 15 140 11 93 19 160 25 225 3 28 8 57 11 66 5 19 2 21 -147 44 l-106 18
4 33 c3 19 1 34 -4 35 -4 0 -17 2 -28 4 -11 2 -54 7 -95 9 -122 9 -202 16
-258 21 l-53 5 6 -47z"/>
<path d="M515 745 c-78 -39 -106 -154 -54 -226 65 -92 243 -89 288 5 29 62 18
160 -23 202 -47 46 -141 55 -211 19z"/>
<path d="M455 230 c-3 -5 3 -7 12 -5 10 1 25 -2 33 -8 12 -9 13 -9 3 3 -15 16
-41 22 -48 10z"/>
<path d="M676 232 c-3 -5 1 -9 9 -9 8 0 12 4 9 9 -3 4 -7 8 -9 8 -2 0 -6 -4
-9 -8z"/>
<path d="M759 223 c-13 -16 -12 -17 4 -4 16 13 21 21 13 21 -2 0 -10 -8 -17
-17z"/>
<path d="M791 217 c-13 -21 -12 -21 5 -5 10 10 16 20 13 22 -3 3 -11 -5 -18
-17z"/>
<path d="M410 216 c0 -2 7 -7 16 -10 8 -3 12 -2 9 4 -6 10 -25 14 -25 6z"/>
<path d="M530 215 c0 -7 30 -13 34 -7 3 4 -4 9 -15 9 -10 1 -19 0 -19 -2z"/>
<path d="M899 218 c-5 -16 -4 -46 2 -42 4 2 7 13 6 24 -1 17 -5 26 -8 18z"/>
<path d="M460 198 c14 -16 13 -31 -2 -22 -7 5 -8 3 -3 -5 5 -9 10 -10 18 -2 8
8 6 15 -6 26 -9 8 -12 10 -7 3z"/>
<path d="M569 193 c-13 -16 -12 -17 4 -4 16 13 21 21 13 21 -2 0 -10 -8 -17
-17z"/>
<path d="M621 192 c-1 -15 -5 -21 -13 -16 -7 5 -8 3 -3 -5 10 -18 28 2 22 25
-4 15 -5 14 -6 -4z"/>
<path d="M650 206 c0 -3 9 -10 20 -16 11 -6 20 -8 20 -6 0 3 -9 10 -20 16 -11
6 -20 8 -20 6z"/>
<path d="M411 184 c0 -11 3 -14 6 -6 3 7 2 16 -1 19 -3 4 -6 -2 -5 -13z"/>
<path d="M510 190 c0 -5 5 -10 10 -10 6 0 10 5 10 10 0 6 -4 10 -10 10 -5 0
-10 -4 -10 -10z"/>
<path d="M745 189 c-4 -6 -4 -13 -1 -16 3 -4 6 -1 6 6 0 8 6 11 16 7 8 -3 12
-2 9 4 -8 13 -22 13 -30 -1z"/>
<path d="M930 189 c0 -5 5 -7 10 -4 6 3 10 8 10 11 0 2 -4 4 -10 4 -5 0 -10
-5 -10 -11z"/>
<path d="M273 168 c1 -7 -4 -12 -11 -10 -8 1 -11 -2 -7 -8 5 -8 11 -8 21 1 7
6 11 15 8 20 -8 13 -14 11 -11 -3z"/>
<path d="M304 172 c4 -3 14 -7 22 -8 9 -1 13 0 10 4 -4 3 -14 7 -22 8 -9 1
-13 0 -10 -4z"/>
<path d="M430 171 c0 -6 4 -13 10 -16 6 -3 7 1 4 9 -7 18 -14 21 -14 7z"/>
<path d="M494 172 c3 -5 0 -13 -6 -15 -9 -4 -10 -6 -1 -6 17 -1 25 16 12 25
-7 4 -9 3 -5 -4z"/>
<path d="M523 152 c-15 -20 -17 -29 -8 -29 8 0 13 3 12 6 -1 3 4 16 11 29 17
31 10 28 -15 -6z"/>
<path d="M565 167 c-15 -12 -16 -15 -4 -22 8 -5 11 -5 7 0 -4 4 0 14 10 21 23
18 11 18 -13 1z"/>
<path d="M655 169 c-4 -6 -5 -12 -2 -15 2 -3 7 2 10 11 7 17 1 20 -8 4z"/>
<path d="M684 164 c-18 -14 -18 -15 4 -4 12 6 22 13 22 15 0 8 -5 6 -26 -11z"/>
<path d="M716 163 c-6 -14 -5 -15 5 -6 7 7 10 15 7 18 -3 3 -9 -2 -12 -12z"/>
<path d="M790 173 c0 -16 20 -27 51 -29 15 -1 26 4 26 12 0 9 -4 10 -12 4 -15
-12 -45 -7 -56 11 -5 9 -9 10 -9 2z"/>
<path d="M361 146 c-8 -10 -9 -16 -1 -21 6 -4 9 -1 8 7 -2 7 3 12 10 10 8 -1
11 2 7 8 -8 13 -10 13 -24 -4z"/>
<path d="M633 142 c2 -12 6 -24 10 -28 3 -4 4 4 2 16 -6 30 -16 40 -12 12z"/>
<path d="M735 150 c-4 -6 -1 -9 7 -8 7 2 12 -3 10 -10 -1 -8 2 -11 8 -7 8 5 7
11 -1 21 -14 17 -16 17 -24 4z"/>
<path d="M466 128 c3 -5 10 -6 15 -3 13 9 11 12 -6 12 -8 0 -12 -4 -9 -9z"/>
<path d="M595 130 c-3 -5 -1 -10 4 -10 6 0 11 5 11 10 0 6 -2 10 -4 10 -3 0
-8 -4 -11 -10z"/>
<path d="M266 108 c3 -5 10 -6 15 -3 13 9 11 12 -6 12 -8 0 -12 -4 -9 -9z"/>
</g>
</svg>
