<?xml version="1.0" standalone="no"?>
<!DOCTYPE svg PUBLIC "-//W3C//DTD SVG 20010904//EN"
 "http://www.w3.org/TR/2001/REC-SVG-20010904/DTD/svg10.dtd">
<svg version="1.0" xmlns="http://www.w3.org/2000/svg"
 width="90.000000pt" height="90.000000pt" viewBox="0 0 90.000000 90.000000"
 preserveAspectRatio="xMidYMid meet">
<metadata>
Created by potrace 1.11, written by Peter Selinger 2001-2013
</metadata>
<g transform="translate(0.000000,90.000000) scale(0.100000,-0.100000)"
fill="#000000" stroke="none">
<path d="M415 839 c-4 -5 -12 -9 -18 -8 -72 12 -211 -101 -260 -210 -29 -65
-31 -75 -31 -181 -1 -87 2 -100 32 -162 73 -151 209 -232 373 -223 40 3 75 8
78 13 3 5 13 9 21 9 37 -1 160 90 160 117 0 11 -63 56 -78 56 -5 0 -17 -9 -28
-21 -21 -23 -85 -58 -118 -65 -87 -17 -166 7 -234 70 -36 33 -85 123 -76 137
3 5 1 9 -4 9 -13 0 -10 150 3 170 5 8 10 20 11 27 2 15 41 72 63 93 94 91 234
102 334 26 l32 -25 38 36 c21 19 37 36 35 37 -2 1 -22 17 -45 35 -24 18 -43
30 -43 26 0 -4 -6 -2 -14 4 -8 7 -29 16 -48 22 -46 14 -176 20 -183 8z"/>
</g>
</svg>
