<?xml version="1.0" standalone="no"?>
<!DOCTYPE svg PUBLIC "-//W3C//DTD SVG 1.1//EN" "http://www.w3.org/Graphics/SVG/1.1/DTD/svg11.dtd" >
<svg xmlns="http://www.w3.org/2000/svg" xmlns:xlink="http://www.w3.org/1999/xlink" version="1.1">
<metadata>
Created by FontForge 20160405 at Fri Jun  1 04:40:29 2018
 By www-data
Copyright (c) 2013, Natanael Gama (www.ndiscovered.com . info(at)ndiscovered.com), with Reserved Font Name Exo. This Font Software is licensed under the SIL Open Font License, Version 1.1.
</metadata>
<defs>
<font id="Exo2-BoldItalic" horiz-adv-x="578" >
  <font-face 
    font-family="Exo 2"
    font-weight="700"
    font-style="italic"
    font-stretch="normal"
    units-per-em="1000"
    panose-1="0 0 8 0 0 0 0 0 0 0"
    ascent="800"
    descent="-200"
    x-height="493"
    cap-height="690"
    bbox="-217 -294 1295 951"
    underline-thickness="50"
    underline-position="-100"
    slope="-8"
    stemh="150"
    stemv="103"
    unicode-range="U+0020-FB02"
  />
<missing-glyph horiz-adv-x="600" 
 />
    <glyph glyph-name=".notdef" horiz-adv-x="600" 
 />
    <glyph glyph-name="A" unicode="A" horiz-adv-x="647" 
d="M432 180h-238l-74 -180h-159l290 653c9 24 30 37 55 37h144c25 0 47 -19 49 -43l108 -647h-152zM416 301l-27 209c-3 22 -4 45 -5 67h-29c-7 -20 -15 -44 -24 -66l-87 -210h172z" />
    <glyph glyph-name="Aacute" unicode="&#xc1;" horiz-adv-x="647" 
d="M347 723l-37 64l218 150l57 -107zM432 180h-238l-74 -180h-159l290 653c9 24 30 37 55 37h144c25 0 47 -19 49 -43l109 -647h-153zM416 301l-27 209c-3 22 -4 45 -5 67h-29c-7 -20 -15 -44 -24 -66l-87 -210h172z" />
    <glyph glyph-name="Abreve" unicode="&#x102;" horiz-adv-x="647" 
d="M393 740c-112 0 -172 71 -150 154l72 5c-7 -43 23 -62 81 -62c65 0 102 25 106 65l69 -13c-1 -84 -69 -149 -178 -149zM432 180h-238l-74 -180h-159l290 653c9 24 30 37 55 37h144c25 0 47 -19 49 -43l109 -647h-153zM416 301l-27 209c-3 22 -4 45 -5 67h-29
c-7 -20 -15 -44 -24 -66l-87 -210h172z" />
    <glyph glyph-name="Acircumflex" unicode="&#xc2;" horiz-adv-x="647" 
d="M241 723l-37 56l148 133h102l127 -139l-45 -52l-131 98h-8zM432 180h-238l-74 -180h-159l290 653c9 24 30 37 55 37h144c25 0 47 -19 49 -43l109 -647h-153zM416 301l-27 209c-3 22 -4 45 -5 67h-29c-7 -20 -15 -44 -24 -66l-87 -210h172z" />
    <glyph glyph-name="Adieresis" unicode="&#xc4;" horiz-adv-x="647" 
d="M330 763h-53c-21 0 -30 10 -28 30l10 62c3 22 13 32 36 32h50c24 0 31 -10 28 -31l-10 -63c-2 -21 -12 -30 -33 -30zM505 763h-53c-21 0 -31 10 -28 30l10 63c3 22 13 31 35 31h51c23 0 31 -10 28 -31l-10 -63c-2 -21 -12 -30 -33 -30zM432 180h-238l-74 -180h-159
l290 653c9 24 30 37 55 37h144c25 0 47 -19 49 -43l109 -647h-153zM416 301l-27 209c-3 22 -4 45 -5 67h-29c-7 -20 -15 -44 -24 -66l-87 -210h172z" />
    <glyph glyph-name="Agrave" unicode="&#xc0;" horiz-adv-x="647" 
d="M415 723l-221 114l66 97l204 -148zM432 180h-238l-74 -180h-159l290 653c9 24 30 37 55 37h144c25 0 47 -19 49 -43l109 -647h-153zM416 301l-27 209c-3 22 -4 45 -5 67h-29c-7 -20 -15 -44 -24 -66l-87 -210h172z" />
    <glyph glyph-name="Amacron" unicode="&#x100;" horiz-adv-x="647" 
d="M541 776h-299l13 95h299zM432 180h-238l-74 -180h-159l290 653c9 24 30 37 55 37h144c25 0 47 -19 49 -43l109 -647h-153zM416 301l-27 209c-3 22 -4 45 -5 67h-29c-7 -20 -15 -44 -24 -66l-87 -210h172z" />
    <glyph glyph-name="Aogonek" unicode="&#x104;" horiz-adv-x="647" 
d="M536 -104c-19 -35 1 -44 49 -31l14 -57c-153 -57 -205 16 -168 88c15 30 46 66 105 104h-81l-23 180h-238l-74 -180h-159l290 653c9 24 30 37 55 37h144c25 0 47 -19 49 -43l109 -647c-28 -31 -53 -67 -72 -104zM416 301l-27 209c-3 22 -4 45 -5 67h-29
c-7 -20 -15 -44 -24 -66l-87 -210h172z" />
    <glyph glyph-name="Aring" unicode="&#xc5;" horiz-adv-x="647" 
d="M395 714c-71 0 -120 52 -112 119c7 59 51 108 122 108c69 0 121 -50 113 -119c-8 -59 -52 -108 -123 -108zM351 829c-4 -34 18 -53 46 -53c31 0 51 22 53 54c3 29 -16 50 -46 50s-50 -22 -53 -51zM432 180h-238l-74 -180h-159l290 653c9 24 30 37 55 37h144
c25 0 47 -19 49 -43l109 -647h-153zM416 301l-27 209c-3 22 -4 45 -5 67h-29c-7 -20 -15 -44 -24 -66l-87 -210h172z" />
    <glyph glyph-name="Atilde" unicode="&#xc3;" horiz-adv-x="647" 
d="M332 803c-37 5 -48 -13 -53 -49l-63 6c1 98 42 141 94 139c59 -3 106 -41 151 -48c38 -7 49 12 54 46l62 -6c2 -95 -38 -140 -92 -138c-63 4 -112 43 -153 50zM432 180h-238l-74 -180h-159l290 653c9 24 30 37 55 37h144c25 0 47 -19 49 -43l109 -647h-153zM416 301
l-27 209c-3 22 -4 45 -5 67h-29c-7 -20 -15 -44 -24 -66l-87 -210h172z" />
    <glyph glyph-name="AE" unicode="&#xc6;" horiz-adv-x="931" 
d="M924 571h-243c-36 0 -56 -13 -62 -54l-15 -106h260l-13 -105h-262l-19 -135c-4 -38 6 -52 45 -52h245l-4 -112c-95 -10 -199 -10 -295 -10c-95 0 -149 60 -135 155l5 34h-203l-120 -186h-159l368 561c63 99 126 130 301 130c129 0 221 0 325 -8zM448 306l31 225
c3 24 16 51 30 66h-7c-14 -13 -32 -35 -47 -58l-150 -232z" />
    <glyph glyph-name="B" unicode="B" horiz-adv-x="635" 
d="M599 512c-14 -96 -51 -144 -140 -152l-1 -6c105 -8 134 -78 118 -188c-21 -141 -88 -174 -251 -174c-137 0 -209 1 -297 8l97 690c78 7 142 8 251 8c172 0 242 -41 223 -186zM452 503c10 65 -10 79 -82 79h-111l-25 -173h106c75 0 102 19 112 94zM426 207
c11 79 -9 98 -90 99h-116l-28 -198h107c88 0 115 19 127 99z" />
    <glyph glyph-name="C" unicode="C" horiz-adv-x="583" 
d="M386 702c96 0 145 -8 206 -24l-20 -113c-65 4 -108 5 -192 5c-100 0 -141 -35 -167 -231c-24 -171 -6 -219 94 -219c94 -1 148 2 209 9l6 -114c-67 -20 -126 -27 -220 -27c-213 0 -284 104 -248 363c38 267 119 351 332 351z" />
    <glyph glyph-name="Cacute" unicode="&#x106;" horiz-adv-x="583" 
d="M589 830l-238 -107l-37 64l218 150zM386 702c97 0 146 -8 207 -24l-20 -113c-65 4 -109 5 -193 5c-100 0 -140 -35 -166 -231c-24 -171 -6 -219 93 -219c94 -1 149 2 209 9l6 -114c-66 -20 -126 -27 -220 -27c-212 0 -284 104 -247 363c37 267 119 351 331 351z" />
    <glyph glyph-name="Ccaron" unicode="&#x10c;" horiz-adv-x="583" 
d="M593 871l-160 -131h-79l-135 140l49 50l126 -92h8l156 90zM386 702c97 0 146 -8 207 -24l-20 -113c-65 4 -109 5 -193 5c-100 0 -140 -35 -166 -231c-24 -171 -6 -219 93 -219c94 -1 149 2 209 9l6 -114c-66 -20 -126 -27 -220 -27c-212 0 -284 104 -247 363
c37 267 119 351 331 351z" />
    <glyph glyph-name="Ccedilla" unicode="&#xc7;" horiz-adv-x="583" 
d="M386 702c97 0 146 -8 207 -24l-20 -113c-65 4 -109 5 -193 5c-100 0 -140 -35 -166 -231c-24 -171 -6 -219 93 -219c94 -1 149 2 209 9l6 -114c-66 -20 -126 -27 -220 -27c-212 0 -284 104 -247 363c37 267 119 351 331 351zM197 -116l15 58c95 11 151 3 138 -70
c-16 -98 -106 -144 -214 -129l20 64c47 -1 90 18 98 58c3 16 -3 19 -57 19z" />
    <glyph glyph-name="Cdotaccent" unicode="&#x10a;" horiz-adv-x="583" 
d="M385 888h44c26 0 44 -16 41 -43l-7 -53c-4 -26 -17 -39 -43 -39h-45c-29 0 -44 17 -40 44l7 52c3 26 18 39 43 39zM386 702c97 0 146 -8 207 -24l-20 -113c-65 4 -109 5 -193 5c-100 0 -140 -35 -166 -231c-24 -171 -6 -219 93 -219c94 -1 149 2 209 9l6 -114
c-66 -20 -126 -27 -220 -27c-212 0 -284 104 -247 363c37 267 119 351 331 351z" />
    <glyph glyph-name="D" unicode="D" horiz-adv-x="678" 
d="M372 699c221 0 305 -83 266 -360c-42 -298 -128 -348 -349 -348c-85 0 -179 4 -261 9l97 690c72 5 174 9 247 9zM478 351c28 194 6 229 -111 229l-106 -1l-65 -467c32 -1 65 -1 91 -1c119 0 163 33 191 240z" />
    <glyph glyph-name="Eth" unicode="&#xd0;" horiz-adv-x="678" 
d="M372 699c221 0 305 -83 266 -360c-42 -298 -128 -348 -349 -348c-85 0 -179 4 -261 9l46 326h-55l10 76h56l40 288c72 5 174 9 247 9zM478 351c28 194 6 229 -111 229l-106 -1l-24 -177h122l-10 -76h-123l-30 -214c32 -1 65 -1 91 -1c119 0 163 33 191 240z" />
    <glyph glyph-name="Dcaron" unicode="&#x10e;" horiz-adv-x="678" 
d="M349 740l-135 140l49 50l126 -92h8l156 90l35 -57l-160 -131h-79zM372 699c221 0 305 -83 266 -360c-42 -298 -128 -348 -349 -348c-85 0 -179 4 -261 9l97 690c72 5 174 9 247 9zM478 351c28 194 6 229 -111 229l-106 -1l-65 -467c32 -1 65 -1 91 -1
c119 0 163 33 191 240z" />
    <glyph glyph-name="Dcroat" unicode="&#x110;" horiz-adv-x="678" 
d="M372 699c221 0 305 -83 266 -360c-42 -298 -128 -348 -349 -348c-85 0 -179 4 -261 9l46 326h-55l10 76h56l40 288c72 5 174 9 247 9zM478 351c28 194 6 229 -111 229l-106 -1l-24 -177h122l-10 -76h-123l-30 -214c32 -1 65 -1 91 -1c119 0 163 33 191 240z" />
    <glyph glyph-name="E" unicode="E" horiz-adv-x="572" 
d="M564 570h-258c-38 0 -53 -13 -58 -54l-14 -104h271l-14 -108h-272l-19 -133c-5 -37 7 -51 45 -51h255l-4 -113c-88 -10 -202 -10 -299 -10c-115 0 -165 66 -152 166l55 394c12 84 69 136 165 136c110 0 227 -1 318 -11z" />
    <glyph glyph-name="Eacute" unicode="&#xc9;" horiz-adv-x="572" 
d="M337 734l-37 64l218 150l57 -107zM564 570h-258c-38 0 -53 -13 -59 -54l-14 -104h271l-13 -108h-273l-18 -133c-5 -37 7 -51 45 -51h255l-4 -113c-88 -10 -202 -10 -299 -10c-115 0 -165 66 -152 166l55 394c12 84 69 136 165 136c109 0 227 -1 318 -11z" />
    <glyph glyph-name="Ecaron" unicode="&#x11a;" horiz-adv-x="572" 
d="M340 751l-135 140l49 50l126 -92h8l156 90l35 -57l-160 -131h-79zM564 570h-258c-38 0 -53 -13 -59 -54l-14 -104h271l-13 -108h-273l-18 -133c-5 -37 7 -51 45 -51h255l-4 -113c-88 -10 -202 -10 -299 -10c-115 0 -165 66 -152 166l55 394c12 84 69 136 165 136
c109 0 227 -1 318 -11z" />
    <glyph glyph-name="Ecircumflex" unicode="&#xca;" horiz-adv-x="572" 
d="M231 734l-37 56l148 133h102l127 -139l-45 -52l-131 98h-8zM564 570h-258c-38 0 -53 -13 -59 -54l-14 -104h271l-13 -108h-273l-18 -133c-5 -37 7 -51 45 -51h255l-4 -113c-88 -10 -202 -10 -299 -10c-115 0 -165 66 -152 166l55 394c12 84 69 136 165 136
c109 0 227 -1 318 -11z" />
    <glyph glyph-name="Edieresis" unicode="&#xcb;" horiz-adv-x="572" 
d="M320 774h-53c-21 0 -30 10 -28 30l10 62c3 22 13 32 36 32h50c24 0 31 -10 28 -31l-10 -63c-2 -21 -12 -30 -33 -30zM495 774h-53c-21 0 -31 10 -28 30l10 63c3 22 13 31 35 31h51c23 0 31 -10 28 -31l-10 -63c-2 -21 -12 -30 -33 -30zM564 570h-258
c-38 0 -53 -13 -59 -54l-14 -104h271l-13 -108h-273l-18 -133c-5 -37 7 -51 45 -51h255l-4 -113c-88 -10 -202 -10 -299 -10c-115 0 -165 66 -152 166l55 394c12 84 69 136 165 136c109 0 227 -1 318 -11z" />
    <glyph glyph-name="Edotaccent" unicode="&#x116;" horiz-adv-x="572" 
d="M406 764h-45c-29 0 -44 17 -40 44l7 52c3 26 18 39 43 39h44c26 0 44 -16 41 -43l-7 -53c-4 -26 -17 -39 -43 -39zM564 570h-258c-38 0 -53 -13 -59 -54l-14 -104h271l-13 -108h-273l-18 -133c-5 -37 7 -51 45 -51h255l-4 -113c-88 -10 -202 -10 -299 -10
c-115 0 -165 66 -152 166l55 394c12 84 69 136 165 136c109 0 227 -1 318 -11z" />
    <glyph glyph-name="Egrave" unicode="&#xc8;" horiz-adv-x="572" 
d="M405 734l-221 114l66 97l204 -148zM564 570h-258c-38 0 -53 -13 -59 -54l-14 -104h271l-13 -108h-273l-18 -133c-5 -37 7 -51 45 -51h255l-4 -113c-88 -10 -202 -10 -299 -10c-115 0 -165 66 -152 166l55 394c12 84 69 136 165 136c109 0 227 -1 318 -11z" />
    <glyph glyph-name="Emacron" unicode="&#x112;" horiz-adv-x="572" 
d="M531 788h-299l13 95h299zM564 570h-258c-38 0 -53 -13 -59 -54l-14 -104h271l-13 -108h-273l-18 -133c-5 -37 7 -51 45 -51h255l-4 -113c-88 -10 -202 -10 -299 -10c-115 0 -165 66 -152 166l55 394c12 84 69 136 165 136c109 0 227 -1 318 -11z" />
    <glyph glyph-name="Eogonek" unicode="&#x118;" horiz-adv-x="572" 
d="M564 570h-258c-38 0 -53 -13 -59 -54l-14 -104h271l-13 -108h-273l-18 -133c-5 -37 7 -51 45 -51h255l-4 -113c-28 -31 -53 -67 -72 -104c-19 -35 1 -44 49 -31l14 -57c-153 -57 -205 16 -168 88c14 28 43 62 96 98c-71 -4 -149 -4 -218 -4c-115 0 -165 66 -152 166
l55 394c12 84 69 136 165 136c109 0 227 -1 318 -11z" />
    <glyph glyph-name="F" unicode="F" horiz-adv-x="551" 
d="M558 570h-241c-45 0 -60 -11 -66 -54l-16 -117h263l-15 -108h-263l-41 -291h-153l77 553c13 90 73 140 165 140c107 0 221 -1 309 -12z" />
    <glyph glyph-name="G" unicode="G" horiz-adv-x="643" 
d="M460 399h146l-56 -399h-111l-4 86c-47 -52 -112 -99 -208 -99c-136 0 -204 102 -172 364c38 292 147 352 352 352c68 0 145 -6 211 -25l-19 -111c-68 3 -134 5 -190 5c-127 0 -169 -40 -195 -233c-21 -169 -4 -220 76 -220c61 0 96 27 141 68z" />
    <glyph glyph-name="Gbreve" unicode="&#x11e;" horiz-adv-x="643" 
d="M404 740c-112 0 -172 71 -150 154l72 5c-7 -43 23 -62 81 -62c65 0 102 25 106 65l69 -13c-1 -84 -69 -149 -178 -149zM460 399h146l-56 -399h-111l-4 86c-47 -52 -112 -99 -208 -99c-136 0 -204 102 -172 364c38 292 147 352 351 352c69 0 146 -6 212 -25l-19 -111
c-68 3 -134 5 -190 5c-127 0 -169 -40 -195 -233c-21 -169 -4 -220 76 -220c61 0 96 27 141 68z" />
    <glyph glyph-name="Gcommaaccent" unicode="&#x122;" horiz-adv-x="643" 
d="M460 399h146l-56 -399h-111l-4 86c-47 -52 -112 -99 -208 -99c-136 0 -204 102 -172 364c38 292 147 352 351 352c69 0 146 -6 212 -25l-19 -111c-68 3 -134 5 -190 5c-127 0 -169 -40 -195 -233c-21 -169 -4 -220 76 -220c61 0 96 27 141 68zM290 -52h30
c35 0 48 -13 42 -44l-7 -52c-8 -49 -35 -105 -67 -146l-59 19c14 34 25 66 35 103c-29 -1 -40 13 -37 37l7 42c6 32 20 41 56 41z" />
    <glyph glyph-name="Gdotaccent" unicode="&#x120;" horiz-adv-x="643" 
d="M427 752h-45c-29 0 -44 17 -40 44l7 52c3 26 18 39 43 39h44c26 0 44 -16 41 -43l-7 -53c-4 -26 -17 -39 -43 -39zM460 399h146l-56 -399h-111l-4 86c-47 -52 -112 -99 -208 -99c-136 0 -204 102 -172 364c38 292 147 352 351 352c69 0 146 -6 212 -25l-19 -111
c-68 3 -134 5 -190 5c-127 0 -169 -40 -195 -233c-21 -169 -4 -220 76 -220c61 0 96 27 141 68z" />
    <glyph glyph-name="H" unicode="H" horiz-adv-x="684" 
d="M670 690l-97 -690h-152l43 307h-240l-43 -307h-153l97 690h153l-37 -264h240l37 264h152z" />
    <glyph glyph-name="Hbar" unicode="&#x126;" horiz-adv-x="684" 
d="M709 514h-64l-72 -514h-152l43 307h-240l-43 -307h-153l72 514h-58l10 71h58l15 105h153l-15 -105h240l15 105h152l-15 -105h64zM493 514h-240l-12 -88h240z" />
    <glyph glyph-name="I" unicode="I" horiz-adv-x="292" 
d="M181 0h-153l97 690h153z" />
    <glyph glyph-name="IJ" unicode="&#x132;" horiz-adv-x="656" 
d="M181 0h-153l97 690h153zM646 690l-77 -548c-14 -101 -75 -154 -166 -154c-39 0 -101 9 -127 21l26 101h41c46 0 71 20 76 56l74 524h153z" />
    <glyph glyph-name="Iacute" unicode="&#xcd;" horiz-adv-x="292" 
d="M407 830l-238 -107l-37 64l218 150zM181 0h-153l97 690h153z" />
    <glyph glyph-name="Icircumflex" unicode="&#xce;" horiz-adv-x="292" 
d="M404 773l-45 -52l-131 98h-8l-156 -96l-37 56l148 133h102zM181 0h-153l97 690h153z" />
    <glyph glyph-name="Idieresis" unicode="&#xcf;" horiz-adv-x="292" 
d="M117 887h50c24 0 31 -10 28 -31l-10 -63c-2 -21 -12 -30 -33 -30h-53c-21 0 -30 10 -28 30l10 62c3 22 13 32 36 32zM291 887h51c23 0 31 -10 28 -31l-10 -63c-2 -21 -12 -30 -33 -30h-53c-21 0 -31 10 -28 30l10 63c3 22 13 31 35 31zM181 0h-153l97 690h153z" />
    <glyph glyph-name="Idotaccent" unicode="&#x130;" horiz-adv-x="292" 
d="M203 887h44c26 0 44 -16 41 -43l-7 -53c-4 -26 -17 -39 -43 -39h-45c-29 0 -44 17 -40 44l7 52c3 26 18 39 43 39zM181 0h-153l97 690h153z" />
    <glyph glyph-name="Igrave" unicode="&#xcc;" horiz-adv-x="292" 
d="M287 786l-49 -63l-221 114l66 97zM181 0h-153l97 690h153z" />
    <glyph glyph-name="Imacron" unicode="&#x12a;" horiz-adv-x="292" 
d="M363 776h-299l13 95h299zM181 0h-153l97 690h153z" />
    <glyph glyph-name="Iogonek" unicode="&#x12e;" horiz-adv-x="292" 
d="M278 690l-97 -690h-20c-28 -31 -53 -67 -72 -104c-19 -35 1 -44 49 -31l14 -57c-153 -57 -205 16 -168 88c15 30 46 66 105 104h-61l97 690h153z" />
    <glyph glyph-name="J" unicode="J" horiz-adv-x="365" 
d="M354 690l-77 -548c-14 -101 -75 -154 -166 -154c-39 0 -101 9 -127 21l26 101h41c46 0 71 20 76 56l74 524h153z" />
    <glyph glyph-name="K" unicode="K" horiz-adv-x="630" 
d="M396 353l-1 -4c16 -13 34 -40 45 -63l143 -286h-168l-142 304h-57c1 -24 1 -47 -2 -69l-33 -235h-153l97 690h153l-29 -203c-3 -25 -8 -49 -16 -74h56l206 277h176l-215 -284c-18 -25 -38 -41 -60 -53z" />
    <glyph glyph-name="Kcommaaccent" unicode="&#x136;" horiz-adv-x="630" 
d="M396 353l-1 -4c16 -13 34 -40 44 -63l144 -286h-168l-142 304h-57c1 -24 1 -47 -2 -69l-33 -235h-153l97 690h153l-29 -203c-3 -25 -9 -49 -16 -74h56l205 277h176l-214 -284c-18 -25 -39 -41 -60 -53zM274 -52h30c35 0 48 -13 42 -44l-7 -52c-8 -49 -35 -105 -67 -146
l-59 19c14 34 25 66 35 103c-29 -1 -40 13 -37 37l7 42c6 32 20 41 56 41z" />
    <glyph glyph-name="L" unicode="L" horiz-adv-x="528" 
d="M275 690l-73 -515c-4 -33 4 -51 45 -51h236l-3 -117c-88 -9 -193 -10 -290 -10s-156 58 -141 159l73 534h153z" />
    <glyph glyph-name="Lacute" unicode="&#x139;" horiz-adv-x="528" 
d="M406 824l-238 -107l-37 64l218 150zM275 690l-73 -515c-4 -33 4 -51 44 -51h237l-3 -117c-88 -9 -193 -10 -290 -10s-156 58 -141 159l73 534h153z" />
    <glyph glyph-name="Lcaron" unicode="&#x13d;" horiz-adv-x="528" 
d="M391 692h30c35 0 48 -13 42 -44l-7 -52c-8 -49 -35 -105 -67 -146l-59 19c14 34 25 66 35 103c-29 -1 -40 13 -37 37l7 42c6 32 20 41 56 41zM275 690l-73 -515c-4 -33 4 -51 44 -51h237l-3 -117c-88 -9 -193 -10 -290 -10s-156 58 -141 159l73 534h153z" />
    <glyph glyph-name="Lcommaaccent" unicode="&#x13b;" horiz-adv-x="528" 
d="M275 690l-73 -515c-4 -33 4 -51 44 -51h237l-3 -117c-88 -9 -193 -10 -290 -10s-156 58 -141 159l73 534h153zM249 -52h30c35 0 48 -13 42 -44l-7 -52c-8 -49 -35 -105 -67 -146l-59 19c14 34 25 66 35 103c-29 -1 -40 13 -37 37l7 42c6 32 20 41 56 41z" />
    <glyph glyph-name="Ldot" unicode="&#x13f;" horiz-adv-x="528" 
d="M275 690l-73 -515c-4 -33 4 -51 44 -51h237l-3 -117c-88 -9 -193 -10 -290 -10s-156 58 -141 159l73 534h153zM435 341h-44c-26 0 -44 16 -41 43l7 53c4 26 17 39 43 39h45c29 0 44 -17 40 -44l-7 -52c-3 -26 -18 -39 -43 -39z" />
    <glyph glyph-name="Lslash" unicode="&#x141;" horiz-adv-x="529" 
d="M484 124l-3 -117c-88 -9 -193 -10 -290 -10s-156 58 -141 159l21 153l-58 -22l10 81l59 22l41 300h153l-34 -239l116 44l-10 -81l-117 -45l-28 -194c-4 -33 4 -51 45 -51h236z" />
    <glyph glyph-name="M" unicode="M" horiz-adv-x="909" 
d="M673 689l147 1c37 0 57 -23 53 -59l-62 -631h-144l60 571h-17l-163 -430c-11 -33 -31 -46 -65 -46h-100c-34 0 -54 19 -57 51l-49 425h-17l-99 -571h-144l115 636c6 37 23 54 60 54h143c33 0 51 -19 54 -52l39 -344c4 -33 5 -64 5 -98h14c11 36 21 65 32 95l130 352
c11 33 31 46 65 46z" />
    <glyph glyph-name="N" unicode="N" horiz-adv-x="717" 
d="M704 690l-90 -638c-5 -36 -21 -52 -57 -52h-85c-33 0 -44 18 -57 48l-137 368c-11 29 -23 70 -30 104h-10c-1 -36 -3 -71 -8 -108l-57 -412h-145l90 638c5 36 22 52 58 52h84c32 0 44 -18 56 -48l133 -356c12 -31 26 -71 36 -112h12c0 40 2 74 7 111l55 405h145z" />
    <glyph glyph-name="Nacute" unicode="&#x143;" horiz-adv-x="717" 
d="M622 830l-238 -107l-37 64l218 150zM704 690l-90 -638c-5 -36 -21 -52 -57 -52h-85c-33 0 -44 18 -57 48l-137 368c-11 29 -23 70 -30 104h-10c-1 -36 -3 -71 -8 -108l-57 -412h-145l89 638c6 36 23 52 59 52h84c32 0 43 -18 56 -48l133 -356c12 -31 26 -71 36 -112h12
c0 40 2 74 7 111l55 405h145z" />
    <glyph glyph-name="Ncaron" unicode="&#x147;" horiz-adv-x="717" 
d="M626 871l-160 -131h-79l-135 140l49 50l126 -92h8l156 90zM704 690l-90 -638c-5 -36 -21 -52 -57 -52h-85c-33 0 -44 18 -57 48l-137 368c-11 29 -23 70 -30 104h-10c-1 -36 -3 -71 -8 -108l-57 -412h-145l89 638c6 36 23 52 59 52h84c32 0 43 -18 56 -48l133 -356
c12 -31 26 -71 36 -112h12c0 40 2 74 7 111l55 405h145z" />
    <glyph glyph-name="Ncommaaccent" unicode="&#x145;" horiz-adv-x="717" 
d="M704 690l-90 -638c-5 -36 -21 -52 -57 -52h-85c-33 0 -44 18 -57 48l-137 368c-11 29 -23 70 -30 104h-10c-1 -36 -3 -71 -8 -108l-57 -412h-145l89 638c6 36 23 52 59 52h84c32 0 43 -18 56 -48l133 -356c12 -31 26 -71 36 -112h12c0 40 2 74 7 111l55 405h145zM322 -52
h30c35 0 48 -13 42 -44l-7 -52c-8 -49 -35 -105 -67 -146l-59 19c14 34 25 66 35 103c-29 -1 -40 13 -37 37l7 42c6 32 20 41 56 41z" />
    <glyph glyph-name="Eng" unicode="&#x14a;" horiz-adv-x="719" 
d="M706 690l-106 -749c-14 -98 -74 -152 -153 -151c-36 0 -88 7 -119 21l26 94h39c40 0 67 19 73 54l7 47l-18 -1c-14 -1 -22 24 -29 41l-148 358c-13 30 -22 67 -28 105h-11c0 -38 -3 -74 -9 -111l-56 -398h-146l90 638c5 36 22 52 58 52h79c33 0 45 -18 56 -48l138 -344
c11 -27 27 -67 37 -112h10c0 44 4 80 9 119l55 385h146z" />
    <glyph glyph-name="Ntilde" unicode="&#xd1;" horiz-adv-x="717" 
d="M346 899c59 -3 106 -41 151 -48c38 -7 49 12 54 46l62 -6c2 -95 -38 -140 -92 -138c-63 4 -112 43 -153 50c-37 5 -48 -13 -53 -49l-63 6c1 98 42 141 94 139zM704 690l-90 -638c-5 -36 -21 -52 -57 -52h-85c-33 0 -44 18 -57 48l-137 368c-11 29 -23 70 -30 104h-10
c-1 -36 -3 -71 -8 -108l-57 -412h-145l89 638c6 36 23 52 59 52h84c32 0 43 -18 56 -48l133 -356c12 -31 26 -71 36 -112h12c0 40 2 74 7 111l55 405h145z" />
    <glyph glyph-name="O" unicode="O" horiz-adv-x="680" 
d="M388 703c205 0 291 -88 253 -364c-37 -274 -126 -352 -332 -352c-210 0 -292 86 -255 364c37 267 123 352 334 352zM383 580c-106 0 -141 -49 -169 -241c-26 -180 -5 -229 98 -229c105 0 142 51 170 241c27 185 3 229 -99 229z" />
    <glyph glyph-name="Oacute" unicode="&#xd3;" horiz-adv-x="680" 
d="M601 830l-238 -107l-37 64l218 150zM388 703c206 0 291 -88 254 -364c-38 -274 -127 -352 -333 -352c-209 0 -292 86 -254 364c36 267 122 352 333 352zM384 580c-107 0 -142 -49 -170 -241c-26 -180 -4 -229 99 -229c104 0 141 51 169 241c27 185 4 229 -98 229z" />
    <glyph glyph-name="Ocircumflex" unicode="&#xd4;" horiz-adv-x="680" 
d="M598 773l-45 -52l-131 98h-8l-156 -96l-37 56l148 133h102zM388 703c206 0 291 -88 254 -364c-38 -274 -127 -352 -333 -352c-209 0 -292 86 -254 364c36 267 122 352 333 352zM384 580c-107 0 -142 -49 -170 -241c-26 -180 -4 -229 99 -229c104 0 141 51 169 241
c27 185 4 229 -98 229z" />
    <glyph glyph-name="Odieresis" unicode="&#xd6;" horiz-adv-x="680" 
d="M311 887h50c24 0 31 -10 28 -31l-10 -63c-2 -21 -12 -30 -33 -30h-53c-21 0 -30 10 -28 30l10 62c3 22 13 32 36 32zM485 887h51c23 0 31 -10 28 -31l-10 -63c-2 -21 -12 -30 -33 -30h-53c-21 0 -31 10 -28 30l10 63c3 22 13 31 35 31zM388 703c206 0 291 -88 254 -364
c-38 -274 -127 -352 -333 -352c-209 0 -292 86 -254 364c36 267 122 352 333 352zM384 580c-107 0 -142 -49 -170 -241c-26 -180 -4 -229 99 -229c104 0 141 51 169 241c27 185 4 229 -98 229z" />
    <glyph glyph-name="Ograve" unicode="&#xd2;" horiz-adv-x="680" 
d="M481 786l-49 -63l-221 114l66 97zM388 703c206 0 291 -88 254 -364c-38 -274 -127 -352 -333 -352c-209 0 -292 86 -254 364c36 267 122 352 333 352zM384 580c-107 0 -142 -49 -170 -241c-26 -180 -4 -229 99 -229c104 0 141 51 169 241c27 185 4 229 -98 229z" />
    <glyph glyph-name="Ohungarumlaut" unicode="&#x150;" horiz-adv-x="680" 
d="M469 882l-170 -162l-60 42l143 181zM658 882l-170 -162l-59 41l142 182zM388 703c206 0 291 -88 254 -364c-38 -274 -127 -352 -333 -352c-209 0 -292 86 -254 364c36 267 122 352 333 352zM384 580c-107 0 -142 -49 -170 -241c-26 -180 -4 -229 99 -229
c104 0 141 51 169 241c27 185 4 229 -98 229z" />
    <glyph glyph-name="Omacron" unicode="&#x14c;" horiz-adv-x="680" 
d="M557 776h-299l13 95h299zM388 703c206 0 291 -88 254 -364c-38 -274 -127 -352 -333 -352c-209 0 -292 86 -254 364c36 267 122 352 333 352zM384 580c-107 0 -142 -49 -170 -241c-26 -180 -4 -229 99 -229c104 0 141 51 169 241c27 185 4 229 -98 229z" />
    <glyph glyph-name="Oslash" unicode="&#xd8;" horiz-adv-x="680" 
d="M660 746l-65 -108c51 -56 67 -150 47 -299c-38 -274 -127 -352 -333 -352c-36 0 -68 3 -96 8l-60 -98l-107 56l58 95c-54 54 -70 149 -49 303c36 267 122 352 333 352c38 0 71 -3 101 -9l64 107zM482 351c27 185 4 229 -98 229c-107 0 -142 -49 -170 -241
c-26 -180 -4 -229 99 -229c104 0 141 51 169 241z" />
    <glyph glyph-name="Otilde" unicode="&#xd5;" horiz-adv-x="680" 
d="M326 899c59 -3 106 -41 151 -48c38 -7 49 12 54 46l62 -6c2 -95 -38 -140 -92 -138c-63 4 -112 43 -153 50c-37 5 -48 -13 -53 -49l-63 6c1 98 42 141 94 139zM388 703c206 0 291 -88 254 -364c-38 -274 -127 -352 -333 -352c-209 0 -292 86 -254 364
c36 267 122 352 333 352zM384 580c-107 0 -142 -49 -170 -241c-26 -180 -4 -229 99 -229c104 0 141 51 169 241c27 185 4 229 -98 229z" />
    <glyph glyph-name="OE" unicode="&#x152;" horiz-adv-x="949" 
d="M940 570h-255c-34 0 -54 -17 -58 -54l-14 -105h268l-13 -105h-270l-19 -138c-5 -35 6 -48 41 -48h256l-3 -113c-90 -10 -204 -10 -302 -10c-40 0 -73 8 -97 24c-55 -25 -102 -34 -170 -34c-220 0 -289 84 -250 364c39 274 123 352 334 352c74 0 120 -8 171 -28
c23 12 50 18 81 18c109 0 228 -1 319 -11zM214 339c-26 -179 -6 -229 91 -229c56 0 86 5 116 14c0 9 1 18 2 28l56 405l3 15c-25 5 -52 8 -94 8c-106 0 -148 -54 -174 -241z" />
    <glyph glyph-name="P" unicode="P" horiz-adv-x="609" 
d="M379 699c183 0 249 -59 225 -231c-25 -181 -90 -220 -259 -220c-44 0 -89 4 -129 9l-36 -257h-152l97 690c82 8 137 9 254 9zM454 479c12 82 -9 103 -79 103l-113 -1l-31 -216h104c82 0 105 20 119 114z" />
    <glyph glyph-name="Thorn" unicode="&#xde;" horiz-adv-x="609" 
d="M262 573l99 1c175 0 250 -52 225 -234c-25 -176 -92 -221 -253 -221c-47 0 -93 3 -134 9l-18 -128h-153l97 690h153zM434 352c12 84 -3 105 -77 105l-112 -1l-31 -219h103c77 0 104 19 117 115z" />
    <glyph glyph-name="Q" unicode="Q" horiz-adv-x="680" 
d="M388 703c205 0 291 -88 253 -364c-37 -274 -126 -352 -332 -352c-210 0 -292 86 -255 364c37 267 123 352 334 352zM383 580c-106 0 -141 -49 -169 -241c-26 -180 -5 -229 98 -229c105 0 142 51 170 241c27 185 3 229 -99 229zM191 -116l49 80c87 -35 182 -57 292 -74
l-58 -136c-119 33 -210 79 -283 130z" />
    <glyph glyph-name="R" unicode="R" horiz-adv-x="641" 
d="M612 489c-12 -90 -51 -153 -155 -165l-1 -6c38 -9 72 -35 83 -106l36 -212h-156l-32 214c-5 43 -21 55 -58 55h-114l-38 -269h-149l97 690c82 8 144 9 255 9c161 0 254 -49 232 -210zM231 387h109c79 0 108 23 120 104c10 69 -10 91 -83 91l-118 -1z" />
    <glyph glyph-name="Racute" unicode="&#x154;" horiz-adv-x="641" 
d="M336 723l-37 64l218 150l57 -107zM612 489c-12 -90 -50 -153 -155 -165l-1 -6c38 -9 73 -35 83 -106l36 -212h-156l-31 214c-6 43 -22 55 -59 55h-114l-38 -269h-149l97 690c82 8 144 9 255 9c161 0 254 -49 232 -210zM231 387h109c79 0 108 23 120 104
c10 69 -9 91 -83 91l-118 -1z" />
    <glyph glyph-name="Rcaron" unicode="&#x158;" horiz-adv-x="641" 
d="M339 740l-135 140l49 50l126 -92h8l156 90l35 -57l-160 -131h-79zM612 489c-12 -90 -50 -153 -155 -165l-1 -6c38 -9 73 -35 83 -106l36 -212h-156l-31 214c-6 43 -22 55 -59 55h-114l-38 -269h-149l97 690c82 8 144 9 255 9c161 0 254 -49 232 -210zM231 387h109
c79 0 108 23 120 104c10 69 -9 91 -83 91l-118 -1z" />
    <glyph glyph-name="Rcommaaccent" unicode="&#x156;" horiz-adv-x="641" 
d="M612 489c-12 -90 -50 -153 -155 -165l-1 -6c38 -9 73 -35 83 -106l36 -212h-156l-31 214c-6 43 -22 55 -59 55h-114l-38 -269h-149l97 690c82 8 144 9 255 9c161 0 254 -49 232 -210zM231 387h109c79 0 108 23 120 104c10 69 -9 91 -83 91l-118 -1zM295 -52h30
c35 0 48 -13 42 -44l-7 -52c-8 -49 -35 -105 -67 -146l-59 19c14 34 25 66 35 103c-29 -1 -40 13 -37 37l7 42c6 32 20 41 56 41z" />
    <glyph glyph-name="S" unicode="S" 
d="M342 703c71 0 153 -7 225 -28l-15 -103c-60 2 -140 3 -214 3c-73 1 -102 -1 -112 -66c-7 -47 5 -57 55 -76l124 -48c109 -43 132 -102 119 -205c-20 -155 -89 -193 -272 -193c-48 0 -138 5 -237 27l16 109c127 -3 185 -5 215 -5c91 0 118 11 127 71c6 47 -7 57 -50 73
l-131 53c-104 43 -130 109 -118 203c21 155 107 185 268 185z" />
    <glyph glyph-name="Sacute" unicode="&#x15a;" 
d="M548 830l-238 -107l-37 64l218 150zM342 703c71 0 153 -7 225 -28l-15 -103c-60 2 -140 3 -214 3c-73 1 -102 -1 -112 -66c-7 -47 5 -57 55 -76l124 -48c109 -43 132 -102 119 -205c-20 -155 -89 -193 -272 -193c-48 0 -138 5 -237 27l16 109c127 -3 185 -5 215 -5
c91 0 118 11 127 71c6 47 -7 57 -50 73l-131 53c-104 43 -130 109 -118 203c21 155 107 185 268 185z" />
    <glyph glyph-name="Scaron" unicode="&#x160;" 
d="M552 871l-160 -131h-79l-135 140l49 50l126 -92h8l156 90zM342 703c71 0 153 -7 225 -28l-15 -103c-60 2 -140 3 -214 3c-73 1 -102 -1 -112 -66c-7 -47 5 -57 55 -76l124 -48c109 -43 132 -102 119 -205c-20 -155 -89 -193 -272 -193c-48 0 -138 5 -237 27l16 109
c127 -3 185 -5 215 -5c91 0 118 11 127 71c6 47 -7 57 -50 73l-131 53c-104 43 -130 109 -118 203c21 155 107 185 268 185z" />
    <glyph glyph-name="Scedilla" unicode="&#x15e;" 
d="M342 703c71 0 153 -7 225 -28l-15 -103c-60 2 -140 3 -214 3c-73 1 -102 -1 -112 -66c-7 -47 5 -57 55 -76l124 -48c109 -43 132 -102 119 -205c-20 -155 -89 -193 -272 -193c-48 0 -138 5 -237 27l16 109c127 -3 185 -5 215 -5c91 0 118 11 127 71c6 47 -7 57 -50 73
l-131 53c-104 43 -130 109 -118 203c21 155 107 185 268 185zM169 -117l15 58c95 11 151 3 138 -70c-16 -98 -106 -144 -214 -129l20 64c47 -1 90 18 98 58c3 16 -3 19 -57 19z" />
    <glyph glyph-name="Scommaaccent" unicode="&#x218;" 
d="M342 703c71 0 153 -7 225 -28l-15 -103c-60 2 -140 3 -214 3c-73 1 -102 -1 -112 -66c-7 -47 5 -57 55 -76l124 -48c109 -43 132 -102 119 -205c-20 -155 -89 -193 -272 -193c-48 0 -138 5 -237 27l16 109c127 -3 185 -5 215 -5c91 0 118 11 127 71c6 47 -7 57 -50 73
l-131 53c-104 43 -130 109 -118 203c21 155 107 185 268 185zM246 -52h30c35 0 48 -13 42 -44l-7 -52c-8 -49 -35 -105 -67 -146l-59 19c14 34 25 66 35 103c-29 -1 -40 13 -37 37l7 42c6 32 20 41 56 41z" />
    <glyph glyph-name="T" unicode="T" horiz-adv-x="594" 
d="M617 566h-205l-80 -566h-153l80 566h-205l17 124h563z" />
    <glyph glyph-name="Tbar" unicode="&#x166;" horiz-adv-x="594" 
d="M411 566l-23 -157h135l-10 -73h-135l-47 -336h-152l47 336h-122l10 73h122l23 157h-205l18 124h562l-17 -124h-206z" />
    <glyph glyph-name="Tcaron" unicode="&#x164;" horiz-adv-x="594" 
d="M321 740l-135 140l49 50l126 -92h8l156 90l35 -57l-160 -131h-79zM617 566h-206l-80 -566h-152l80 566h-205l18 124h562z" />
    <glyph glyph-name="Tcedilla" unicode="&#x162;" horiz-adv-x="594" 
d="M617 566h-206l-80 -566h-152l80 566h-205l18 124h562zM171 -100l15 58c95 11 151 3 138 -70c-16 -98 -106 -144 -214 -129l20 64c47 -1 90 18 98 58c3 16 -3 19 -57 19z" />
    <glyph glyph-name="uni021A" unicode="&#x21a;" horiz-adv-x="594" 
d="M617 566h-206l-80 -566h-152l80 566h-205l18 124h562zM231 -48h30c35 0 48 -13 42 -44l-7 -52c-8 -49 -35 -105 -67 -146l-59 19c14 34 25 66 35 103c-29 -1 -40 13 -37 37l7 42c6 32 20 41 56 41z" />
    <glyph glyph-name="U" unicode="U" horiz-adv-x="677" 
d="M670 690l-60 -418c-30 -210 -109 -285 -301 -285c-191 0 -277 80 -248 291l58 412h153l-59 -418c-18 -125 3 -162 96 -162c96 0 131 41 150 168l58 412h153z" />
    <glyph glyph-name="Uacute" unicode="&#xda;" horiz-adv-x="677" 
d="M599 830l-238 -107l-37 64l218 150zM669 690l-59 -418c-30 -210 -110 -285 -302 -285c-190 0 -276 80 -247 291l58 412h153l-60 -418c-17 -125 3 -162 96 -162c97 0 131 41 151 168l57 412h153z" />
    <glyph glyph-name="Ucircumflex" unicode="&#xdb;" horiz-adv-x="677" 
d="M596 773l-45 -52l-131 98h-8l-156 -96l-37 56l148 133h102zM669 690l-59 -418c-30 -210 -110 -285 -302 -285c-190 0 -276 80 -247 291l58 412h153l-60 -418c-17 -125 3 -162 96 -162c97 0 131 41 151 168l57 412h153z" />
    <glyph glyph-name="Udieresis" unicode="&#xdc;" horiz-adv-x="677" 
d="M309 887h50c24 0 31 -10 28 -31l-10 -63c-2 -21 -12 -30 -33 -30h-53c-21 0 -30 10 -28 30l10 62c3 22 13 32 36 32zM483 887h51c23 0 31 -10 28 -31l-10 -63c-2 -21 -12 -30 -33 -30h-53c-21 0 -31 10 -28 30l10 63c3 22 13 31 35 31zM669 690l-59 -418
c-30 -210 -110 -285 -302 -285c-190 0 -276 80 -247 291l58 412h153l-60 -418c-17 -125 3 -162 96 -162c97 0 131 41 151 168l57 412h153z" />
    <glyph glyph-name="Ugrave" unicode="&#xd9;" horiz-adv-x="677" 
d="M479 786l-49 -63l-221 114l66 97zM669 690l-59 -418c-30 -210 -110 -285 -302 -285c-190 0 -276 80 -247 291l58 412h153l-60 -418c-17 -125 3 -162 96 -162c97 0 131 41 151 168l57 412h153z" />
    <glyph glyph-name="Uhungarumlaut" unicode="&#x170;" horiz-adv-x="677" 
d="M467 882l-170 -162l-60 42l143 181zM656 882l-170 -162l-59 41l142 182zM669 690l-59 -418c-30 -210 -110 -285 -302 -285c-190 0 -276 80 -247 291l58 412h153l-60 -418c-17 -125 3 -162 96 -162c97 0 131 41 151 168l57 412h153z" />
    <glyph glyph-name="Umacron" unicode="&#x16a;" horiz-adv-x="677" 
d="M555 776h-299l13 95h299zM669 690l-59 -418c-30 -210 -110 -285 -302 -285c-190 0 -276 80 -247 291l58 412h153l-60 -418c-17 -125 3 -162 96 -162c97 0 131 41 151 168l57 412h153z" />
    <glyph glyph-name="Uogonek" unicode="&#x172;" horiz-adv-x="677" 
d="M669 690l-59 -418c-29 -200 -102 -277 -274 -284c-27 -31 -51 -65 -69 -101c-19 -35 1 -44 49 -31l14 -57c-153 -57 -205 16 -168 88c15 29 45 64 102 102c-159 12 -230 95 -203 289l58 412h153l-60 -418c-17 -125 3 -162 96 -162c97 0 131 41 151 168l57 412h153z" />
    <glyph glyph-name="Uring" unicode="&#x16e;" horiz-adv-x="677" 
d="M419 941c69 0 121 -50 113 -119c-8 -59 -52 -108 -123 -108s-120 52 -112 119c7 59 51 108 122 108zM418 880c-30 0 -50 -22 -53 -51c-4 -34 18 -53 46 -53c31 0 51 22 53 54c3 29 -16 50 -46 50zM669 690l-59 -418c-30 -210 -110 -285 -302 -285
c-190 0 -276 80 -247 291l58 412h153l-60 -418c-17 -125 3 -162 96 -162c97 0 131 41 151 168l57 412h153z" />
    <glyph glyph-name="V" unicode="V" horiz-adv-x="633" 
d="M682 690l-281 -651c-10 -25 -28 -39 -55 -39h-138c-26 0 -46 20 -49 44l-98 646h154l54 -496c3 -27 5 -55 6 -81h25c7 27 17 56 27 82l194 495h161z" />
    <glyph glyph-name="W" unicode="W" horiz-adv-x="967" 
d="M998 690l-202 -651c-8 -25 -29 -39 -56 -39h-144c-27 0 -50 20 -51 46l-13 446c0 31 -1 58 0 88h-19c-7 -29 -15 -61 -23 -89l-137 -451c-8 -26 -29 -40 -57 -40h-145c-27 0 -51 20 -51 45l-21 645h153l-1 -482c0 -30 -2 -63 -3 -100h20c9 37 20 74 29 106l133 432
c8 27 28 44 58 44h129c28 0 48 -22 48 -50l19 -433c1 -32 2 -67 1 -99h21c7 32 16 72 25 104l132 478h155z" />
    <glyph glyph-name="Wacute" unicode="&#x1e82;" horiz-adv-x="967" 
d="M741 829l-238 -107l-37 64l218 150zM998 690l-202 -651c-7 -25 -28 -39 -56 -39h-144c-27 0 -50 20 -50 46l-14 446c0 31 -1 58 0 88h-19c-7 -29 -15 -61 -23 -89l-137 -451c-8 -26 -29 -40 -57 -40h-145c-27 0 -51 20 -51 45l-21 645h153l-1 -482c0 -30 -1 -63 -3 -100
h20c10 37 20 74 30 106l132 432c8 27 28 44 58 44h129c28 0 48 -22 48 -50l19 -433c2 -32 2 -67 1 -99h21c7 32 16 72 25 104l132 478h155z" />
    <glyph glyph-name="Wcircumflex" unicode="&#x174;" horiz-adv-x="967" 
d="M737 772l-45 -52l-131 98h-8l-156 -96l-37 56l148 133h102zM998 690l-202 -651c-7 -25 -28 -39 -56 -39h-144c-27 0 -50 20 -50 46l-14 446c0 31 -1 58 0 88h-19c-7 -29 -15 -61 -23 -89l-137 -451c-8 -26 -29 -40 -57 -40h-145c-27 0 -51 20 -51 45l-21 645h153l-1 -482
c0 -30 -1 -63 -3 -100h20c10 37 20 74 30 106l132 432c8 27 28 44 58 44h129c28 0 48 -22 48 -50l19 -433c2 -32 2 -67 1 -99h21c7 32 16 72 25 104l132 478h155z" />
    <glyph glyph-name="Wdieresis" unicode="&#x1e84;" horiz-adv-x="967" 
d="M451 886h50c24 0 31 -10 28 -31l-10 -63c-2 -21 -12 -30 -33 -30h-53c-21 0 -30 10 -28 30l10 62c3 22 13 32 36 32zM625 886h51c23 0 31 -10 28 -31l-10 -63c-2 -21 -12 -30 -33 -30h-53c-21 0 -31 10 -28 30l10 63c3 22 13 31 35 31zM998 690l-202 -651
c-7 -25 -28 -39 -56 -39h-144c-27 0 -50 20 -50 46l-14 446c0 31 -1 58 0 88h-19c-7 -29 -15 -61 -23 -89l-137 -451c-8 -26 -29 -40 -57 -40h-145c-27 0 -51 20 -51 45l-21 645h153l-1 -482c0 -30 -1 -63 -3 -100h20c10 37 20 74 30 106l132 432c8 27 28 44 58 44h129
c28 0 48 -22 48 -50l19 -433c2 -32 2 -67 1 -99h21c7 32 16 72 25 104l132 478h155z" />
    <glyph glyph-name="Wgrave" unicode="&#x1e80;" horiz-adv-x="967" 
d="M620 785l-49 -63l-221 114l66 97zM998 690l-202 -651c-7 -25 -28 -39 -56 -39h-144c-27 0 -50 20 -50 46l-14 446c0 31 -1 58 0 88h-19c-7 -29 -15 -61 -23 -89l-137 -451c-8 -26 -29 -40 -57 -40h-145c-27 0 -51 20 -51 45l-21 645h153l-1 -482c0 -30 -1 -63 -3 -100h20
c10 37 20 74 30 106l132 432c8 27 28 44 58 44h129c28 0 48 -22 48 -50l19 -433c2 -32 2 -67 1 -99h21c7 32 16 72 25 104l132 478h155z" />
    <glyph glyph-name="X" unicode="X" horiz-adv-x="638" 
d="M458 354l129 -354h-153l-99 307h-12l-187 -307h-168l230 354l-117 336h151l90 -285h13l177 285h160z" />
    <glyph glyph-name="Y" unicode="Y" horiz-adv-x="605" 
d="M367 225l-31 -225h-154l33 233l-160 457h153l78 -256c8 -31 12 -60 13 -89h11c6 27 20 63 36 91l150 254h164z" />
    <glyph glyph-name="Yacute" unicode="&#xdd;" horiz-adv-x="605" 
d="M321 723l-37 64l218 150l57 -107zM367 225l-32 -225h-153l33 233l-160 457h153l78 -256c8 -31 12 -60 13 -89h11c5 27 20 63 36 91l149 254h164z" />
    <glyph glyph-name="Ycircumflex" unicode="&#x176;" horiz-adv-x="605" 
d="M215 723l-37 56l148 133h102l127 -139l-45 -52l-131 98h-8zM367 225l-32 -225h-153l33 233l-160 457h153l78 -256c8 -31 12 -60 13 -89h11c5 27 20 63 36 91l149 254h164z" />
    <glyph glyph-name="Ydieresis" unicode="&#x178;" horiz-adv-x="605" 
d="M304 763h-53c-21 0 -30 10 -28 30l10 62c3 22 13 32 36 32h50c24 0 31 -10 28 -31l-10 -63c-2 -21 -12 -30 -33 -30zM479 763h-53c-21 0 -31 10 -28 30l10 63c3 22 13 31 35 31h51c23 0 31 -10 28 -31l-10 -63c-2 -21 -12 -30 -33 -30zM367 225l-32 -225h-153l33 233
l-160 457h153l78 -256c8 -31 12 -60 13 -89h11c5 27 20 63 36 91l149 254h164z" />
    <glyph glyph-name="Ygrave" unicode="&#x1ef2;" horiz-adv-x="605" 
d="M389 723l-221 114l66 97l204 -148zM367 225l-32 -225h-153l33 233l-160 457h153l78 -256c8 -31 12 -60 13 -89h11c5 27 20 63 36 91l149 254h164z" />
    <glyph glyph-name="Z" unicode="Z" 
d="M571 573l-384 -456h328l-16 -117h-500l15 117l385 456h-312l16 117h485z" />
    <glyph glyph-name="Zacute" unicode="&#x179;" 
d="M312 723l-37 64l218 150l57 -107zM589 690l-17 -117h-1l-384 -456h329l-16 -117h-501l16 117h-1l385 456h-312l17 117h485z" />
    <glyph glyph-name="Zcaron" unicode="&#x17d;" 
d="M315 740l-135 140l49 50l126 -92h8l156 90l35 -57l-160 -131h-79zM589 690l-17 -117h-1l-384 -456h329l-16 -117h-501l16 117h-1l385 456h-312l17 117h485z" />
    <glyph glyph-name="Zdotaccent" unicode="&#x17b;" 
d="M381 752h-45c-29 0 -44 17 -40 44l7 52c3 26 18 39 43 39h44c26 0 44 -16 41 -43l-7 -53c-4 -26 -17 -39 -43 -39zM589 690l-17 -117h-1l-384 -456h329l-16 -117h-501l16 117h-1l385 456h-312l17 117h485z" />
    <glyph glyph-name="a" unicode="a" horiz-adv-x="590" 
d="M312 507c72 0 188 -15 245 -30l-67 -477h-115l2 89c-47 -59 -116 -98 -203 -101c-125 -4 -165 77 -137 268c33 230 128 251 275 251zM223 108c51 1 98 37 147 93l29 197h-76c-92 0 -119 -14 -137 -144c-18 -127 -11 -148 37 -146z" />
    <glyph glyph-name="aacute" unicode="&#xe1;" horiz-adv-x="590" 
d="M295 540l-37 64l218 150l57 -107zM312 507c72 0 188 -15 245 -30l-67 -477h-115l1 88c-47 -58 -116 -97 -202 -100c-125 -4 -165 77 -137 268c33 230 128 251 275 251zM223 108c51 1 98 37 147 92l29 198h-76c-92 0 -119 -14 -137 -144c-18 -127 -11 -148 37 -146z" />
    <glyph glyph-name="abreve" unicode="&#x103;" horiz-adv-x="590" 
d="M342 557c-112 0 -172 71 -150 154l72 5c-7 -43 23 -62 81 -62c65 0 102 25 106 65l69 -13c-1 -84 -69 -149 -178 -149zM312 507c72 0 188 -15 245 -30l-67 -477h-115l1 88c-47 -58 -116 -97 -202 -100c-125 -4 -165 77 -137 268c33 230 128 251 275 251zM223 108
c51 1 98 37 147 92l29 198h-76c-92 0 -119 -14 -137 -144c-18 -127 -11 -148 37 -146z" />
    <glyph glyph-name="acircumflex" unicode="&#xe2;" horiz-adv-x="590" 
d="M190 540l-37 56l148 133h102l127 -139l-45 -52l-131 98h-8zM312 507c72 0 188 -15 245 -30l-67 -477h-115l1 88c-47 -58 -116 -97 -202 -100c-125 -4 -165 77 -137 268c33 230 128 251 275 251zM223 108c51 1 98 37 147 92l29 198h-76c-92 0 -119 -14 -137 -144
c-18 -127 -11 -148 37 -146z" />
    <glyph glyph-name="adieresis" unicode="&#xe4;" horiz-adv-x="590" 
d="M278 580h-53c-21 0 -30 10 -28 30l10 62c3 22 13 32 36 32h50c24 0 31 -10 28 -31l-10 -63c-2 -21 -12 -30 -33 -30zM453 580h-53c-21 0 -31 10 -28 30l10 63c3 22 13 31 35 31h51c23 0 31 -10 28 -31l-10 -63c-2 -21 -12 -30 -33 -30zM312 507c72 0 188 -15 245 -30
l-67 -477h-115l1 88c-47 -58 -116 -97 -202 -100c-125 -4 -165 77 -137 268c33 230 128 251 275 251zM223 108c51 1 98 37 147 92l29 198h-76c-92 0 -119 -14 -137 -144c-18 -127 -11 -148 37 -146z" />
    <glyph glyph-name="agrave" unicode="&#xe0;" horiz-adv-x="590" 
d="M364 540l-221 114l66 97l204 -148zM312 507c72 0 188 -15 245 -30l-67 -477h-115l1 88c-47 -58 -116 -97 -202 -100c-125 -4 -165 77 -137 268c33 230 128 251 275 251zM223 108c51 1 98 37 147 92l29 198h-76c-92 0 -119 -14 -137 -144c-18 -127 -11 -148 37 -146z" />
    <glyph glyph-name="amacron" unicode="&#x101;" horiz-adv-x="590" 
d="M489 594h-299l13 95h299zM312 507c72 0 188 -15 245 -30l-67 -477h-115l1 88c-47 -58 -116 -97 -202 -100c-125 -4 -165 77 -137 268c33 230 128 251 275 251zM223 108c51 1 98 37 147 92l29 198h-76c-92 0 -119 -14 -137 -144c-18 -127 -11 -148 37 -146z" />
    <glyph glyph-name="aogonek" unicode="&#x105;" horiz-adv-x="590" 
d="M557 477l-67 -477c-28 -31 -53 -67 -72 -104c-19 -35 1 -44 49 -31l14 -57c-153 -57 -205 16 -168 88c15 30 46 66 105 104h-43l1 88c-47 -58 -116 -97 -202 -100c-125 -4 -165 77 -137 268c33 230 128 251 275 251c72 0 188 -15 245 -30zM223 108c51 1 98 37 147 92
l29 198h-76c-92 0 -119 -14 -137 -144c-18 -127 -11 -148 37 -146z" />
    <glyph glyph-name="aring" unicode="&#xe5;" horiz-adv-x="590" 
d="M343 532c-71 0 -120 52 -112 119c7 59 51 108 122 108c69 0 121 -50 113 -119c-8 -59 -52 -108 -123 -108zM299 647c-4 -34 18 -53 46 -53c31 0 51 22 53 54c3 29 -16 50 -46 50s-50 -22 -53 -51zM312 507c72 0 188 -15 245 -30l-67 -477h-115l1 88
c-47 -58 -116 -97 -202 -100c-125 -4 -165 77 -137 268c33 230 128 251 275 251zM223 108c51 1 98 37 147 92l29 198h-76c-92 0 -119 -14 -137 -144c-18 -127 -11 -148 37 -146z" />
    <glyph glyph-name="atilde" unicode="&#xe3;" horiz-adv-x="590" 
d="M280 620c-37 5 -48 -13 -53 -49l-63 6c1 98 42 141 94 139c59 -3 106 -41 151 -48c38 -7 49 12 54 46l62 -6c2 -95 -38 -140 -92 -138c-63 4 -112 43 -153 50zM312 507c72 0 188 -15 245 -30l-67 -477h-115l1 88c-47 -58 -116 -97 -202 -100c-125 -4 -165 77 -137 268
c33 230 128 251 275 251zM223 108c51 1 98 37 147 92l29 198h-76c-92 0 -119 -14 -137 -144c-18 -127 -11 -148 37 -146z" />
    <glyph glyph-name="ae" unicode="&#xe6;" horiz-adv-x="891" 
d="M652 507c181 0 225 -65 211 -170c-15 -96 -76 -128 -201 -137l-148 -12c3 -69 37 -82 101 -82c45 0 128 4 185 11l9 -94c-59 -26 -146 -35 -211 -35c-121 0 -189 36 -218 107c-46 -62 -117 -104 -206 -107c-125 -4 -164 77 -137 268c32 230 119 250 256 251
c74 0 154 -8 215 -19c39 14 86 19 144 19zM719 351c5 46 -16 49 -77 48c-77 0 -102 -23 -119 -123l116 11c50 4 75 15 80 64zM224 108c47 1 93 34 140 86c0 20 1 41 4 63c7 59 19 105 38 140c-34 1 -63 1 -84 1c-93 0 -116 -14 -134 -144c-18 -127 -11 -148 36 -146z" />
    <glyph glyph-name="b" unicode="b" horiz-adv-x="592" 
d="M408 506c116 0 164 -66 135 -264c-26 -189 -99 -255 -257 -255c-74 0 -200 15 -265 39l95 674h147l-22 -171c-5 -41 -13 -78 -28 -117c53 51 125 94 195 94zM394 252c16 115 6 134 -39 134c-38 0 -91 -27 -145 -73l-31 -215c33 -2 63 -3 78 -2c96 1 118 22 137 156z" />
    <glyph glyph-name="c" unicode="c" horiz-adv-x="507" 
d="M305 507c60 0 137 -9 189 -32l-20 -90c-58 1 -113 2 -149 2c-89 0 -124 -26 -138 -141c-15 -119 7 -138 92 -138c36 0 100 1 156 9l10 -97c-57 -24 -129 -32 -192 -32c-176 0 -247 75 -220 265c26 184 95 254 272 254z" />
    <glyph glyph-name="cacute" unicode="&#x107;" horiz-adv-x="507" 
d="M508 647l-238 -107l-37 64l218 150zM305 507c60 0 136 -9 189 -32l-21 -90c-58 1 -112 2 -148 2c-89 0 -124 -26 -138 -141c-15 -119 7 -138 92 -138c36 0 100 1 156 9l10 -97c-57 -24 -130 -32 -192 -32c-176 0 -247 75 -220 265c26 184 95 254 272 254z" />
    <glyph glyph-name="ccaron" unicode="&#x10d;" horiz-adv-x="507" 
d="M512 688l-160 -131h-79l-135 140l49 50l126 -92h8l156 90zM305 507c60 0 136 -9 189 -32l-21 -90c-58 1 -112 2 -148 2c-89 0 -124 -26 -138 -141c-15 -119 7 -138 92 -138c36 0 100 1 156 9l10 -97c-57 -24 -130 -32 -192 -32c-176 0 -247 75 -220 265
c26 184 95 254 272 254z" />
    <glyph glyph-name="ccedilla" unicode="&#xe7;" horiz-adv-x="507" 
d="M305 507c60 0 136 -9 189 -32l-21 -90c-58 1 -112 2 -148 2c-89 0 -124 -26 -138 -141c-15 -119 7 -138 92 -138c36 0 100 1 156 9l10 -97c-57 -24 -130 -32 -192 -32c-176 0 -247 75 -220 265c26 184 95 254 272 254zM152 -108l15 58c95 11 151 3 138 -70
c-16 -98 -106 -144 -214 -129l20 64c47 -1 90 18 98 58c3 16 -3 19 -57 19z" />
    <glyph glyph-name="cdotaccent" unicode="&#x10b;" horiz-adv-x="507" 
d="M304 705h44c26 0 44 -16 41 -43l-7 -53c-4 -26 -17 -39 -43 -39h-45c-29 0 -44 17 -40 44l7 52c3 26 18 39 43 39zM305 507c60 0 136 -9 189 -32l-21 -90c-58 1 -112 2 -148 2c-89 0 -124 -26 -138 -141c-15 -119 7 -138 92 -138c36 0 100 1 156 9l10 -97
c-57 -24 -130 -32 -192 -32c-176 0 -247 75 -220 265c26 184 95 254 272 254z" />
    <glyph glyph-name="d" unicode="d" horiz-adv-x="592" 
d="M590 700l-99 -700h-116v90c-48 -50 -121 -102 -205 -102c-105 0 -160 71 -134 268c30 216 112 251 222 251c53 0 110 -5 159 -13c0 31 2 62 7 97l18 109h148zM186 254c-15 -111 -11 -143 38 -141c51 1 91 27 146 75l29 215h-79c-95 0 -116 -16 -134 -149z" />
    <glyph glyph-name="eth" unicode="&#xf0;" horiz-adv-x="576" 
d="M564 660l-81 -69c47 -67 65 -168 47 -310c-26 -203 -105 -294 -287 -294c-160 0 -234 75 -213 235c20 151 91 229 231 229c39 0 86 -6 125 -37c-3 154 -72 193 -216 186l19 98c84 4 155 -7 210 -35l94 81zM252 98c79 0 107 51 126 196l3 28c-25 15 -52 22 -81 22
c-76 0 -103 -41 -116 -127c-13 -90 4 -119 68 -119z" />
    <glyph glyph-name="dcaron" unicode="&#x10f;" horiz-adv-x="592" 
d="M442 700h148l-98 -700h-117v89c-48 -49 -120 -101 -204 -101c-106 0 -161 71 -134 268c29 216 111 251 221 251c54 0 111 -5 160 -13c0 31 1 62 7 97zM684 700h30c35 0 48 -12 42 -44l-7 -51c-8 -48 -35 -105 -67 -145l-59 19c14 34 25 65 35 102c-29 -1 -40 13 -37 37
l7 42c6 31 20 40 56 40zM187 254c-15 -111 -12 -143 38 -141c50 1 90 27 145 74l29 216h-79c-95 0 -115 -16 -133 -149z" />
    <glyph glyph-name="dcroat" unicode="&#x111;" horiz-adv-x="594" 
d="M639 562h-68l-79 -562h-117v89c-48 -49 -120 -101 -204 -101c-106 0 -161 71 -134 268c29 216 111 251 221 251c54 0 111 -5 160 -13c0 22 1 44 3 68h-121l10 68h121l11 70h148l-10 -70h68zM187 254c-15 -111 -12 -143 38 -141c50 1 90 27 145 74l29 216h-79
c-95 0 -115 -16 -133 -149z" />
    <glyph glyph-name="e" unicode="e" horiz-adv-x="560" 
d="M320 507c182 0 226 -65 211 -170c-14 -96 -75 -128 -202 -137l-145 -12c2 -69 36 -82 98 -82c48 0 131 4 190 11l10 -94c-62 -26 -150 -35 -217 -35c-193 0 -252 91 -231 269c24 198 105 250 286 250zM388 351c4 46 -16 49 -78 48c-76 0 -101 -23 -118 -123l115 11
c50 4 75 15 81 64z" />
    <glyph glyph-name="eacute" unicode="&#xe9;" horiz-adv-x="560" 
d="M288 540l-37 64l218 150l57 -107zM320 507c182 0 226 -65 211 -170c-14 -96 -75 -128 -202 -137l-145 -12c2 -69 36 -82 98 -82c48 0 130 4 190 11l9 -94c-61 -26 -149 -35 -216 -35c-193 0 -252 91 -231 269c24 198 105 250 286 250zM388 351c4 46 -16 49 -78 48
c-76 0 -101 -23 -118 -123l115 11c50 4 75 15 81 64z" />
    <glyph glyph-name="ecaron" unicode="&#x11b;" horiz-adv-x="560" 
d="M291 557l-135 140l49 50l126 -92h8l156 90l35 -57l-160 -131h-79zM320 507c182 0 226 -65 211 -170c-14 -96 -75 -128 -202 -137l-145 -12c2 -69 36 -82 98 -82c48 0 130 4 190 11l9 -94c-61 -26 -149 -35 -216 -35c-193 0 -252 91 -231 269c24 198 105 250 286 250z
M388 351c4 46 -16 49 -78 48c-76 0 -101 -23 -118 -123l115 11c50 4 75 15 81 64z" />
    <glyph glyph-name="ecircumflex" unicode="&#xea;" horiz-adv-x="560" 
d="M183 540l-37 56l148 133h102l127 -139l-45 -52l-131 98h-8zM320 507c182 0 226 -65 211 -170c-14 -96 -75 -128 -202 -137l-145 -12c2 -69 36 -82 98 -82c48 0 130 4 190 11l9 -94c-61 -26 -149 -35 -216 -35c-193 0 -252 91 -231 269c24 198 105 250 286 250zM388 351
c4 46 -16 49 -78 48c-76 0 -101 -23 -118 -123l115 11c50 4 75 15 81 64z" />
    <glyph glyph-name="edieresis" unicode="&#xeb;" horiz-adv-x="560" 
d="M271 580h-53c-21 0 -30 10 -28 30l10 62c3 22 13 32 36 32h50c24 0 31 -10 28 -31l-10 -63c-2 -21 -12 -30 -33 -30zM446 580h-53c-21 0 -31 10 -28 30l10 63c3 22 13 31 35 31h51c23 0 31 -10 28 -31l-10 -63c-2 -21 -12 -30 -33 -30zM320 507c182 0 226 -65 211 -170
c-14 -96 -75 -128 -202 -137l-145 -12c2 -69 36 -82 98 -82c48 0 130 4 190 11l9 -94c-61 -26 -149 -35 -216 -35c-193 0 -252 91 -231 269c24 198 105 250 286 250zM388 351c4 46 -16 49 -78 48c-76 0 -101 -23 -118 -123l115 11c50 4 75 15 81 64z" />
    <glyph glyph-name="edotaccent" unicode="&#x117;" horiz-adv-x="560" 
d="M357 570h-45c-29 0 -44 17 -40 44l7 52c3 26 18 39 43 39h44c26 0 44 -16 41 -43l-7 -53c-4 -26 -17 -39 -43 -39zM320 507c182 0 226 -65 211 -170c-14 -96 -75 -128 -202 -137l-145 -12c2 -69 36 -82 98 -82c48 0 130 4 190 11l9 -94c-61 -26 -149 -35 -216 -35
c-193 0 -252 91 -231 269c24 198 105 250 286 250zM388 351c4 46 -16 49 -78 48c-76 0 -101 -23 -118 -123l115 11c50 4 75 15 81 64z" />
    <glyph glyph-name="egrave" unicode="&#xe8;" horiz-adv-x="560" 
d="M357 540l-221 114l66 97l204 -148zM320 507c182 0 226 -65 211 -170c-14 -96 -75 -128 -202 -137l-145 -12c2 -69 36 -82 98 -82c48 0 130 4 190 11l9 -94c-61 -26 -149 -35 -216 -35c-193 0 -252 91 -231 269c24 198 105 250 286 250zM388 351c4 46 -16 49 -78 48
c-76 0 -101 -23 -118 -123l115 11c50 4 75 15 81 64z" />
    <glyph glyph-name="emacron" unicode="&#x113;" horiz-adv-x="560" 
d="M482 594h-299l13 95h299zM320 507c182 0 226 -65 211 -170c-14 -96 -75 -128 -202 -137l-145 -12c2 -69 36 -82 98 -82c48 0 130 4 190 11l9 -94c-61 -26 -149 -35 -216 -35c-193 0 -252 91 -231 269c24 198 105 250 286 250zM388 351c4 46 -16 49 -78 48
c-76 0 -101 -23 -118 -123l115 11c50 4 75 15 81 64z" />
    <glyph glyph-name="eogonek" unicode="&#x119;" horiz-adv-x="560" 
d="M320 507c182 0 226 -65 211 -170c-14 -96 -75 -128 -202 -137l-145 -12c2 -69 36 -82 98 -82c48 0 130 4 190 11l9 -94h1c-28 -31 -53 -67 -72 -104c-19 -35 1 -44 49 -31l14 -57c-153 -57 -205 16 -168 88c12 22 32 48 67 76c-37 -5 -75 -7 -107 -7
c-193 0 -252 91 -231 269c24 198 105 250 286 250zM388 351c4 46 -16 49 -78 48c-76 0 -101 -23 -118 -123l115 11c50 4 75 15 81 64z" />
    <glyph glyph-name="f" unicode="f" horiz-adv-x="401" 
d="M455 612h-88c-51 0 -72 -13 -80 -66l-8 -53h136l-13 -99h-137l-63 -439c-13 -92 -65 -150 -173 -150c-35 0 -77 4 -137 11l23 98h64c52 0 73 12 81 66l59 414h-85l12 94l87 5l11 77c13 93 66 150 173 150c40 0 118 -3 162 -10z" />
    <glyph glyph-name="g" unicode="g" horiz-adv-x="593" 
d="M284 507c101 0 215 -15 276 -30l-61 -433c-22 -184 -131 -250 -306 -250c-28 0 -124 3 -184 27l11 87c34 -1 62 -1 141 -1c90 0 166 19 190 91c13 35 17 75 41 111c-48 -68 -124 -116 -218 -117c-117 -3 -165 71 -136 264c34 232 121 251 246 251zM225 108
c52 3 98 37 148 93l29 197h-80c-98 0 -116 -20 -134 -144c-20 -126 -9 -149 37 -146z" />
    <glyph glyph-name="gbreve" unicode="&#x11f;" horiz-adv-x="593" 
d="M341 560c-112 0 -172 71 -150 154l72 5c-7 -43 23 -62 81 -62c65 0 102 25 106 65l69 -13c-1 -84 -69 -149 -178 -149zM284 507c101 0 215 -15 276 -30l-61 -433c-22 -184 -131 -250 -307 -250c-27 0 -124 3 -183 27l11 87c34 -1 62 -1 141 -1c89 0 166 19 189 91
c14 36 18 76 43 113c-47 -69 -124 -118 -220 -119c-116 -3 -164 71 -136 264c34 232 122 251 247 251zM225 108c52 3 98 37 148 93l29 197h-80c-98 0 -116 -20 -135 -144c-19 -126 -9 -149 38 -146z" />
    <glyph glyph-name="gcommaaccent" unicode="&#x123;" horiz-adv-x="593" 
d="M351 551h-30c-35 0 -48 13 -42 44l7 52c8 49 35 105 67 146l59 -19c-14 -34 -25 -66 -35 -103c29 1 40 -13 37 -37l-7 -42c-6 -32 -20 -41 -56 -41zM284 507c101 0 215 -15 276 -30l-61 -433c-22 -184 -131 -250 -307 -250c-27 0 -124 3 -183 27l11 87
c34 -1 62 -1 141 -1c89 0 166 19 189 91c14 36 18 76 43 113c-47 -69 -124 -118 -220 -119c-116 -3 -164 71 -136 264c34 232 122 251 247 251zM225 108c52 3 98 37 148 93l29 197h-80c-98 0 -116 -20 -135 -144c-19 -126 -9 -149 38 -146z" />
    <glyph glyph-name="gdotaccent" unicode="&#x121;" horiz-adv-x="593" 
d="M364 572h-45c-29 0 -44 17 -40 44l7 52c3 26 18 39 43 39h44c26 0 44 -16 41 -43l-7 -53c-4 -26 -17 -39 -43 -39zM284 507c101 0 215 -15 276 -30l-61 -433c-22 -184 -131 -250 -307 -250c-27 0 -124 3 -183 27l11 87c34 -1 62 -1 141 -1c89 0 166 19 189 91
c14 36 18 76 43 113c-47 -69 -124 -118 -220 -119c-116 -3 -164 71 -136 264c34 232 122 251 247 251zM225 108c52 3 98 37 148 93l29 197h-80c-98 0 -116 -20 -135 -144c-19 -126 -9 -149 38 -146z" />
    <glyph glyph-name="h" unicode="h" horiz-adv-x="596" 
d="M425 507c89 0 138 -49 125 -140l-52 -367h-147l46 327c5 44 -1 55 -31 55c-48 0 -91 -27 -158 -79l-41 -303h-148l98 700h148l-24 -174c-6 -43 -16 -87 -26 -121c76 70 146 102 210 102z" />
    <glyph glyph-name="hbar" unicode="&#x127;" horiz-adv-x="595" 
d="M424 507c88 0 137 -49 124 -140l-52 -367h-147l46 327c6 44 -1 55 -31 55c-47 0 -91 -26 -157 -79l-42 -303h-148l79 562h-60l10 68h60l10 70h147l-9 -70h130l-10 -68h-129l-5 -36c-6 -43 -16 -87 -27 -121c77 70 146 102 211 102z" />
    <glyph glyph-name="i" unicode="i" horiz-adv-x="275" 
d="M162 711h62c31 0 45 -17 42 -46l-7 -54c-4 -28 -18 -40 -48 -40h-63c-30 0 -44 16 -40 46l7 53c3 28 17 41 47 41zM170 0h-147l69 493h147z" />
    <glyph glyph-name="dotlessi" unicode="&#x131;" horiz-adv-x="276" 
d="M171 0h-148l69 493h148z" />
    <glyph glyph-name="iacute" unicode="&#xed;" horiz-adv-x="276" 
d="M371 647l-238 -107l-37 64l218 150zM171 0h-148l69 493h149z" />
    <glyph glyph-name="icircumflex" unicode="&#xee;" horiz-adv-x="276" 
d="M368 590l-45 -52l-131 98h-8l-156 -96l-37 56l148 133h102zM171 0h-148l69 493h149z" />
    <glyph glyph-name="idieresis" unicode="&#xef;" horiz-adv-x="276" 
d="M81 704h50c24 0 31 -10 28 -31l-10 -63c-2 -21 -12 -30 -33 -30h-53c-21 0 -30 10 -28 30l10 62c3 22 13 32 36 32zM255 704h51c23 0 31 -10 28 -31l-10 -63c-2 -21 -12 -30 -33 -30h-53c-21 0 -31 10 -28 30l10 63c3 22 13 31 35 31zM171 0h-148l69 493h149z" />
    <glyph glyph-name="igrave" unicode="&#xec;" horiz-adv-x="276" 
d="M251 603l-49 -63l-221 114l66 97zM171 0h-148l69 493h149z" />
    <glyph glyph-name="ij" unicode="&#x133;" horiz-adv-x="550" 
d="M162 711h63c30 0 44 -17 41 -46l-7 -54c-4 -28 -18 -40 -47 -40h-64c-30 0 -44 16 -40 46l7 53c3 28 17 41 47 41zM437 711h62c31 0 45 -17 41 -46l-7 -54c-4 -28 -18 -40 -48 -40h-62c-30 0 -45 16 -41 46l8 53c3 28 17 41 47 41zM170 0h-147l68 493h147zM515 493
l-67 -473c-12 -91 -67 -176 -149 -218l-81 68c51 50 75 96 83 156l67 467h147z" />
    <glyph glyph-name="imacron" unicode="&#x12b;" horiz-adv-x="276" 
d="M327 594h-299l13 95h299zM171 0h-148l69 493h149z" />
    <glyph glyph-name="iogonek" unicode="&#x12f;" horiz-adv-x="276" 
d="M167 705h44c26 0 44 -16 41 -43l-7 -53c-4 -26 -17 -39 -43 -39h-45c-29 0 -44 17 -40 44l7 52c3 26 18 39 43 39zM92 493h149l-70 -493h-13c-28 -31 -53 -67 -72 -104c-19 -35 1 -44 49 -31l14 -57c-153 -57 -205 16 -168 88c15 30 46 66 105 104h-63z" />
    <glyph glyph-name="j" unicode="j" horiz-adv-x="276" 
d="M162 711h62c31 0 45 -17 41 -46l-7 -54c-4 -28 -18 -40 -48 -40h-62c-30 0 -45 16 -41 46l8 53c3 28 17 41 47 41zM240 493l-67 -473c-12 -91 -67 -176 -149 -218l-81 68c51 50 75 96 83 156l67 467h147z" />
    <glyph glyph-name="k" unicode="k" horiz-adv-x="563" 
d="M385 266c18 -18 32 -40 41 -62l91 -204h-154l-87 204c-28 -13 -57 -25 -85 -36l-24 -168h-148l98 700h148l-41 -301c-6 -42 -18 -81 -36 -122c94 49 187 127 208 216h151c-28 -105 -89 -175 -162 -227z" />
    <glyph glyph-name="kcommaaccent" unicode="&#x137;" horiz-adv-x="563" 
d="M385 266c18 -19 31 -40 40 -62l92 -204h-154l-87 204c-28 -13 -57 -25 -85 -36l-25 -168h-147l98 700h148l-41 -301c-7 -42 -18 -81 -37 -123c95 49 188 128 209 217h152c-28 -105 -90 -176 -163 -227zM250 -48h30c35 0 48 -13 42 -44l-7 -52c-8 -49 -35 -105 -67 -146
l-59 19c14 34 25 66 35 103c-29 -1 -40 13 -37 37l7 42c6 32 20 41 56 41z" />
    <glyph glyph-name="l" unicode="l" horiz-adv-x="325" 
d="M265 700l-77 -542c-6 -36 5 -47 46 -47h43l7 -105c-25 -13 -87 -18 -115 -18c-92 0 -143 52 -132 139l81 573h147z" />
    <glyph glyph-name="lacute" unicode="&#x13a;" horiz-adv-x="325" 
d="M402 844l-238 -107l-37 64l218 150zM265 700l-76 -542c-7 -36 4 -47 45 -47h43l7 -105c-25 -13 -87 -18 -114 -18c-93 0 -144 52 -132 139l81 573h146z" />
    <glyph glyph-name="lcaron" unicode="&#x13e;" horiz-adv-x="325" 
d="M265 700l-76 -542c-7 -36 4 -47 45 -47h43l7 -105c-25 -13 -87 -18 -114 -18c-93 0 -144 52 -132 139l81 573h146zM358 700h30c35 0 48 -13 42 -44l-7 -52c-8 -49 -35 -105 -67 -146l-59 19c14 34 25 66 35 103c-29 -1 -40 13 -37 37l7 42c6 32 20 41 56 41z" />
    <glyph glyph-name="lcommaaccent" unicode="&#x13c;" horiz-adv-x="325" 
d="M265 700l-76 -542c-7 -36 4 -47 45 -47h43l7 -105c-25 -13 -87 -18 -114 -18c-93 0 -144 52 -132 139l81 573h146zM134 -50h30c35 0 48 -13 42 -44l-7 -52c-8 -49 -35 -105 -67 -146l-59 19c14 34 25 66 35 103c-29 -1 -40 13 -37 37l7 42c6 32 20 41 56 41z" />
    <glyph glyph-name="ldot" unicode="&#x140;" horiz-adv-x="411" 
d="M265 700l-76 -542c-7 -36 4 -47 45 -47h43l7 -105c-25 -13 -87 -18 -114 -18c-93 0 -144 52 -132 139l81 573h146zM371 305h-44c-26 0 -44 15 -41 43l7 53c4 26 17 38 43 38h45c29 0 44 -16 40 -44l-7 -52c-3 -25 -18 -38 -43 -38z" />
    <glyph glyph-name="lslash" unicode="&#x142;" horiz-adv-x="332" 
d="M223 370l-30 -212c-6 -36 5 -47 46 -47h43l7 -105c-25 -13 -87 -18 -115 -18c-92 0 -143 52 -132 139l26 184l-63 -24l11 81l63 24l44 308h147l-35 -249l116 44l-11 -81z" />
    <glyph glyph-name="m" unicode="m" horiz-adv-x="876" 
d="M708 507c92 0 134 -54 122 -140l-51 -367h-147l46 327c6 44 -9 55 -36 55c-33 0 -64 -16 -129 -74l-43 -308h-142l45 327c6 40 -2 55 -35 55c-35 0 -67 -17 -129 -71l-43 -311h-147l69 493h114l1 -90c71 73 129 104 198 104c72 0 114 -34 121 -92c66 65 121 92 186 92z
" />
    <glyph glyph-name="n" unicode="n" horiz-adv-x="596" 
d="M429 507c81 0 135 -48 121 -140l-52 -367h-147l45 323c6 47 -1 60 -33 59c-45 -1 -90 -27 -154 -78l-42 -304h-148l69 493h116v-98c74 73 151 112 225 112z" />
    <glyph glyph-name="nacute" unicode="&#x144;" horiz-adv-x="596" 
d="M300 540l-37 64l218 150l57 -107zM429 507c81 0 135 -48 122 -140l-52 -367h-148l46 323c5 47 -1 60 -34 59c-45 -1 -90 -27 -154 -78l-42 -304h-148l69 493h116v-98c75 73 152 112 225 112z" />
    <glyph glyph-name="ncaron" unicode="&#x148;" horiz-adv-x="596" 
d="M303 557l-135 140l49 50l126 -92h8l156 90l35 -57l-160 -131h-79zM429 507c81 0 135 -48 122 -140l-52 -367h-148l46 323c5 47 -1 60 -34 59c-45 -1 -90 -27 -154 -78l-42 -304h-148l69 493h116v-98c75 73 152 112 225 112z" />
    <glyph glyph-name="ncommaaccent" unicode="&#x146;" horiz-adv-x="596" 
d="M429 507c81 0 135 -48 122 -140l-52 -367h-148l46 323c5 47 -1 60 -34 59c-45 -1 -90 -27 -154 -78l-42 -304h-148l69 493h116v-98c75 73 152 112 225 112zM242 -48h30c35 0 48 -13 42 -44l-7 -52c-8 -49 -35 -105 -67 -146l-59 19c14 34 25 66 35 103
c-29 -1 -40 13 -37 37l7 42c6 32 20 41 56 41z" />
    <glyph glyph-name="eng" unicode="&#x14b;" horiz-adv-x="596" 
d="M423 507c94 0 139 -50 127 -140l-57 -404c-15 -108 -67 -163 -155 -163c-36 0 -92 8 -120 21l25 94h35c36 0 62 13 68 54l51 358c5 38 -2 51 -37 50c-40 -1 -91 -29 -151 -74l-42 -303h-148l69 493h114l2 -97c79 75 154 111 219 111z" />
    <glyph glyph-name="ntilde" unicode="&#xf1;" horiz-adv-x="596" 
d="M284 620c-37 5 -48 -13 -53 -49l-63 6c1 98 42 141 94 139c59 -3 106 -41 151 -48c38 -7 49 12 54 46l62 -6c2 -95 -38 -140 -92 -138c-63 4 -112 43 -153 50zM429 507c81 0 135 -48 122 -140l-52 -367h-148l46 323c5 47 -1 60 -34 59c-45 -1 -90 -27 -154 -78l-42 -304
h-148l69 493h116v-98c75 73 152 112 225 112z" />
    <glyph glyph-name="o" unicode="o" horiz-adv-x="586" 
d="M315 507c180 0 252 -74 225 -267c-26 -186 -101 -253 -280 -253c-178 0 -254 73 -227 265c26 186 100 255 282 255zM314 396c-80 0 -109 -28 -127 -156c-16 -114 -2 -142 76 -142c79 0 107 32 125 154c17 115 1 144 -74 144z" />
    <glyph glyph-name="oacute" unicode="&#xf3;" horiz-adv-x="586" 
d="M528 647l-238 -107l-37 64l218 150zM315 507c180 0 252 -74 225 -267c-27 -186 -102 -253 -281 -253c-178 0 -253 73 -226 265c26 186 100 255 282 255zM314 396c-80 0 -109 -28 -127 -156c-16 -114 -1 -142 76 -142c80 0 107 32 125 154c17 115 1 144 -74 144z" />
    <glyph glyph-name="ocircumflex" unicode="&#xf4;" horiz-adv-x="586" 
d="M525 590l-45 -52l-131 98h-8l-156 -96l-37 56l148 133h102zM315 507c180 0 252 -74 225 -267c-27 -186 -102 -253 -281 -253c-178 0 -253 73 -226 265c26 186 100 255 282 255zM314 396c-80 0 -109 -28 -127 -156c-16 -114 -1 -142 76 -142c80 0 107 32 125 154
c17 115 1 144 -74 144z" />
    <glyph glyph-name="odieresis" unicode="&#xf6;" horiz-adv-x="586" 
d="M238 704h50c24 0 31 -10 28 -31l-10 -63c-2 -21 -12 -30 -33 -30h-53c-21 0 -30 10 -28 30l10 62c3 22 13 32 36 32zM412 704h51c23 0 31 -10 28 -31l-10 -63c-2 -21 -12 -30 -33 -30h-53c-21 0 -31 10 -28 30l10 63c3 22 13 31 35 31zM315 507c180 0 252 -74 225 -267
c-27 -186 -102 -253 -281 -253c-178 0 -253 73 -226 265c26 186 100 255 282 255zM314 396c-80 0 -109 -28 -127 -156c-16 -114 -1 -142 76 -142c80 0 107 32 125 154c17 115 1 144 -74 144z" />
    <glyph glyph-name="ograve" unicode="&#xf2;" horiz-adv-x="586" 
d="M408 603l-49 -63l-221 114l66 97zM315 507c180 0 252 -74 225 -267c-27 -186 -102 -253 -281 -253c-178 0 -253 73 -226 265c26 186 100 255 282 255zM314 396c-80 0 -109 -28 -127 -156c-16 -114 -1 -142 76 -142c80 0 107 32 125 154c17 115 1 144 -74 144z" />
    <glyph glyph-name="ohungarumlaut" unicode="&#x151;" horiz-adv-x="586" 
d="M396 699l-170 -162l-60 42l143 181zM585 699l-170 -162l-59 41l142 182zM315 507c180 0 252 -74 225 -267c-27 -186 -102 -253 -281 -253c-178 0 -253 73 -226 265c26 186 100 255 282 255zM314 396c-80 0 -109 -28 -127 -156c-16 -114 -1 -142 76 -142
c80 0 107 32 125 154c17 115 1 144 -74 144z" />
    <glyph glyph-name="omacron" unicode="&#x14d;" horiz-adv-x="586" 
d="M484 594h-299l13 95h299zM315 507c180 0 252 -74 225 -267c-27 -186 -102 -253 -281 -253c-178 0 -253 73 -226 265c26 186 100 255 282 255zM314 396c-80 0 -109 -28 -127 -156c-16 -114 -1 -142 76 -142c80 0 107 32 125 154c17 115 1 144 -74 144z" />
    <glyph glyph-name="oslash" unicode="&#xf8;" horiz-adv-x="586" 
d="M539 543l-51 -81c51 -41 67 -112 52 -222c-27 -186 -102 -253 -281 -253c-21 0 -41 1 -59 3l-57 -92l-95 51l47 76c-58 39 -78 112 -62 227c26 186 100 255 282 255c26 0 50 -2 71 -5l58 93zM388 252c17 115 1 144 -74 144c-80 0 -109 -28 -127 -156
c-16 -114 -1 -142 76 -142c80 0 107 32 125 154z" />
    <glyph glyph-name="otilde" unicode="&#xf5;" horiz-adv-x="586" 
d="M253 716c59 -3 106 -41 151 -48c38 -7 49 12 54 46l62 -6c2 -95 -38 -140 -92 -138c-63 4 -112 43 -153 50c-37 5 -48 -13 -53 -49l-63 6c1 98 42 141 94 139zM315 507c180 0 252 -74 225 -267c-27 -186 -102 -253 -281 -253c-178 0 -253 73 -226 265
c26 186 100 255 282 255zM314 396c-80 0 -109 -28 -127 -156c-16 -114 -1 -142 76 -142c80 0 107 32 125 154c17 115 1 144 -74 144z" />
    <glyph glyph-name="oe" unicode="&#x153;" horiz-adv-x="904" 
d="M666 507c181 0 225 -65 210 -170c-14 -96 -75 -128 -200 -137l-145 -12c3 -69 36 -82 98 -82c45 0 128 4 185 11l9 -94c-60 -26 -147 -35 -212 -35c-75 0 -132 18 -171 53c-46 -38 -108 -54 -183 -54c-176 0 -251 73 -224 265c26 186 100 255 279 255
c69 0 126 -15 166 -48c47 36 111 48 188 48zM733 351c4 46 -16 49 -77 48c-75 0 -99 -23 -116 -123l113 11c50 4 75 15 80 64zM260 98c77 0 104 32 121 154c17 115 3 144 -71 144c-77 0 -105 -28 -123 -156c-16 -114 -2 -142 73 -142z" />
    <glyph glyph-name="p" unicode="p" horiz-adv-x="593" 
d="M410 505c112 0 160 -68 133 -268c-29 -218 -114 -250 -233 -250c-40 0 -96 4 -147 13c0 -30 -2 -59 -7 -93l-16 -97h-148l96 683h117l-2 -95c52 52 131 107 207 107zM393 239c18 125 7 147 -37 147c-35 0 -93 -31 -147 -81l-28 -215h76c101 0 118 18 136 149z" />
    <glyph glyph-name="thorn" unicode="&#xfe;" horiz-adv-x="592" 
d="M405 505c114 0 164 -68 138 -268c-27 -209 -112 -250 -225 -250c-49 0 -104 4 -153 12c-2 -24 -4 -48 -9 -72l-16 -117h-147l124 890h148l-19 -138c-6 -43 -13 -86 -24 -126l2 -7c46 44 108 76 181 76zM392 239c16 119 10 147 -38 147c-57 0 -98 -37 -147 -94l-27 -200
l77 -1c97 0 117 17 135 148z" />
    <glyph glyph-name="q" unicode="q" horiz-adv-x="589" 
d="M288 507c81 0 204 -15 268 -39l-94 -658h-147l22 152c6 41 13 79 27 116c-51 -49 -119 -90 -191 -90c-109 0 -166 66 -138 264c29 196 95 255 253 255zM185 250c-15 -110 -9 -137 40 -137c50 0 89 28 144 74l29 208c-33 2 -64 3 -79 3c-92 -2 -115 -19 -134 -148z" />
    <glyph glyph-name="r" unicode="r" horiz-adv-x="423" 
d="M443 507l-33 -137h-36c-45 0 -90 -22 -165 -62l-42 -308h-148l69 493h115v-93c74 70 146 107 210 107h30z" />
    <glyph glyph-name="racute" unicode="&#x155;" horiz-adv-x="423" 
d="M237 540l-37 64l218 150l57 -107zM203 493v-93c74 70 146 107 210 107h30l-33 -137h-36c-45 0 -90 -22 -165 -61l-42 -309h-148l69 493h115z" />
    <glyph glyph-name="rcaron" unicode="&#x159;" horiz-adv-x="423" 
d="M240 557l-135 140l49 50l126 -92h8l156 90l35 -57l-160 -131h-79zM203 493v-93c74 70 146 107 210 107h30l-33 -137h-36c-45 0 -90 -22 -165 -61l-42 -309h-148l69 493h115z" />
    <glyph glyph-name="rcommaaccent" unicode="&#x157;" horiz-adv-x="423" 
d="M443 507l-33 -137h-36c-45 0 -90 -22 -165 -61l-42 -309h-148l69 493h115v-93c74 70 146 107 210 107h30zM68 -48h30c35 0 48 -13 42 -44l-7 -52c-8 -49 -35 -105 -67 -146l-59 19c14 34 25 66 35 103c-29 -1 -40 13 -37 37l7 42c6 32 20 41 56 41z" />
    <glyph glyph-name="s" unicode="s" horiz-adv-x="524" 
d="M269 507c74 -1 172 -9 228 -20l-14 -94c-64 1 -126 3 -195 3c-73 0 -95 -2 -99 -26c-3 -24 15 -32 54 -47l121 -48c79 -31 114 -71 104 -149c-15 -120 -99 -137 -242 -137c-94 0 -132 6 -217 18l14 95c36 -2 107 -2 157 -2c116 0 141 6 146 32c3 24 -15 28 -58 45
l-119 49c-81 32 -110 81 -101 154c11 91 74 128 221 127z" />
    <glyph glyph-name="sacute" unicode="&#x15b;" horiz-adv-x="524" 
d="M501 647l-238 -107l-37 64l218 150zM269 507c74 -1 171 -9 228 -20l-15 -94c-63 1 -125 3 -194 3c-73 0 -96 -2 -99 -26s15 -32 54 -47l121 -48c79 -31 114 -71 104 -149c-16 -120 -99 -137 -242 -137c-94 0 -132 6 -217 18l14 95c35 -2 107 -2 157 -2
c116 0 141 6 145 32c4 24 -14 28 -57 45l-119 49c-81 32 -111 81 -101 154c11 91 73 128 221 127z" />
    <glyph glyph-name="scaron" unicode="&#x161;" horiz-adv-x="524" 
d="M505 688l-160 -131h-79l-135 140l49 50l126 -92h8l156 90zM269 507c74 -1 171 -9 228 -20l-15 -94c-63 1 -125 3 -194 3c-73 0 -96 -2 -99 -26s15 -32 54 -47l121 -48c79 -31 114 -71 104 -149c-16 -120 -99 -137 -242 -137c-94 0 -132 6 -217 18l14 95
c35 -2 107 -2 157 -2c116 0 141 6 145 32c4 24 -14 28 -57 45l-119 49c-81 32 -111 81 -101 154c11 91 73 128 221 127z" />
    <glyph glyph-name="scedilla" unicode="&#x15f;" horiz-adv-x="524" 
d="M269 507c74 -1 171 -9 228 -20l-15 -94c-63 1 -125 3 -194 3c-73 0 -96 -2 -99 -26s15 -32 54 -47l121 -48c79 -31 114 -71 104 -149c-16 -120 -99 -137 -242 -137c-94 0 -132 6 -217 18l14 95c35 -2 107 -2 157 -2c116 0 141 6 145 32c4 24 -14 28 -57 45l-119 49
c-81 32 -111 81 -101 154c11 91 73 128 221 127zM133 -109l15 58c95 11 151 3 138 -70c-16 -98 -106 -144 -214 -129l20 64c47 -1 90 18 98 58c3 16 -3 19 -57 19z" />
    <glyph glyph-name="scommaaccent" unicode="&#x219;" horiz-adv-x="524" 
d="M269 507c74 -1 171 -9 228 -20l-15 -94c-63 1 -125 3 -194 3c-73 0 -96 -2 -99 -26s15 -32 54 -47l121 -48c79 -31 114 -71 104 -149c-16 -120 -99 -137 -242 -137c-94 0 -132 6 -217 18l14 95c35 -2 107 -2 157 -2c116 0 141 6 145 32c4 24 -14 28 -57 45l-119 49
c-81 32 -111 81 -101 154c11 91 73 128 221 127zM204 -50h30c35 0 48 -13 42 -44l-7 -52c-8 -49 -35 -105 -67 -146l-59 19c14 34 25 66 35 103c-29 -1 -40 13 -37 37l7 42c6 32 20 41 56 41z" />
    <glyph glyph-name="germandbls" unicode="&#xdf;" horiz-adv-x="701" 
d="M521 312l71 -53c53 -43 75 -78 66 -141c-15 -99 -73 -129 -206 -129c-46 0 -99 3 -166 11l15 100c42 -1 83 -2 118 -2c59 0 88 6 91 41c3 25 -10 37 -51 71l-66 45c-42 32 -67 69 -60 119c7 49 44 77 102 122c49 38 61 56 65 82c4 30 -7 45 -87 45
c-90 0 -118 -18 -128 -88l-81 -580c-15 -94 -65 -150 -178 -150c-26 0 -73 4 -132 11l23 98h64c51 0 71 12 80 66l58 414h-86l12 94l88 5l9 64c20 143 99 175 263 175c197 0 251 -45 233 -156c-6 -37 -20 -76 -81 -124c-39 -30 -77 -51 -83 -80c-4 -23 16 -36 47 -60z" />
    <glyph glyph-name="t" unicode="t" horiz-adv-x="410" 
d="M266 394l-33 -236c-5 -37 2 -47 43 -47h66l7 -104c-39 -14 -107 -19 -138 -19c-93 0 -141 55 -128 145l38 261h-89l12 94l91 5l20 138h145l-20 -138h137l-14 -99h-137z" />
    <glyph glyph-name="tbar" unicode="&#x167;" horiz-adv-x="410" 
d="M267 394l-10 -69h105l-10 -73h-105l-14 -94c-5 -37 3 -47 43 -47h66l7 -104c-39 -14 -106 -19 -137 -19c-94 0 -142 55 -129 145l17 119h-61l10 73h62l10 69h-89l12 94l91 5l20 138h146l-20 -138h135l-13 -99h-136z" />
    <glyph glyph-name="tcaron" unicode="&#x165;" horiz-adv-x="410" 
d="M392 793h30c35 0 48 -13 42 -44l-7 -52c-8 -49 -35 -105 -67 -146l-59 19c14 34 25 66 35 103c-29 -1 -40 13 -37 37l7 42c6 32 20 41 56 41zM281 493h135l-13 -99h-136l-34 -236c-5 -37 3 -47 43 -47h66l7 -104c-39 -14 -106 -19 -137 -19c-94 0 -142 55 -129 145
l38 261h-89l12 94l91 5l20 138h146z" />
    <glyph glyph-name="tcedilla" unicode="&#x163;" horiz-adv-x="410" 
d="M267 394l-34 -236c-5 -37 3 -47 43 -47h66l7 -104c-39 -14 -106 -19 -137 -19c-94 0 -142 55 -129 145l38 261h-89l12 94l91 5l20 138h146l-20 -138h135l-13 -99h-136zM109 -110l15 58c95 11 151 3 138 -70c-16 -98 -106 -144 -214 -129l20 64c47 -1 90 18 98 58
c3 16 -3 19 -57 19z" />
    <glyph glyph-name="uni021B" unicode="&#x21b;" horiz-adv-x="410" 
d="M267 394l-34 -236c-5 -37 3 -47 43 -47h66l7 -104c-39 -14 -106 -19 -137 -19c-94 0 -142 55 -129 145l38 261h-89l12 94l91 5l20 138h146l-20 -138h135l-13 -99h-136zM177 -50h30c35 0 48 -13 42 -44l-7 -52c-8 -49 -35 -105 -67 -146l-59 19c14 34 25 66 35 103
c-29 -1 -40 13 -37 37l7 42c6 32 20 41 56 41z" />
    <glyph glyph-name="u" unicode="u" horiz-adv-x="587" 
d="M555 493l-68 -493h-115l1 93c-75 -72 -141 -106 -213 -106c-96 0 -139 53 -126 139l51 367h148l-47 -327c-6 -41 5 -55 37 -55c44 0 81 24 143 76l43 306h146z" />
    <glyph glyph-name="uacute" unicode="&#xfa;" horiz-adv-x="587" 
d="M293 547l-37 64l218 150l57 -107zM555 493l-68 -493h-115l1 94c-75 -73 -141 -107 -213 -107c-96 0 -139 53 -127 139l51 367h149l-47 -327c-6 -41 5 -55 36 -55c46 0 82 24 145 77l42 305h146z" />
    <glyph glyph-name="ucircumflex" unicode="&#xfb;" horiz-adv-x="587" 
d="M188 547l-37 56l148 133h102l127 -139l-45 -52l-131 98h-8zM555 493l-68 -493h-115l1 94c-75 -73 -141 -107 -213 -107c-96 0 -139 53 -127 139l51 367h149l-47 -327c-6 -41 5 -55 36 -55c46 0 82 24 145 77l42 305h146z" />
    <glyph glyph-name="udieresis" unicode="&#xfc;" horiz-adv-x="587" 
d="M276 587h-53c-21 0 -30 10 -28 30l10 62c3 22 13 32 36 32h50c24 0 31 -10 28 -31l-10 -63c-2 -21 -12 -30 -33 -30zM451 587h-53c-21 0 -31 10 -28 30l10 63c3 22 13 31 35 31h51c23 0 31 -10 28 -31l-10 -63c-2 -21 -12 -30 -33 -30zM555 493l-68 -493h-115l1 94
c-75 -73 -141 -107 -213 -107c-96 0 -139 53 -127 139l51 367h149l-47 -327c-6 -41 5 -55 36 -55c46 0 82 24 145 77l42 305h146z" />
    <glyph glyph-name="ugrave" unicode="&#xf9;" horiz-adv-x="587" 
d="M362 547l-221 114l66 97l204 -148zM555 493l-68 -493h-115l1 94c-75 -73 -141 -107 -213 -107c-96 0 -139 53 -127 139l51 367h149l-47 -327c-6 -41 5 -55 36 -55c46 0 82 24 145 77l42 305h146z" />
    <glyph glyph-name="uhungarumlaut" unicode="&#x171;" horiz-adv-x="587" 
d="M229 545l-60 42l143 181l87 -61zM359 586l142 182l87 -61l-170 -162zM409 493h146l-68 -493h-115l1 94c-75 -73 -141 -107 -213 -107c-96 0 -139 53 -127 139l51 367h149l-47 -327c-6 -41 5 -55 36 -55c46 0 82 24 145 77z" />
    <glyph glyph-name="umacron" unicode="&#x16b;" horiz-adv-x="587" 
d="M487 601h-299l13 95h299zM555 493l-68 -493h-115l1 94c-75 -73 -141 -107 -213 -107c-96 0 -139 53 -127 139l51 367h149l-47 -327c-6 -41 5 -55 36 -55c46 0 82 24 145 77l42 305h146z" />
    <glyph glyph-name="uogonek" unicode="&#x173;" horiz-adv-x="587" 
d="M555 493l-68 -493c-28 -31 -53 -67 -72 -104c-19 -35 1 -44 49 -31l14 -57c-153 -57 -205 16 -168 88c15 30 46 66 105 104h-43l1 94c-75 -73 -141 -107 -213 -107c-96 0 -139 53 -127 139l51 367h149l-47 -327c-6 -41 5 -55 36 -55c46 0 82 24 145 77l42 305h146z" />
    <glyph glyph-name="uring" unicode="&#x16f;" horiz-adv-x="587" 
d="M341 539c-71 0 -120 52 -112 119c7 59 51 108 122 108c69 0 121 -50 113 -119c-8 -59 -52 -108 -123 -108zM297 654c-4 -34 18 -53 46 -53c31 0 51 22 53 54c3 29 -16 50 -46 50s-50 -22 -53 -51zM555 493l-68 -493h-115l1 94c-75 -73 -141 -107 -213 -107
c-96 0 -139 53 -127 139l51 367h149l-47 -327c-6 -41 5 -55 36 -55c46 0 82 24 145 77l42 305h146z" />
    <glyph glyph-name="v" unicode="v" horiz-adv-x="567" 
d="M404 493h158c-14 -82 -44 -185 -69 -252c-26 -71 -58 -133 -77 -163c-37 -59 -71 -78 -145 -78h-113c-23 0 -41 16 -44 38l-77 455h158l40 -393h12c26 0 38 8 58 44c15 28 33 71 53 136c25 76 35 139 46 213z" />
    <glyph glyph-name="w" unicode="w" horiz-adv-x="888" 
d="M226 102h11c19 0 34 14 48 50c12 28 23 68 33 115c12 52 18 93 31 190c3 19 17 36 42 36h139c21 0 37 -15 38 -35l27 -356h10c20 0 30 22 40 51c18 38 29 69 46 128c17 63 30 130 39 212h150c-14 -78 -36 -171 -63 -249c-21 -63 -46 -122 -68 -159
c-32 -60 -65 -85 -146 -85h-73c-24 0 -42 17 -43 39l-23 364h-12c-4 -45 -14 -107 -26 -165c-12 -50 -27 -99 -43 -134c-35 -92 -90 -104 -158 -104h-80c-24 0 -41 17 -44 39l-61 455h152z" />
    <glyph glyph-name="wacute" unicode="&#x1e83;" horiz-adv-x="888" 
d="M671 647l-238 -107l-37 64l218 150zM226 102h11c19 0 33 14 47 50c13 28 23 68 34 115c11 52 17 93 31 190c2 19 17 36 42 36h139c21 0 36 -15 38 -35l26 -356h10c20 0 30 22 41 51c17 38 28 69 46 128c17 63 29 130 39 212h150c-15 -78 -37 -171 -64 -249
c-20 -63 -46 -122 -68 -159c-32 -60 -65 -85 -146 -85h-73c-24 0 -42 17 -43 39l-22 364h-13c-4 -45 -13 -107 -25 -165c-12 -50 -27 -99 -43 -134c-35 -92 -90 -104 -159 -104h-80c-24 0 -40 17 -43 39l-61 455h151z" />
    <glyph glyph-name="wcircumflex" unicode="&#x175;" horiz-adv-x="888" 
d="M668 590l-45 -52l-131 98h-8l-156 -96l-37 56l148 133h102zM226 102h11c19 0 33 14 47 50c13 28 23 68 34 115c11 52 17 93 31 190c2 19 17 36 42 36h139c21 0 36 -15 38 -35l26 -356h10c20 0 30 22 41 51c17 38 28 69 46 128c17 63 29 130 39 212h150
c-15 -78 -37 -171 -64 -249c-20 -63 -46 -122 -68 -159c-32 -60 -65 -85 -146 -85h-73c-24 0 -42 17 -43 39l-22 364h-13c-4 -45 -13 -107 -25 -165c-12 -50 -27 -99 -43 -134c-35 -92 -90 -104 -159 -104h-80c-24 0 -40 17 -43 39l-61 455h151z" />
    <glyph glyph-name="wdieresis" unicode="&#x1e85;" horiz-adv-x="888" 
d="M381 704h50c24 0 31 -10 28 -31l-10 -63c-2 -21 -12 -30 -33 -30h-53c-21 0 -30 10 -28 30l10 62c3 22 13 32 36 32zM555 704h51c23 0 31 -10 28 -31l-10 -63c-2 -21 -12 -30 -33 -30h-53c-21 0 -31 10 -28 30l10 63c3 22 13 31 35 31zM226 102h11c19 0 33 14 47 50
c13 28 23 68 34 115c11 52 17 93 31 190c2 19 17 36 42 36h139c21 0 36 -15 38 -35l26 -356h10c20 0 30 22 41 51c17 38 28 69 46 128c17 63 29 130 39 212h150c-15 -78 -37 -171 -64 -249c-20 -63 -46 -122 -68 -159c-32 -60 -65 -85 -146 -85h-73c-24 0 -42 17 -43 39
l-22 364h-13c-4 -45 -13 -107 -25 -165c-12 -50 -27 -99 -43 -134c-35 -92 -90 -104 -159 -104h-80c-24 0 -40 17 -43 39l-61 455h151z" />
    <glyph glyph-name="wgrave" unicode="&#x1e81;" horiz-adv-x="888" 
d="M551 603l-49 -63l-221 114l66 97zM226 102h11c19 0 33 14 47 50c13 28 23 68 34 115c11 52 17 93 31 190c2 19 17 36 42 36h139c21 0 36 -15 38 -35l26 -356h10c20 0 30 22 41 51c17 38 28 69 46 128c17 63 29 130 39 212h150c-15 -78 -37 -171 -64 -249
c-20 -63 -46 -122 -68 -159c-32 -60 -65 -85 -146 -85h-73c-24 0 -42 17 -43 39l-22 364h-13c-4 -45 -13 -107 -25 -165c-12 -50 -27 -99 -43 -134c-35 -92 -90 -104 -159 -104h-80c-24 0 -40 17 -43 39l-61 455h151z" />
    <glyph glyph-name="x" unicode="x" horiz-adv-x="562" 
d="M396 253l115 -253h-143l-88 207h-8l-147 -207h-157l188 254l-105 239h141l78 -190h12l136 190h153z" />
    <glyph glyph-name="y" unicode="y" 
d="M417 493h156c-29 -159 -92 -329 -150 -436c-104 -189 -214 -251 -364 -262l-18 91c74 20 137 39 196 114h-59c-32 0 -56 21 -62 50l-81 443h159l47 -377c1 -9 8 -16 17 -16h40l4 9c54 112 88 219 115 384z" />
    <glyph glyph-name="yacute" unicode="&#xfd;" 
d="M272 540l-37 64l218 150l57 -107zM416 493h157c-29 -159 -92 -329 -150 -436c-105 -189 -215 -251 -365 -262l-17 91c74 20 136 39 195 114h-59c-31 0 -56 21 -61 50l-81 443h159l46 -377c1 -9 8 -16 18 -16h40l4 9c53 112 88 219 114 384z" />
    <glyph glyph-name="ycircumflex" unicode="&#x177;" 
d="M166 540l-37 56l148 133h102l127 -139l-45 -52l-131 98h-8zM416 493h157c-29 -159 -92 -329 -150 -436c-105 -189 -215 -251 -365 -262l-17 91c74 20 136 39 195 114h-59c-31 0 -56 21 -61 50l-81 443h159l46 -377c1 -9 8 -16 18 -16h40l4 9c53 112 88 219 114 384z" />
    <glyph glyph-name="ydieresis" unicode="&#xff;" 
d="M255 580h-53c-21 0 -30 10 -28 30l10 62c3 22 13 32 36 32h50c24 0 31 -10 28 -31l-10 -63c-2 -21 -12 -30 -33 -30zM430 580h-53c-21 0 -31 10 -28 30l10 63c3 22 13 31 35 31h51c23 0 31 -10 28 -31l-10 -63c-2 -21 -12 -30 -33 -30zM416 493h157
c-29 -159 -92 -329 -150 -436c-105 -189 -215 -251 -365 -262l-17 91c74 20 136 39 195 114h-59c-31 0 -56 21 -61 50l-81 443h159l46 -377c1 -9 8 -16 18 -16h40l4 9c53 112 88 219 114 384z" />
    <glyph glyph-name="ygrave" unicode="&#x1ef3;" 
d="M340 540l-221 114l66 97l204 -148zM416 493h157c-29 -159 -92 -329 -150 -436c-105 -189 -215 -251 -365 -262l-17 91c74 20 136 39 195 114h-59c-31 0 -56 21 -61 50l-81 443h159l46 -377c1 -9 8 -16 18 -16h40l4 9c53 112 88 219 114 384z" />
    <glyph glyph-name="z" unicode="z" horiz-adv-x="522" 
d="M492 388l-307 -282h271l-14 -106h-443l14 106h-1l307 282h-261l14 105h433l-14 -105h1z" />
    <glyph glyph-name="zacute" unicode="&#x17a;" horiz-adv-x="522" 
d="M256 540l-37 64l218 150l57 -107zM492 388l-307 -282h272l-14 -106h-443l14 106h-2l307 282h-261l14 105h433l-14 -105h1z" />
    <glyph glyph-name="zcaron" unicode="&#x17e;" horiz-adv-x="522" 
d="M259 557l-135 140l49 50l126 -92h8l156 90l35 -57l-160 -131h-79zM492 388l-307 -282h272l-14 -106h-443l14 106h-2l307 282h-261l14 105h433l-14 -105h1z" />
    <glyph glyph-name="zdotaccent" unicode="&#x17c;" horiz-adv-x="522" 
d="M325 570h-45c-29 0 -44 17 -40 44l7 52c3 26 18 39 43 39h44c26 0 44 -16 41 -43l-7 -53c-4 -26 -17 -39 -43 -39zM492 388l-307 -282h272l-14 -106h-443l14 106h-2l307 282h-261l14 105h433l-14 -105h1z" />
    <glyph glyph-name="uni00630074" horiz-adv-x="859" 
d="M716 394l-34 -236c-5 -37 3 -47 43 -47h66l7 -104c-39 -14 -106 -19 -137 -19c-94 0 -142 55 -129 145l38 261h-245c-89 0 -124 -28 -138 -148c-15 -119 7 -138 92 -138c35 0 95 1 148 9l11 -97c-56 -24 -125 -32 -185 -32c-176 0 -247 75 -220 265
c26 172 95 240 271 240h280l20 138h146l-20 -138h136l-14 -99h-136z" />
    <glyph glyph-name="f_f" horiz-adv-x="761" 
d="M815 612h-88c-51 0 -72 -13 -80 -66l-8 -53h136l-13 -99h-137l-62 -427c-13 -92 -66 -150 -173 -150c-35 0 -77 3 -138 11l24 98h64c52 0 73 12 81 66l58 402h-213l-64 -439c-13 -92 -65 -150 -173 -150c-35 0 -77 4 -137 11l23 98h64c52 0 73 12 81 66l59 414h-86l12 94
l88 5l10 67c14 93 66 150 174 150c38 0 112 -3 153 -10l-23 -98h-81c-51 0 -71 -13 -79 -66l-6 -43h212l11 77c13 93 66 150 173 150c40 0 118 -3 162 -10z" />
    <glyph glyph-name="f_f_i" horiz-adv-x="1019" 
d="M985 493l-69 -493h-148l55 394h-198l-62 -427c-13 -92 -66 -150 -173 -150c-35 0 -77 3 -138 11l24 98h64c52 0 73 12 81 66l58 402h-213l-64 -439c-13 -92 -65 -150 -173 -150c-35 0 -77 4 -137 11l23 98h64c52 0 73 12 81 66l59 414h-86l12 94l88 5l10 67
c14 93 66 150 174 150c38 0 112 -3 153 -10l-23 -98h-81c-51 0 -71 -13 -79 -66l-6 -43h212l11 77c13 93 66 150 173 150c38 0 110 -3 150 -10l-24 -98h-76c-51 0 -72 -13 -80 -66l-8 -53h346zM905 715h65c29 0 45 -18 40 -46l-7 -54c-4 -29 -15 -40 -44 -40h-66
c-29 0 -44 17 -40 46l8 53c3 28 15 41 44 41z" />
    <glyph glyph-name="f_f_l" horiz-adv-x="1076" 
d="M1028 102l7 -96c-25 -13 -86 -18 -112 -18c-90 0 -140 50 -129 130l70 496h-140c-49 0 -72 -21 -80 -77l-6 -44h127l-13 -99h-128l-61 -427c-13 -92 -66 -150 -174 -150c-34 0 -77 3 -136 11l23 98h64c51 0 71 12 79 66l57 402h-210l-64 -439c-13 -92 -65 -150 -173 -150
c-35 0 -77 4 -137 11l23 98h64c52 0 73 12 81 66l59 414h-86l12 94l88 5l10 67c14 93 66 150 174 150c38 0 112 -3 153 -10l-23 -98h-81c-51 0 -71 -13 -79 -66l-6 -43h209l10 69c14 98 61 159 175 158c58 0 245 0 346 -18l-75 -552c-4 -35 6 -48 42 -48h40z" />
    <glyph glyph-name="uni006600660079" horiz-adv-x="1301" 
d="M1139 493h156c-28 -159 -91 -329 -149 -436c-105 -189 -215 -251 -365 -262l-17 91c74 20 136 39 195 114h-59c-32 0 -56 21 -61 50l-57 309c-4 22 -19 35 -42 35h-115l-62 -427c-14 -92 -66 -150 -174 -150c-35 0 -77 3 -137 11l23 98h65c51 0 72 12 80 66l58 402h-212
l-64 -439c-13 -92 -65 -150 -173 -150c-35 0 -77 4 -137 11l23 98h64c52 0 73 12 81 66l59 414h-86l12 94l88 5l10 67c14 93 66 150 174 150c38 0 112 -3 153 -10l-23 -98h-81c-51 0 -71 -13 -79 -66l-6 -43h212l11 77c13 93 66 150 173 150c40 0 118 -3 162 -10l-24 -98
h-88c-51 0 -72 -13 -80 -66l-8 -53h162c80 0 120 -43 127 -115l35 -262c1 -9 8 -16 18 -16h40l4 9c53 112 88 219 114 384z" />
    <glyph glyph-name="uni00660074" horiz-adv-x="760" 
d="M617 394l-34 -236c-5 -37 3 -47 43 -47h66l7 -104c-39 -14 -106 -19 -137 -19c-94 0 -142 55 -129 145l38 261h-206l-63 -439c-13 -92 -65 -150 -173 -150c-35 0 -77 4 -137 11l23 98h64c52 0 73 12 81 66l59 414h-85l12 94l87 5l11 77c13 93 66 150 173 150
c40 0 118 -3 162 -10l-24 -98h-88c-51 0 -72 -13 -80 -66l-8 -53h206l20 138h146l-20 -138h136l-14 -99h-136z" />
    <glyph glyph-name="uni00660079" horiz-adv-x="941" 
d="M780 493h156c-29 -159 -92 -329 -149 -436c-105 -189 -215 -251 -365 -262l-17 91c74 20 136 39 195 114h-59c-32 0 -56 21 -61 50l-57 309c-5 22 -19 35 -43 35h-115l-63 -439c-13 -92 -65 -150 -173 -150c-35 0 -77 4 -137 11l23 98h64c52 0 73 12 81 66l59 414h-85
l12 94l87 5l11 77c13 93 66 150 173 150c40 0 118 -3 162 -10l-24 -98h-88c-51 0 -72 -13 -80 -66l-8 -53h162c80 0 120 -43 128 -115l35 -262c1 -9 8 -16 18 -16h39l4 9c54 112 88 219 115 384z" />
    <glyph glyph-name="fi" unicode="&#xfb01;" horiz-adv-x="662" 
d="M628 493l-70 -493h-147l55 394h-201l-63 -439c-13 -92 -65 -150 -173 -150c-35 0 -77 4 -137 11l23 98h65c51 0 71 12 79 66l60 414h-85l12 94l87 5l10 69c15 98 61 158 175 158c36 0 99 -3 137 -10l-17 -98h-71c-51 0 -73 -20 -81 -75l-6 -44h348zM548 715h65
c29 0 45 -18 40 -46l-7 -54c-4 -29 -15 -40 -44 -40h-66c-29 0 -44 17 -40 46l8 53c3 28 15 41 44 41z" />
    <glyph glyph-name="fl" unicode="&#xfb02;" horiz-adv-x="713" 
d="M670 102l7 -96c-25 -13 -86 -18 -112 -18c-91 0 -140 50 -129 130l70 496h-140c-50 0 -73 -21 -81 -77l-6 -44h126l-13 -99h-127l-61 -439c-13 -92 -66 -150 -174 -150c-34 0 -77 4 -136 11l23 98h64c51 0 71 12 79 66l58 414h-85l12 94l87 5l10 69c14 98 60 159 175 158
c57 0 245 0 345 -18l-74 -552c-5 -35 6 -48 41 -48h41z" />
    <glyph glyph-name="s_t" horiz-adv-x="888" 
d="M745 394l-33 -236c-6 -37 2 -47 42 -47h66l7 -104c-38 -14 -106 -19 -137 -19c-93 0 -142 55 -129 145l38 261h-311c-73 0 -95 -2 -99 -24c-3 -24 15 -32 54 -47l121 -48c79 -31 114 -71 104 -149c-15 -120 -99 -137 -242 -137c-94 0 -132 6 -217 18l14 95
c48 -2 110 -2 157 -2c116 0 141 6 146 32c3 24 -15 28 -58 45l-119 49c-81 32 -110 81 -101 154c11 79 73 114 219 113h347l20 138h145l-20 -138h136l-13 -99h-137z" />
    <glyph glyph-name="uni00740074" horiz-adv-x="782" 
d="M639 394l-34 -236c-5 -37 3 -47 43 -47h66l7 -104c-39 -14 -106 -19 -137 -19c-94 0 -142 55 -129 145l38 261h-227l-33 -236c-5 -37 2 -47 43 -47h66l7 -104c-39 -14 -107 -19 -138 -19c-93 0 -141 55 -128 145l38 261h-89l12 94l91 5l20 138h145l-20 -138h227l20 138
h146l-20 -138h136l-13 -99h-137z" />
    <glyph glyph-name="uni00740079" horiz-adv-x="965" 
d="M804 493h156c-29 -159 -92 -329 -150 -436c-105 -189 -214 -251 -364 -262l-18 91c74 20 137 39 196 114h-59c-32 0 -57 21 -62 50l-57 309c-4 22 -18 35 -42 35h-138l-33 -236c-5 -37 2 -47 43 -47h62l7 -104c-38 -14 -104 -19 -134 -19c-93 0 -141 55 -128 145l38 261
h-89l12 94l91 5l20 138h145l-20 -138h176c86 0 130 -46 138 -124l33 -253c2 -9 9 -16 18 -16h40l4 9c53 112 88 219 115 384z" />
    <glyph glyph-name="ordfeminine" unicode="&#xaa;" horiz-adv-x="448" 
d="M254 613c62 1 136 -9 175 -20l-45 -318h-85l-1 54c-30 -35 -74 -60 -132 -61c-88 -3 -118 53 -101 179c22 157 93 166 189 166zM176 445c-11 -79 -5 -91 24 -90c30 0 63 23 97 58l17 123h-51c-59 0 -75 -7 -87 -91z" />
    <glyph glyph-name="ordmasculine" unicode="&#xba;" horiz-adv-x="437" 
d="M254 615c130 0 179 -49 160 -181c-17 -125 -68 -167 -192 -167c-127 0 -178 48 -160 178c17 126 69 170 192 170zM253 535c-54 0 -69 -21 -80 -101c-9 -64 -1 -88 51 -88c51 0 68 22 79 99c10 74 -2 90 -50 90z" />
    <glyph glyph-name="uni0410" unicode="&#x410;" horiz-adv-x="647" 
d="M432 180h-238l-74 -180h-159l290 653c9 24 30 37 55 37h144c25 0 47 -19 49 -43l108 -647h-152zM416 301l-27 209c-3 22 -4 45 -5 67h-29c-7 -20 -15 -44 -24 -66l-87 -210h172z" />
    <glyph glyph-name="uni0411" unicode="&#x411;" horiz-adv-x="616" 
d="M240 410h99c187 0 251 -54 228 -214c-23 -161 -88 -205 -249 -205c-135 0 -202 2 -288 9l97 690c78 5 158 7 237 7c77 0 153 -3 231 -7l-29 -118h-303zM416 212c10 76 1 94 -86 94h-105l-28 -198h96c90 0 112 17 123 104z" />
    <glyph glyph-name="uni0412" unicode="&#x412;" horiz-adv-x="637" 
d="M600 512c-14 -96 -50 -144 -139 -152l-1 -6c104 -8 134 -78 118 -188c-21 -141 -89 -174 -251 -174c-138 0 -209 1 -297 8l97 690c77 7 142 8 251 8c171 0 242 -41 222 -186zM454 503c9 65 -11 79 -82 79h-111l-25 -173h106c74 0 101 19 112 94zM427 207
c11 79 -8 98 -90 99h-115l-28 -198h106c89 0 116 19 127 99z" />
    <glyph glyph-name="uni0413" unicode="&#x413;" horiz-adv-x="527" 
d="M260 693c104 0 220 -1 306 -12l-18 -111h-231c-45 0 -58 -11 -65 -58l-72 -512h-152l76 548c13 94 75 145 156 145z" />
    <glyph glyph-name="uni0403" unicode="&#x403;" horiz-adv-x="527" 
d="M554 830l-238 -107l-37 64l218 150zM260 693c105 0 220 -1 307 -12l-19 -111h-231c-45 0 -58 -11 -65 -58l-72 -512h-152l77 548c13 94 75 145 155 145z" />
    <glyph glyph-name="uni0490" unicode="&#x490;" horiz-adv-x="537" 
d="M601 842l-25 -167l-18 -105h-241c-39 0 -58 -14 -65 -58l-72 -512h-152l76 548c13 91 73 145 155 145c67 0 141 0 206 -5l33 154h103z" />
    <glyph glyph-name="uni0414" unicode="&#x414;" horiz-adv-x="738" 
d="M677 7l-22 -158h-114l10 151h-448l-33 -151h-115l21 151l15 110h69c79 144 120 288 156 441c19 89 79 139 173 139h294l-82 -580h90zM450 110l66 470h-81c-42 0 -65 -18 -75 -65c-31 -142 -67 -280 -134 -405h224z" />
    <glyph glyph-name="uni0415" unicode="&#x415;" horiz-adv-x="573" 
d="M565 570h-258c-38 0 -53 -13 -58 -54l-14 -104h271l-14 -108h-272l-19 -133c-5 -37 7 -51 45 -51h255l-3 -113c-89 -10 -203 -10 -299 -10c-116 0 -166 66 -152 166l54 394c12 84 69 136 165 136c110 0 227 -1 318 -11z" />
    <glyph glyph-name="uni0401" unicode="&#x401;" horiz-adv-x="572" 
d="M320 774h-53c-21 0 -30 10 -28 30l10 62c3 22 13 32 36 32h50c24 0 31 -10 28 -31l-10 -63c-2 -21 -12 -30 -33 -30zM495 774h-53c-21 0 -31 10 -28 30l10 63c3 22 13 31 35 31h51c23 0 31 -10 28 -31l-10 -63c-2 -21 -12 -30 -33 -30zM564 570h-258
c-38 0 -53 -13 -59 -54l-14 -104h271l-13 -108h-273l-18 -133c-5 -37 7 -51 45 -51h255l-4 -113c-88 -10 -202 -10 -299 -10c-115 0 -165 66 -152 166l55 394c12 84 69 136 165 136c109 0 227 -1 318 -11z" />
    <glyph glyph-name="uni0416" unicode="&#x416;" horiz-adv-x="929" 
d="M690 361l-1 -5c121 -16 127 -98 178 -356h-152c-45 234 -45 304 -134 304h-46c2 -23 1 -46 -2 -69l-33 -235h-147l34 241c3 19 9 41 16 63h-41c-85 0 -112 -70 -224 -304h-162c120 268 153 342 284 359l1 5c-117 20 -127 102 -166 326h151c34 -193 41 -277 123 -277h53
c-2 27 -2 56 2 85l27 192h146l-29 -198c-3 -27 -8 -53 -16 -79h34c87 0 120 84 209 277h157c-101 -226 -126 -313 -262 -329z" />
    <glyph glyph-name="uni0417" unicode="&#x417;" horiz-adv-x="563" 
d="M311 698c164 0 238 -43 218 -186c-14 -96 -49 -144 -138 -152l-1 -6c95 -9 127 -75 111 -188c-19 -136 -80 -174 -242 -174c-116 0 -190 10 -265 31l18 103c74 -11 148 -18 216 -18c81 0 111 21 122 99c12 78 -10 97 -87 97h-134l13 107h127c73 0 98 21 108 92
c9 67 -10 79 -83 79c-77 0 -132 -6 -196 -13l-5 110c68 14 133 19 218 19z" />
    <glyph glyph-name="uni0418" unicode="&#x418;" horiz-adv-x="710" 
d="M598 0h-146l57 396c5 36 13 73 24 109h-6c-16 -31 -33 -65 -51 -91l-289 -414h-157l97 690h147l-55 -391c-5 -37 -13 -69 -27 -113h7c17 37 36 68 54 94l287 410h155z" />
    <glyph glyph-name="uni0419" unicode="&#x419;" horiz-adv-x="710" 
d="M504 895h97c-2 -88 -71 -155 -176 -155c-113 0 -174 67 -152 155h99c-13 -63 11 -82 58 -82c43 0 70 22 74 82zM598 0h-146l57 396c5 36 13 73 24 109h-6c-16 -31 -33 -65 -51 -91l-289 -414h-157l97 690h147l-55 -391c-5 -37 -13 -69 -27 -113h7c17 37 36 68 54 94
l287 410h155z" />
    <glyph glyph-name="uni040D" unicode="&#x40d;" horiz-adv-x="710" 
d="M494 786l-49 -63l-221 114l66 97zM598 0h-146l57 396c5 36 13 73 24 109h-6c-16 -31 -33 -65 -51 -91l-289 -414h-157l97 690h147l-55 -391c-5 -37 -13 -69 -27 -113h7c17 37 36 68 54 94l287 410h155z" />
    <glyph glyph-name="uni041A" unicode="&#x41a;" horiz-adv-x="633" 
d="M390 360l-1 -4c131 -21 138 -97 184 -356h-154c-39 234 -41 304 -149 304h-52c2 -22 1 -45 -3 -69l-33 -235h-152l97 690h152l-28 -198c-3 -27 -9 -54 -17 -79h45c101 0 137 85 217 277h158c-97 -224 -129 -313 -264 -330z" />
    <glyph glyph-name="uni040C" unicode="&#x40c;" horiz-adv-x="633" 
d="M345 723l-37 64l218 150l57 -107zM391 360l-1 -4c130 -21 137 -97 184 -356h-155c-39 234 -41 304 -149 304h-52c2 -22 1 -45 -3 -69l-33 -235h-152l97 690h152l-28 -198c-3 -27 -9 -54 -17 -79h45c101 0 137 85 218 277h158c-98 -224 -130 -313 -264 -330z" />
    <glyph glyph-name="uni041B" unicode="&#x41b;" horiz-adv-x="678" 
d="M662 690l-97 -690h-152l82 580h-81c-47 0 -65 -16 -76 -64c-39 -173 -65 -287 -111 -375c-60 -117 -144 -156 -246 -144l-6 121c39 8 80 15 114 76c40 69 63 163 106 360c20 90 76 136 173 136h294z" />
    <glyph glyph-name="uni041C" unicode="&#x41c;" horiz-adv-x="911" 
d="M674 689l148 1c36 0 56 -23 52 -59l-62 -631h-143l59 571h-16l-164 -430c-11 -33 -31 -46 -65 -46h-100c-33 0 -54 19 -57 51l-48 425h-18l-99 -571h-144l115 636c6 37 23 54 60 54h143c33 0 51 -19 54 -52l40 -344c3 -33 4 -64 4 -98h15c10 36 20 65 31 95l130 352
c11 33 31 46 65 46z" />
    <glyph glyph-name="uni041D" unicode="&#x41d;" horiz-adv-x="687" 
d="M672 690l-97 -690h-153l43 307h-239l-43 -307h-153l97 690h153l-37 -264h239l37 264h153z" />
    <glyph glyph-name="uni041E" unicode="&#x41e;" horiz-adv-x="680" 
d="M388 703c205 0 291 -88 253 -364c-37 -274 -126 -352 -332 -352c-210 0 -292 86 -255 364c37 267 123 352 334 352zM383 580c-106 0 -141 -49 -169 -241c-26 -180 -5 -229 98 -229c105 0 142 51 170 241c27 185 3 229 -99 229z" />
    <glyph glyph-name="uni041F" unicode="&#x41f;" horiz-adv-x="688" 
d="M673 690l-97 -690h-154l82 580h-239l-82 -580h-153l97 690h546z" />
    <glyph glyph-name="uni0420" unicode="&#x420;" horiz-adv-x="611" 
d="M381 699c183 0 249 -59 225 -231c-25 -181 -90 -220 -260 -220c-43 0 -88 3 -128 9l-36 -257h-152l97 690c82 8 136 9 254 9zM455 479c12 82 -9 103 -79 103l-112 -1l-31 -216h103c82 0 106 20 119 114z" />
    <glyph glyph-name="uni0421" unicode="&#x421;" horiz-adv-x="583" 
d="M386 702c96 0 145 -8 206 -24l-20 -113c-65 4 -108 5 -192 5c-100 0 -141 -35 -167 -231c-24 -171 -6 -219 94 -219c94 -1 148 2 209 9l6 -114c-67 -20 -126 -27 -220 -27c-213 0 -284 104 -248 363c38 267 119 351 332 351z" />
    <glyph glyph-name="uni0422" unicode="&#x422;" horiz-adv-x="594" 
d="M617 566h-205l-80 -566h-153l80 566h-205l17 124h563z" />
    <glyph glyph-name="uni0423" unicode="&#x423;" horiz-adv-x="592" 
d="M644 690l-240 -514c-51 -112 -100 -178 -194 -186c-51 -4 -129 7 -169 16l24 107c122 -6 142 -3 180 63l11 20h-32c-50 0 -73 28 -80 71l-83 423h152l58 -364c1 -10 6 -13 15 -13h27l169 377h162z" />
    <glyph glyph-name="uni040E" unicode="&#x40e;" horiz-adv-x="592" 
d="M361 740c-112 0 -172 71 -150 154l72 5c-7 -43 23 -62 81 -62c65 0 102 25 106 65l69 -13c-1 -84 -69 -149 -178 -149zM643 690l-239 -514c-51 -112 -101 -178 -195 -186c-50 -4 -128 7 -168 16l23 107c122 -6 142 -3 181 63l11 20h-32c-50 0 -73 28 -80 71l-83 423h152
l58 -364c1 -10 6 -13 15 -13h27l169 377h161z" />
    <glyph glyph-name="uni0424" unicode="&#x424;" horiz-adv-x="841" 
d="M560 722l-12 -88c220 -14 298 -91 270 -292c-27 -199 -118 -270 -352 -281l-12 -87h-153l11 88c-224 14 -299 92 -270 292c28 200 120 271 353 282l11 86h154zM664 354c17 120 -12 158 -139 165l-50 -342c134 10 172 52 189 177zM197 342c-17 -120 9 -158 139 -166
l49 343c-134 -10 -172 -51 -188 -177z" />
    <glyph glyph-name="uni0425" unicode="&#x425;" horiz-adv-x="638" 
d="M458 354l129 -354h-153l-99 307h-12l-187 -307h-168l230 354l-117 336h151l90 -285h13l177 285h160z" />
    <glyph glyph-name="uni0427" unicode="&#x427;" horiz-adv-x="653" 
d="M638 690l-97 -690h-153l41 293c-75 -40 -160 -59 -209 -59c-124 0 -174 55 -159 171l41 285h152l-36 -259c-9 -52 11 -68 62 -68c53 0 96 10 165 46l40 281h153z" />
    <glyph glyph-name="uni0426" unicode="&#x426;" horiz-adv-x="718" 
d="M671 110l-15 -110l-21 -151h-114l10 151h-500l97 690h153l-82 -580h230l82 580h153l-82 -580h89z" />
    <glyph glyph-name="uni0428" unicode="&#x428;" horiz-adv-x="968" 
d="M953 690l-97 -690h-826l97 690h149l-82 -580h190l82 580h148l-82 -580h190l82 580h149z" />
    <glyph glyph-name="uni0429" unicode="&#x429;" horiz-adv-x="1005" 
d="M958 110l-15 -110l-21 -151h-114l10 151h-787l97 690h149l-82 -580h188l82 580h149l-82 -580h188l82 580h149l-82 -580h89z" />
    <glyph glyph-name="uni040F" unicode="&#x40f;" horiz-adv-x="693" 
d="M677 690l-97 -690h-210l-27 -151h-105l16 151h-223l97 690h153l-82 -580h243l82 580h153z" />
    <glyph glyph-name="uni042F" unicode="&#x42f;" horiz-adv-x="638" 
d="M355 699c128 0 192 -2 268 -9l-97 -690h-153l37 265h-94c-44 0 -68 -17 -85 -62l-78 -203h-166l87 215c31 73 78 98 122 101l1 4c-97 14 -123 106 -110 194c19 146 106 185 268 185zM427 382l28 200h-103c-74 0 -103 -19 -113 -90c-11 -76 7 -110 80 -110h108z" />
    <glyph glyph-name="uni042C" unicode="&#x42c;" horiz-adv-x="608" 
d="M244 434h97c183 0 247 -56 223 -228c-23 -168 -84 -214 -246 -214c-135 0 -203 1 -288 8l97 690h153zM412 217c12 84 6 110 -82 110h-101l-30 -217h91c89 0 110 15 122 107z" />
    <glyph glyph-name="uni042A" unicode="&#x42a;" horiz-adv-x="759" 
d="M399 434h94c183 0 247 -56 222 -228c-23 -168 -83 -214 -245 -214c-133 0 -200 1 -285 8l80 566h-212l17 124h365zM564 217c11 84 5 110 -82 110h-98l-31 -217h90c87 0 108 15 121 107z" />
    <glyph glyph-name="uni042B" unicode="&#x42b;" horiz-adv-x="896" 
d="M244 434h95c183 0 246 -56 222 -228c-23 -168 -83 -214 -245 -214c-134 0 -201 1 -286 8l97 690h153zM880 690l-97 -690h-153l97 690h153zM410 217c11 84 5 110 -81 110h-100l-30 -217h90c87 0 108 15 121 107z" />
    <glyph glyph-name="uni0409" unicode="&#x409;" horiz-adv-x="983" 
d="M625 434h93c183 0 246 -56 221 -228c-23 -168 -82 -214 -244 -214c-132 0 -197 1 -282 8l82 580h-68c-45 0 -63 -16 -74 -64c-37 -160 -61 -286 -110 -375c-57 -113 -139 -147 -247 -144l-5 126c49 8 91 24 114 69c43 72 62 167 105 359c21 92 73 139 168 139h283z
M788 217c11 84 5 110 -80 110h-98l-31 -217h89c86 0 107 15 120 107z" />
    <glyph glyph-name="uni040A" unicode="&#x40a;" horiz-adv-x="975" 
d="M618 428h97c167 0 241 -50 216 -228c-22 -162 -82 -208 -239 -208c-133 0 -201 1 -284 8h-1l44 316h-223l-44 -316h-153l97 690h153l-37 -263h223l37 263h151zM780 213c11 76 5 104 -79 104h-98l-29 -207h91c83 0 103 17 115 103z" />
    <glyph glyph-name="uni0405" unicode="&#x405;" 
d="M342 703c71 0 153 -7 225 -28l-15 -103c-60 2 -140 3 -214 3c-73 1 -102 -1 -112 -66c-7 -47 5 -57 55 -76l124 -48c109 -43 132 -102 119 -205c-20 -155 -89 -193 -272 -193c-48 0 -138 5 -237 27l16 109c127 -3 185 -5 215 -5c91 0 118 11 127 71c6 47 -7 57 -50 73
l-131 53c-104 43 -130 109 -118 203c21 155 107 185 268 185z" />
    <glyph glyph-name="uni0404" unicode="&#x404;" horiz-adv-x="586" 
d="M402 570c-113 0 -155 -27 -181 -158h278l-13 -108h-281c-16 -144 9 -178 109 -184c81 -3 155 4 200 10l6 -115c-56 -18 -119 -30 -215 -27c-222 7 -286 103 -251 363c36 270 131 351 346 351c77 0 149 -10 200 -24l-21 -113c-65 3 -119 5 -177 5z" />
    <glyph glyph-name="uni042D" unicode="&#x42d;" horiz-adv-x="587" 
d="M284 702c222 0 300 -91 264 -363c-35 -262 -123 -346 -332 -351c-102 -2 -165 11 -218 29l19 113c47 -7 118 -12 197 -10c105 5 145 47 171 185h-280l13 108h283c12 140 -30 157 -124 157c-65 0 -119 -2 -183 -5l-6 114c56 15 122 23 196 23z" />
    <glyph glyph-name="uni0406" unicode="&#x406;" horiz-adv-x="294" 
d="M182 0h-152l97 690h152z" />
    <glyph glyph-name="uni0407" unicode="&#x407;" horiz-adv-x="292" 
d="M117 887h50c24 0 31 -10 28 -31l-10 -63c-2 -21 -12 -30 -33 -30h-53c-21 0 -30 10 -28 30l10 62c3 22 13 32 36 32zM291 887h51c23 0 31 -10 28 -31l-10 -63c-2 -21 -12 -30 -33 -30h-53c-21 0 -31 10 -28 30l10 63c3 22 13 31 35 31zM181 0h-153l97 690h153z" />
    <glyph glyph-name="uni0408" unicode="&#x408;" horiz-adv-x="366" 
d="M354 690l-77 -548c-14 -101 -75 -154 -166 -154c-39 0 -101 9 -127 21l26 101h41c46 0 71 20 76 56l74 524h153z" />
    <glyph glyph-name="uni040B" unicode="&#x40b;" horiz-adv-x="777" 
d="M588 453c119 0 163 -56 148 -171l-39 -282h-153l36 256c8 54 -7 68 -63 68c-47 0 -86 -10 -146 -45l-39 -279h-153l80 566h-205l17 124h563l-17 -124h-205l-24 -168c70 38 138 55 200 55z" />
    <glyph glyph-name="uni042E" unicode="&#x42e;" horiz-adv-x="968" 
d="M677 703c197 0 289 -92 252 -364c-39 -274 -123 -352 -335 -352c-191 0 -264 77 -240 315h-128l-42 -302h-153l97 690h153l-39 -278h128c42 225 126 291 307 291zM769 351c25 180 5 229 -95 229c-104 0 -140 -52 -167 -241c-25 -180 -4 -229 92 -229
c106 0 144 52 170 241z" />
    <glyph glyph-name="uni0402" unicode="&#x402;" horiz-adv-x="759" 
d="M577 449c101 0 172 -46 146 -218c-30 -190 -138 -244 -295 -241l-8 108c98 13 135 43 151 134c14 86 -18 93 -58 93c-52 0 -90 -13 -142 -48l-39 -277h-153l80 566h-204l17 124h562l-16 -124h-206l-25 -173c65 41 132 56 190 56z" />
    <glyph glyph-name="uni04B0" unicode="&#x4b0;" horiz-adv-x="613" 
d="M413 289h109l-12 -83h-140l-28 -206h-153l28 206h-141l12 83h112l-140 401h154l78 -256c9 -31 11 -61 14 -89l11 3c8 27 21 60 36 88l151 254h163z" />
    <glyph glyph-name="uni04B6" unicode="&#x4b6;" horiz-adv-x="699" 
d="M652 102l-13 -102l-22 -151h-113l13 151h-121l41 295c-80 -40 -160 -57 -229 -57c-113 0 -161 55 -146 171l40 281h153l-36 -255c-8 -52 6 -69 66 -69c53 0 100 12 169 46l39 278h152l-83 -588h90z" />
    <glyph glyph-name="uni04BA" unicode="&#x4ba;" horiz-adv-x="659" 
d="M465 452c113 0 163 -55 146 -171l-39 -281h-153l36 255c8 52 -6 70 -66 69c-52 -1 -100 -13 -167 -45l-39 -279h-153l97 690h153l-41 -294c79 39 158 56 226 56z" />
    <glyph glyph-name="uni04C0" unicode="&#x4c0;" horiz-adv-x="296" 
d="M183 0h-152l97 690h152z" />
    <glyph glyph-name="uni0430" unicode="&#x430;" horiz-adv-x="594" 
d="M313 507c73 0 188 -15 246 -30l-68 -477h-115l2 89c-47 -59 -116 -98 -203 -101c-125 -4 -165 77 -137 268c33 230 128 251 275 251zM225 108c50 1 98 37 147 94l29 196h-77c-92 0 -119 -14 -137 -144c-18 -127 -11 -148 38 -146z" />
    <glyph glyph-name="uni0431" unicode="&#x431;" horiz-adv-x="590" 
d="M560 728l13 -123c-107 -31 -161 -15 -242 -35c-82 -21 -105 -59 -126 -105c-12 -20 -23 -47 -29 -71l1 3c39 44 85 80 180 80c168 0 202 -92 184 -239c-22 -176 -99 -250 -268 -250c-253 0 -242 150 -217 326c29 200 65 319 224 367c95 29 171 19 280 47zM323 375
c-90 0 -112 -39 -126 -138c-14 -107 -1 -139 71 -139c69 0 102 31 120 150c15 105 1 127 -65 127z" />
    <glyph glyph-name="uni0432" unicode="&#x432;" horiz-adv-x="564" 
d="M520 362c-9 -49 -43 -94 -136 -101l-1 -4c100 -6 136 -53 122 -140c-15 -99 -82 -130 -241 -130c-200 0 -259 63 -227 272c30 200 104 251 286 248c110 -3 217 -27 197 -145zM381 351c9 39 -13 50 -78 50c-78 0 -97 -25 -112 -107l91 8c73 6 92 22 99 49zM362 155
c6 46 -11 66 -85 60l-99 -8c-11 -100 5 -114 72 -114c76 0 105 11 112 62z" />
    <glyph glyph-name="uni0433" unicode="&#x433;" horiz-adv-x="534" 
d="M289 507c118 3 222 -15 212 -130c-9 -113 -116 -144 -156 -157l-127 -44c-47 -16 -59 -26 -60 -44c-3 -28 22 -32 81 -29c83 3 157 14 219 30l8 -102c-83 -31 -163 -43 -240 -43c-145 0 -223 43 -212 148c9 78 58 115 140 142l122 41c59 19 83 31 83 54
c1 21 -14 26 -94 23c-54 -3 -87 -7 -195 -24l-2 98c65 22 143 35 221 37z" />
    <glyph glyph-name="uni0453" unicode="&#x453;" horiz-adv-x="534" 
d="M477 647l-238 -107l-37 64l218 150zM289 507c118 3 222 -15 212 -130c-9 -113 -116 -144 -156 -157l-127 -44c-47 -16 -59 -26 -60 -44c-3 -28 22 -32 81 -29c83 3 157 14 219 30l8 -102c-83 -31 -163 -43 -240 -43c-145 0 -223 43 -212 148c9 78 58 115 140 142l122 41
c59 19 83 31 83 54c1 21 -14 26 -94 23c-54 -3 -87 -7 -195 -24l-2 98c65 22 143 35 221 37z" />
    <glyph glyph-name="uni0491" unicode="&#x491;" horiz-adv-x="471" 
d="M505 637l-23 -151l-17 -103h-196c-32 0 -52 -16 -56 -48l-47 -335h-147l53 382c12 81 54 117 134 117c54 0 112 0 166 -3l31 141h102z" />
    <glyph glyph-name="uni0434" unicode="&#x434;" horiz-adv-x="583" 
d="M135 620l21 99c273 -29 420 -149 381 -438c-28 -204 -105 -294 -288 -294c-160 0 -233 75 -212 235c20 151 91 229 231 229c39 0 85 -6 124 -36c-10 134 -92 174 -257 205zM259 98c79 0 104 50 126 196l4 28c-25 15 -53 22 -82 22c-76 0 -103 -41 -116 -127
c-13 -90 4 -119 68 -119z" />
    <glyph glyph-name="uni0435" unicode="&#x435;" horiz-adv-x="560" 
d="M320 507c182 0 226 -65 211 -170c-14 -96 -75 -128 -202 -137l-145 -12c2 -69 36 -82 98 -82c48 0 130 4 190 11l9 -94c-61 -26 -149 -35 -216 -35c-193 0 -252 91 -231 269c24 198 105 250 286 250zM388 351c4 46 -16 49 -78 48c-76 0 -101 -23 -118 -123l115 11
c50 4 75 15 81 64z" />
    <glyph glyph-name="uni0451" unicode="&#x451;" horiz-adv-x="560" 
d="M271 580h-53c-21 0 -30 10 -28 30l10 62c3 22 13 32 36 32h50c24 0 31 -10 28 -31l-10 -63c-2 -21 -12 -30 -33 -30zM446 580h-53c-21 0 -31 10 -28 30l10 63c3 22 13 31 35 31h51c23 0 31 -10 28 -31l-10 -63c-2 -21 -12 -30 -33 -30zM320 507c182 0 226 -65 211 -170
c-14 -96 -75 -128 -202 -137l-145 -12c2 -69 36 -82 98 -82c48 0 130 4 190 11l9 -94c-61 -26 -149 -35 -216 -35c-193 0 -252 91 -231 269c24 198 105 250 286 250zM388 351c4 46 -16 49 -78 48c-76 0 -101 -23 -118 -123l115 11c50 4 75 15 81 64z" />
    <glyph glyph-name="uni0436" unicode="&#x436;" horiz-adv-x="794" 
d="M579 258l-1 -4c100 -16 107 -46 155 -254h-140c-39 172 -43 205 -105 206h-42c2 -16 2 -32 0 -46l-22 -160h-130l24 164c2 12 5 27 10 42h-35c-61 -1 -80 -34 -166 -206h-149c105 210 111 242 230 257l1 4c-103 14 -108 51 -143 232h140c29 -148 37 -187 100 -187h37
c-1 19 -1 40 2 62l18 125h130l-19 -129c-3 -19 -7 -38 -13 -58h24c65 0 86 38 159 187h147c-91 -184 -108 -226 -212 -235z" />
    <glyph glyph-name="uni0437" unicode="&#x437;" horiz-adv-x="514" 
d="M246 505c162 0 238 -24 222 -140c-9 -67 -37 -103 -121 -110l-1 -4c85 -6 117 -50 105 -134c-15 -113 -84 -129 -234 -129c-75 0 -153 5 -224 21l16 101c65 -6 140 -10 195 -10c78 0 97 8 102 54c6 40 -13 49 -75 50l-144 1l11 92h137c61 0 82 13 89 53
c5 36 -6 42 -84 42c-57 0 -124 -5 -172 -10l-4 103c69 18 142 20 182 20z" />
    <glyph glyph-name="uni0438" unicode="&#x438;" horiz-adv-x="592" 
d="M557 493l-68 -493h-115l1 93c-75 -72 -141 -106 -213 -106c-96 0 -139 53 -126 139l51 367h148l-47 -327c-6 -41 5 -55 37 -55c44 0 81 24 143 76l43 306h146z" />
    <glyph glyph-name="uni0439" unicode="&#x439;" horiz-adv-x="592" 
d="M332 557c-113 0 -174 67 -152 155h99c-13 -63 11 -82 58 -82c43 0 70 22 74 82h97c-2 -88 -71 -155 -176 -155zM557 493l-68 -493h-115l1 94c-75 -73 -141 -107 -213 -107c-96 0 -139 53 -127 139l51 367h149l-47 -327c-6 -41 5 -55 36 -55c46 0 82 24 145 77l42 305h146
z" />
    <glyph glyph-name="uni045D" unicode="&#x45d;" horiz-adv-x="592" 
d="M352 540l-221 114l66 97l204 -148zM557 493l-68 -493h-115l1 94c-75 -73 -141 -107 -213 -107c-96 0 -139 53 -127 139l51 367h149l-47 -327c-6 -41 5 -55 36 -55c46 0 82 24 145 77l42 305h146z" />
    <glyph glyph-name="uni043A" unicode="&#x43a;" horiz-adv-x="560" 
d="M345 257l-1 -4c111 -14 111 -43 154 -253h-148c-35 171 -37 203 -108 204h-51c2 -14 2 -30 0 -45l-23 -159h-147l70 493h146l-17 -129c-3 -19 -8 -38 -14 -57h32c80 0 98 35 162 186h156c-86 -187 -99 -221 -211 -236z" />
    <glyph glyph-name="uni045C" unicode="&#x45c;" horiz-adv-x="560" 
d="M288 540l-37 64l218 150l57 -107zM346 257l-1 -4c110 -14 110 -43 153 -253h-148c-34 171 -37 203 -108 204h-51c2 -14 2 -30 0 -45l-23 -159h-147l69 493h147l-18 -129c-3 -19 -7 -38 -13 -57h33c79 0 97 35 162 186h155c-86 -187 -99 -221 -210 -236z" />
    <glyph glyph-name="uni043B" unicode="&#x43b;" horiz-adv-x="593" 
d="M558 493l-69 -493h-147l55 390h-59c-34 0 -50 -13 -61 -55c-20 -77 -46 -164 -68 -223c-34 -106 -119 -128 -216 -117l-9 115c39 4 70 3 92 54c19 46 43 124 64 210c20 80 62 119 148 119h270z" />
    <glyph glyph-name="uni043C" unicode="&#x43c;" horiz-adv-x="781" 
d="M550 493h134c35 0 52 -19 49 -54l-46 -439h-134l39 385h-13l-117 -279c-11 -30 -27 -43 -59 -43h-81c-31 0 -48 19 -51 49l-43 273h-14l-67 -385h-134l77 440c5 37 21 53 57 53h129c33 0 48 -17 51 -49l30 -208c3 -29 5 -52 6 -81h13c7 27 13 50 23 77l93 218
c10 30 27 43 58 43z" />
    <glyph glyph-name="uni043D" unicode="&#x43d;" horiz-adv-x="601" 
d="M567 493l-70 -493h-145l30 209h-186l-29 -209h-146l70 493h145l-25 -181h185l26 181h145z" />
    <glyph glyph-name="uni043E" unicode="&#x43e;" horiz-adv-x="588" 
d="M317 507c180 0 252 -74 224 -267c-26 -186 -101 -253 -280 -253c-178 0 -253 73 -227 265c26 186 101 255 283 255zM315 396c-80 0 -108 -28 -127 -156c-16 -114 -1 -142 76 -142c80 0 108 32 125 154c17 115 1 144 -74 144z" />
    <glyph glyph-name="uni043F" unicode="&#x43f;" horiz-adv-x="601" 
d="M431 507c81 0 135 -48 122 -140l-52 -367h-148l46 323c5 47 -1 60 -34 59c-45 -1 -90 -27 -154 -78l-42 -304h-148l69 493h117l-1 -98c75 73 152 112 225 112z" />
    <glyph glyph-name="uni0440" unicode="&#x440;" horiz-adv-x="597" 
d="M412 505c112 0 160 -68 134 -268c-30 -218 -115 -250 -234 -250c-40 0 -96 4 -147 13c0 -30 -2 -59 -7 -93l-16 -97h-148l97 683h117l-3 -95c52 52 131 107 207 107zM395 239c18 125 8 147 -37 147c-35 0 -93 -31 -146 -81l-29 -215h77c101 0 117 18 135 149z" />
    <glyph glyph-name="uni0441" unicode="&#x441;" horiz-adv-x="509" 
d="M306 507c60 0 137 -9 189 -32l-20 -90c-58 1 -113 2 -149 2c-89 0 -124 -26 -138 -141c-15 -119 7 -138 93 -138c35 0 99 1 155 9l11 -97c-58 -24 -130 -32 -193 -32c-175 0 -247 75 -220 265c27 184 96 254 272 254z" />
    <glyph glyph-name="uni0442" unicode="&#x442;" horiz-adv-x="881" 
d="M711 507c91 0 134 -54 121 -140l-51 -367h-146l45 327c6 44 -9 55 -35 55c-33 0 -64 -16 -129 -74l-44 -308h-142l46 327c6 40 -3 55 -36 55c-35 0 -66 -17 -129 -71l-43 -311h-147l70 493h114v-89c71 72 129 103 198 103c72 0 114 -35 122 -93c66 65 120 93 186 93z" />
    <glyph glyph-name="uni0443" unicode="&#x443;" horiz-adv-x="580" 
d="M418 493h156c-27 -135 -66 -281 -150 -435c-105 -210 -237 -301 -425 -263l12 105c89 -16 161 13 226 100h-58c-32 0 -57 21 -62 50l-80 443h158l46 -377c2 -9 9 -16 18 -16h39l4 9c57 110 92 233 116 384z" />
    <glyph glyph-name="uni045E" unicode="&#x45e;" horiz-adv-x="580" 
d="M322 557c-113 0 -174 67 -152 155h99c-13 -63 11 -82 58 -82c43 0 70 22 74 82h97c-2 -88 -71 -155 -176 -155zM418 493h157c-27 -135 -67 -281 -150 -435c-105 -210 -238 -301 -425 -263l11 105c89 -16 161 13 227 100h-59c-32 0 -56 21 -61 50l-81 443h159l46 -377
c1 -9 8 -16 18 -16h39l4 9c57 110 92 233 115 384z" />
    <glyph glyph-name="uni0444" unicode="&#x444;" horiz-adv-x="745" 
d="M496 700l-26 -196c185 -15 253 -93 228 -264c-23 -169 -105 -240 -302 -251l-24 -179h-133l24 181c-187 14 -253 90 -229 261s106 243 303 254l27 194h132zM558 248c15 103 -10 141 -110 150l-43 -301c102 9 139 49 153 151zM174 244c-14 -102 11 -139 111 -148l43 301
c-102 -9 -140 -49 -154 -153z" />
    <glyph glyph-name="uni0445" unicode="&#x445;" horiz-adv-x="562" 
d="M396 253l115 -253h-143l-88 207h-8l-147 -207h-157l188 254l-105 239h141l78 -190h12l136 190h153z" />
    <glyph glyph-name="uni0447" unicode="&#x447;" horiz-adv-x="568" 
d="M533 493l-69 -493h-147l26 190c-55 -24 -119 -35 -160 -35c-108 -1 -156 37 -143 126l31 212h147l-25 -179c-6 -37 3 -47 42 -47s75 9 124 34l26 192h148z" />
    <glyph glyph-name="uni0446" unicode="&#x446;" horiz-adv-x="628" 
d="M579 95l-13 -95l-21 -149h-123l38 149c-49 0 -87 34 -85 93c-76 -72 -141 -106 -213 -106c-96 0 -139 53 -126 139l51 367h148l-46 -327c-6 -41 4 -55 36 -55c44 0 81 24 143 76l43 306h147l-52 -378c-2 -11 6 -20 17 -20h56z" />
    <glyph glyph-name="uni0448" unicode="&#x448;" horiz-adv-x="869" 
d="M835 493l-70 -493h-114v90c-69 -72 -126 -103 -193 -103c-70 0 -112 34 -120 91c-64 -64 -117 -91 -180 -91c-92 0 -135 54 -122 139l51 367h147l-46 -327c-6 -39 8 -50 38 -50c34 0 59 16 122 71l43 306h140l-45 -327c-6 -36 2 -50 37 -50c37 0 63 17 122 67l43 310h147
z" />
    <glyph glyph-name="uni0449" unicode="&#x449;" horiz-adv-x="905" 
d="M856 95l-14 -95l-21 -149h-122l40 149h-2c-49 0 -86 32 -86 90c-69 -72 -126 -103 -192 -103c-71 0 -113 34 -121 91c-63 -64 -117 -91 -180 -91c-92 0 -135 54 -122 139l51 367h147l-45 -327c-7 -39 7 -50 37 -50c34 0 59 16 122 71l43 306h140l-45 -327
c-6 -36 2 -50 37 -50c37 0 63 17 122 67l43 310h146l-51 -378c-2 -11 5 -20 17 -20h56z" />
    <glyph glyph-name="uni045F" unicode="&#x45f;" horiz-adv-x="592" 
d="M557 493l-68 -493h-115l1 93c-75 -72 -141 -106 -213 -106c-96 0 -139 53 -126 139l51 367h148l-47 -327c-6 -41 5 -55 37 -55c44 0 81 24 143 76l43 306h146zM222 -41h95l-18 -200h-118z" />
    <glyph glyph-name="uni044C" unicode="&#x44c;" horiz-adv-x="527" 
d="M297 322c152 -1 199 -37 181 -170c-18 -128 -81 -160 -222 -160c-103 0 -234 6 -218 155l49 346h142l-26 -185c33 9 64 15 94 14zM332 166c8 51 -3 63 -61 63c-25 0 -52 -3 -81 -11l-10 -72c-6 -40 21 -48 66 -48c57 0 78 14 86 68z" />
    <glyph glyph-name="uni044A" unicode="&#x44a;" horiz-adv-x="644" 
d="M416 322c151 -1 199 -37 179 -170c-18 -128 -81 -160 -221 -160c-109 0 -254 13 -210 181l57 210h-191l15 110h345l-47 -180c25 6 50 9 73 9zM449 166c10 51 -2 63 -59 63c-22 0 -46 -3 -71 -8l-18 -68c-11 -46 19 -55 62 -55c58 0 76 14 86 68z" />
    <glyph glyph-name="uni044B" unicode="&#x44b;" horiz-adv-x="770" 
d="M297 322c151 -1 197 -37 179 -170c-17 -127 -81 -160 -221 -160c-103 0 -233 6 -217 155l49 346h142l-26 -186c33 10 64 16 94 15zM736 493l-69 -493h-149l70 493h148zM330 166c8 51 -2 63 -60 63c-25 0 -51 -3 -80 -10l-10 -73c-6 -40 21 -48 65 -48c57 0 78 14 85 68z
" />
    <glyph glyph-name="uni0459" unicode="&#x459;" horiz-adv-x="824" 
d="M607 322c145 -1 184 -46 167 -170c-18 -129 -84 -157 -220 -158c-130 -1 -228 19 -214 153l35 249h-47c-33 0 -48 -12 -56 -43c-25 -103 -43 -184 -76 -246c-53 -104 -129 -117 -207 -111l-6 107c39 4 67 20 88 51c31 44 46 113 74 234c17 70 56 105 134 105h245
l-26 -187c36 12 70 17 109 16zM628 166c8 52 -5 63 -55 63c-29 0 -56 -3 -88 -12l-10 -71c-5 -39 20 -48 67 -48c60 0 79 14 86 68z" />
    <glyph glyph-name="uni045A" unicode="&#x45a;" horiz-adv-x="827" 
d="M600 322c149 -1 196 -37 178 -170c-18 -125 -81 -158 -221 -158c-102 0 -230 6 -214 153l10 72h-166l-31 -219h-135l70 493h134l-25 -178h166l25 178h139l-26 -186c33 10 66 16 96 15zM632 166c7 51 -3 63 -60 63c-25 0 -52 -3 -81 -11l-10 -72c-6 -40 21 -48 66 -48
c57 0 77 14 85 68z" />
    <glyph glyph-name="uni0454" unicode="&#x454;" horiz-adv-x="530" 
d="M329 387c-86 0 -119 -12 -138 -90h247l-11 -93h-249c-5 -83 23 -96 113 -99c60 -1 112 2 166 5l8 -97c-53 -17 -123 -25 -188 -25c-190 0 -265 76 -243 263c25 208 123 253 291 253c60 0 134 -6 191 -26l-18 -93c-58 1 -114 2 -169 2z" />
    <glyph glyph-name="uni044D" unicode="&#x44d;" horiz-adv-x="532" 
d="M244 504c189 0 263 -65 239 -265c-23 -197 -105 -253 -295 -251c-84 0 -145 10 -192 28l17 94c55 -3 116 -4 157 -5c107 -2 140 12 158 99h-245l11 93h246c4 84 -26 91 -109 91c-65 -1 -106 -1 -166 -3l-6 95c47 15 116 24 185 24z" />
    <glyph glyph-name="uni044E" unicode="&#x44e;" horiz-adv-x="829" 
d="M561 507c176 0 250 -57 220 -266c-28 -200 -98 -251 -275 -251c-159 0 -223 47 -212 211h-97l-28 -201h-147l69 493h147l-26 -188h96c34 161 105 202 253 202zM629 250c15 114 -1 141 -75 141c-77 0 -103 -30 -119 -145c-16 -114 -1 -140 72 -140c79 0 106 31 122 144z
" />
    <glyph glyph-name="uni044F" unicode="&#x44f;" horiz-adv-x="562" 
d="M323 503c71 0 146 -2 206 -7l-70 -496h-144l24 168h-80c-41 0 -66 -14 -75 -41l-44 -128l-150 1l49 148c18 52 69 69 108 67l1 5c-88 20 -99 82 -91 138c16 128 92 145 266 145zM352 265l19 129h-97c-57 0 -70 -11 -77 -59c-7 -52 5 -70 62 -70h93z" />
    <glyph glyph-name="uni0452" unicode="&#x452;" horiz-adv-x="602" 
d="M431 413c97 0 141 -49 128 -140l-36 -253c-12 -91 -67 -176 -148 -218l-80 68c50 50 73 96 82 156l30 208c5 40 -7 51 -49 51c-41 0 -79 -18 -140 -60l-29 -225h-148l68 482h-65l9 71h66l21 147h147l-21 -147h176l-10 -71h-176l-7 -52c-5 -37 -12 -73 -21 -103
c73 58 143 86 203 86z" />
    <glyph glyph-name="uni0455" unicode="&#x455;" horiz-adv-x="527" 
d="M271 507c73 -1 171 -9 227 -20l-14 -94c-64 1 -125 3 -194 3c-73 0 -96 -2 -99 -26c-4 -24 14 -32 53 -47l121 -48c80 -31 114 -71 104 -149c-15 -120 -99 -137 -242 -137c-93 0 -132 6 -217 18l14 95c36 -2 108 -2 157 -2c116 0 141 6 146 32c3 24 -14 28 -58 45
l-118 49c-81 32 -111 81 -102 154c12 91 74 128 222 127z" />
    <glyph glyph-name="uni0456" unicode="&#x456;" horiz-adv-x="280" 
d="M164 711h63c30 0 45 -17 41 -46l-7 -54c-4 -28 -18 -40 -47 -40h-63c-31 0 -45 16 -41 46l8 53c2 28 16 41 46 41zM173 0h-147l68 493h147z" />
    <glyph glyph-name="uni0457" unicode="&#x457;" horiz-adv-x="276" 
d="M81 704h50c24 0 31 -10 28 -31l-10 -63c-2 -21 -12 -30 -33 -30h-53c-21 0 -30 10 -28 30l10 62c3 22 13 32 36 32zM255 704h51c23 0 31 -10 28 -31l-10 -63c-2 -21 -12 -30 -33 -30h-53c-21 0 -31 10 -28 30l10 63c3 22 13 31 35 31zM171 0h-148l69 493h149z" />
    <glyph glyph-name="uni0458" unicode="&#x458;" horiz-adv-x="280" 
d="M164 711h62c31 0 45 -17 41 -46l-7 -54c-4 -28 -18 -40 -48 -40h-62c-30 0 -45 16 -41 46l8 53c3 28 17 41 47 41zM242 493l-67 -473c-12 -91 -67 -176 -149 -218l-81 68c51 50 75 96 83 156l67 467h147z" />
    <glyph glyph-name="uni045B" unicode="&#x45b;" horiz-adv-x="602" 
d="M431 413c97 0 141 -50 128 -140l-38 -273h-148l34 231c5 42 -6 54 -49 54c-41 0 -78 -18 -139 -60l-30 -225h-148l68 482h-65l9 71h66l21 147h147l-20 -147h175l-10 -71h-175l-9 -66c-4 -31 -11 -62 -19 -88c72 57 142 85 202 85z" />
    <glyph glyph-name="uni04B1" unicode="&#x4b1;" horiz-adv-x="613" 
d="M385 96h107l-12 -90h-141l-28 -199h-153l28 199h-138l11 90h110l-139 397h153l78 -255c8 -31 12 -61 13 -89h11c6 27 20 63 36 90l150 254h164z" />
    <glyph glyph-name="uni04B7" unicode="&#x4b7;" horiz-adv-x="602" 
d="M539 5l-21 -146h-129l42 141h-115l27 190c-54 -24 -119 -35 -161 -35c-107 -1 -155 37 -142 126l30 212h147l-25 -179c-5 -37 4 -47 43 -47c38 0 74 9 124 34l27 192h147l-56 -387h75z" />
    <glyph glyph-name="Delta" unicode="&#x394;" horiz-adv-x="663" 
d="M609 53l-6 -53h-620l6 53l324 637h151zM372 545c-10 -32 -19 -61 -32 -88l-166 -343h275l-68 344c-5 28 -8 54 -9 87z" />
    <glyph glyph-name="Omega" unicode="&#x3a9;" horiz-adv-x="717" 
d="M408 703c206 0 292 -106 262 -322c-19 -133 -65 -195 -176 -271c27 10 48 13 72 13h82l-16 -123h-277l13 115c89 65 124 128 141 253c23 161 -4 213 -107 213c-108 0 -151 -55 -173 -214c-19 -128 -1 -187 64 -253l-13 -114h-276l16 123h80c22 0 43 -2 71 -12
c-77 79 -116 153 -97 284c27 205 122 308 334 308z" />
    <glyph glyph-name="mu" unicode="&#x3bc;" horiz-adv-x="618" 
d="M572 493l-70 -493h-115l-2 75c-55 -49 -121 -88 -194 -88c-15 0 -29 2 -42 5c2 -21 2 -41 0 -61l-17 -121h-128l46 329l50 354h148l-47 -327c-5 -36 8 -48 45 -48c40 0 76 12 131 43l46 332h149z" />
    <glyph glyph-name="pi" unicode="&#x3c0;" horiz-adv-x="647" 
d="M640 388h-78l-55 -388h-147l54 388h-154l-54 -388h-148l55 388h-79l15 106h606z" />
    <glyph glyph-name="zero" unicode="0" horiz-adv-x="627" 
d="M362 703c197 0 259 -103 222 -364c-36 -260 -115 -352 -306 -352c-190 0 -259 100 -221 364c36 260 115 352 305 352zM357 582c-93 0 -127 -50 -152 -239c-26 -188 -11 -235 78 -235c94 0 128 50 153 239c25 188 9 235 -79 235z" />
    <glyph glyph-name="one" unicode="1" horiz-adv-x="429" 
d="M295 0h-152l70 489c3 25 7 49 15 74l-166 -44l-8 101l188 70h150z" />
    <glyph glyph-name="two" unicode="2" horiz-adv-x="572" 
d="M326 702c143 0 232 -30 217 -166c-9 -76 -40 -133 -137 -223l-201 -185c33 7 70 9 101 9h203l-18 -137h-489l13 88c4 25 8 44 25 62l195 181c102 94 148 144 155 195c5 41 -22 46 -79 46c-72 0 -122 -1 -213 -9l1 116c102 20 171 23 227 23z" />
    <glyph glyph-name="three" unicode="3" horiz-adv-x="559" 
d="M315 703c158 0 221 -50 211 -166c-6 -74 -41 -163 -127 -172l-1 -4c84 -13 116 -70 102 -167c-17 -125 -94 -204 -282 -207c-62 -2 -137 6 -214 18l14 112c79 -4 125 -8 184 -5c103 5 139 48 149 105s-8 89 -85 90l-135 2l14 102h131c82 0 100 41 106 98
c5 54 -6 70 -95 70c-57 0 -132 -2 -182 -4l-1 110c80 13 157 18 211 18z" />
    <glyph glyph-name="four" unicode="4" horiz-adv-x="631" 
d="M596 260l-13 -94l-82 -14h-3l-21 -152h-140l21 152h-255c-74 0 -107 63 -75 120l236 418h148l-221 -400c-13 -22 -8 -30 11 -30h171l25 186l41 110h116l-42 -296h83z" />
    <glyph glyph-name="five" unicode="5" horiz-adv-x="545" 
d="M516 572h-275l-26 -128l79 -9c157 -18 213 -98 199 -216c-14 -111 -76 -221 -269 -231c-65 -3 -142 5 -221 22l23 118c63 -11 121 -15 167 -12c98 6 141 42 152 113c8 64 -22 83 -123 92l-95 11c-34 4 -55 31 -49 65l58 293h403z" />
    <glyph glyph-name="six" unicode="6" horiz-adv-x="584" 
d="M366 455c132 0 194 -58 170 -225c-24 -163 -87 -242 -273 -242c-198 0 -244 94 -206 355c45 313 137 359 320 359c46 0 95 -3 174 -19l-14 -99c-52 2 -82 2 -150 2c-112 0 -143 -33 -173 -185c50 39 105 54 152 54zM394 239c11 81 3 105 -69 105c-38 0 -76 -12 -130 -54
c-23 -153 -12 -185 75 -185c91 0 110 43 124 134z" />
    <glyph glyph-name="seven" unicode="7" horiz-adv-x="527" 
d="M80 690h412c57 0 77 -35 55 -84l-297 -606h-151l247 503c10 22 23 43 40 64l-317 -1z" />
    <glyph glyph-name="eight" unicode="8" horiz-adv-x="616" 
d="M354 702c193 0 240 -61 222 -190c-12 -79 -45 -143 -125 -153l-1 -4c92 -9 108 -89 94 -189c-17 -124 -71 -178 -268 -179c-196 0 -259 64 -243 191c13 95 47 172 145 180l1 4c-70 10 -92 73 -80 162c17 124 72 179 255 178zM348 593c-87 0 -105 -20 -115 -99
c-9 -66 5 -83 93 -83c83 0 102 20 112 95c10 69 -3 87 -90 87zM306 305c-86 0 -114 -14 -126 -108c-10 -72 7 -92 103 -92c86 0 112 21 123 103c12 79 -5 97 -100 97z" />
    <glyph glyph-name="nine" unicode="9" horiz-adv-x="584" 
d="M339 701c194 0 243 -79 203 -355c-43 -290 -124 -359 -323 -359c-44 0 -114 4 -186 20l15 100c51 -2 101 -2 164 -2c113 3 148 47 174 185c-47 -42 -94 -56 -150 -56c-159 0 -184 116 -170 229c21 178 93 238 273 238zM206 462c-10 -85 2 -118 70 -118c47 0 79 12 127 53
c22 155 15 188 -77 188c-85 0 -110 -31 -120 -123z" />
    <glyph glyph-name="fraction" unicode="&#x2044;" horiz-adv-x="160" 
d="M-114 0h-103l505 690h103z" />
    <glyph glyph-name="onehalf" unicode="&#xbd;" horiz-adv-x="908" 
d="M245 276h-114l39 274c2 16 5 32 11 50l-102 -24l-3 73l114 41h113zM201 0h-98l512 690h99zM702 421c107 0 173 -17 158 -112c-5 -36 -29 -73 -84 -118l-128 -98c23 5 39 5 61 5l135 -2l-13 -96h-333l9 62c2 19 5 33 18 46l114 92c55 43 87 75 97 101c9 23 -9 28 -40 28
c-50 0 -79 -1 -140 -3v82c66 12 119 13 146 13z" />
    <glyph glyph-name="onequarter" unicode="&#xbc;" horiz-adv-x="903" 
d="M132 276l38 274c3 16 5 32 11 50l-102 -24l-3 73l114 41h113l-58 -414h-113zM720 690l-513 -690h-99l513 690h99zM845 95l-52 -8l-12 -87h-102l12 86h-177c-40 0 -63 34 -39 75l147 253h105l-131 -234c-5 -11 -2 -16 9 -16h96l14 102l28 67h85l-24 -169h51z" />
    <glyph glyph-name="threequarters" unicode="&#xbe;" horiz-adv-x="980" 
d="M377 384c-10 -78 -51 -118 -174 -118c-52 0 -109 6 -158 12l7 82c59 -3 90 -3 128 -3c60 0 80 17 85 54c4 24 -2 40 -49 40l-92 1l10 74h89c46 0 57 22 59 48c4 26 -5 33 -49 33c-40 0 -84 -1 -129 -1l-1 80c52 8 101 11 143 11c121 0 158 -27 148 -102
c-6 -49 -25 -92 -89 -99l-5 -3c67 -9 84 -48 77 -109zM809 690l-512 -690h-99l512 690h99zM923 96l-52 -9l-12 -86h-102l12 85h-176c-40 0 -63 35 -39 76l146 253h106l-132 -234c-5 -11 -2 -16 9 -16h96l14 101l28 68h85l-24 -169h51z" />
    <glyph glyph-name="onesuperior" unicode="&#xb9;" horiz-adv-x="300" 
d="M249 360h-112l39 273c3 17 5 32 11 49l-103 -24l-3 76l114 40h112z" />
    <glyph glyph-name="twosuperior" unicode="&#xb2;" horiz-adv-x="413" 
d="M260 781c88 0 159 -17 147 -108c-5 -41 -23 -72 -82 -121l-118 -97c18 4 41 6 60 5l121 -1l-14 -99h-315l9 65c2 18 4 34 17 45l109 93c55 44 87 75 94 101c6 19 -8 25 -38 25c-48 0 -76 -1 -134 -4v83c63 12 110 13 144 13z" />
    <glyph glyph-name="threesuperior" unicode="&#xb3;" horiz-adv-x="394" 
d="M255 782c110 0 145 -34 139 -101c-4 -41 -24 -98 -81 -103l-1 -2c54 -8 76 -44 67 -106c-9 -65 -48 -117 -178 -118c-42 -1 -91 4 -143 11l9 83c56 -1 84 -4 123 -2c56 3 74 25 78 51c5 28 -6 42 -44 42h-89l10 75h86c41 0 52 17 55 47c2 24 -3 32 -51 32
c-27 0 -73 -1 -117 -2l-1 82c51 8 103 11 138 11z" />
    <glyph glyph-name="asterisk" unicode="*" horiz-adv-x="452" 
d="M287 524l89 -129l-68 -49l-54 122l-87 -121l-62 48l125 128l11 168h83zM217 563l-4 -35l-21 -22l-121 29l33 77zM448 532l-125 -27l-16 22l5 36l120 49z" />
    <glyph glyph-name="backslash" unicode="\" horiz-adv-x="543" 
d="M474 -72h-111l-289 762h111z" />
    <glyph glyph-name="bullet" unicode="&#x2022;" horiz-adv-x="370" 
d="M188 380h17c75 0 101 -29 90 -105l-2 -15c-12 -82 -37 -105 -113 -105h-19c-78 0 -103 29 -92 111l2 14c11 77 36 100 117 100z" />
    <glyph glyph-name="colon" unicode=":" horiz-adv-x="257" 
d="M116 451h37c36 0 54 -18 49 -55l-7 -47c-4 -34 -21 -49 -56 -49h-37c-38 0 -54 18 -50 54l7 49c5 33 23 48 57 48zM74 152h37c36 0 54 -18 49 -55l-7 -48c-4 -33 -21 -49 -56 -49h-37c-38 0 -54 19 -50 55l7 48c5 34 23 49 57 49z" />
    <glyph glyph-name="comma" unicode="," horiz-adv-x="244" 
d="M86 151h33c38 0 52 -15 47 -54l-9 -64c-8 -61 -38 -132 -73 -182l-65 23c15 43 28 82 38 129c-32 -2 -44 16 -41 45l8 53c7 39 22 50 62 50z" />
    <glyph glyph-name="ellipsis" unicode="&#x2026;" horiz-adv-x="889" 
d="M67 151h37c36 0 54 -18 49 -54l-7 -48c-4 -33 -21 -49 -56 -49h-37c-38 0 -55 18 -50 55l7 48c5 34 23 48 57 48zM391 151h36c37 0 55 -18 49 -54l-6 -48c-4 -33 -21 -49 -56 -49h-37c-38 0 -55 18 -50 55l7 48c4 34 23 48 57 48zM714 151h37c36 0 54 -18 49 -54l-6 -48
c-5 -33 -21 -49 -57 -49h-37c-38 0 -54 18 -49 55l7 48c4 34 22 48 56 48z" />
    <glyph glyph-name="exclam" unicode="!" horiz-adv-x="298" 
d="M240 425l-43 -206h-116l13 206l38 270h146zM109 151h32c36 0 55 -18 49 -54l-6 -48c-4 -33 -21 -49 -57 -49h-32c-38 0 -54 18 -49 55l7 48c4 34 22 48 56 48z" />
    <glyph glyph-name="exclamdown" unicode="&#xa1;" horiz-adv-x="283" 
d="M152 507h32c36 0 54 -18 49 -55l-7 -48c-4 -34 -21 -49 -56 -49h-32c-38 0 -54 19 -49 54l6 48c5 34 24 50 57 50zM185 82l-37 -267h-146l37 267l44 206h116z" />
    <glyph glyph-name="numbersign" unicode="#" horiz-adv-x="711" 
d="M570 426l-44 -140h110l-30 -89h-108l-62 -197h-113l62 197h-138l-62 -197h-113l62 197h-116l29 89h115l44 140h-114l30 88h112l55 176h113l-55 -176h138l55 176h113l-55 -176h112l-30 -88h-110zM457 426h-138l-44 -140h138z" />
    <glyph glyph-name="period" unicode="." horiz-adv-x="241" 
d="M80 151h37c36 0 54 -18 49 -54l-7 -48c-4 -33 -21 -49 -56 -49h-37c-38 0 -54 18 -50 55l7 48c5 34 23 48 57 48z" />
    <glyph glyph-name="periodcentered" unicode="&#xb7;" horiz-adv-x="251" 
d="M110 334h36c36 0 55 -18 49 -55l-6 -47c-4 -34 -21 -50 -56 -50h-37c-38 0 -55 19 -50 55l7 48c4 34 23 49 57 49z" />
    <glyph glyph-name="question" unicode="?" horiz-adv-x="516" 
d="M321 712c141 0 214 -52 199 -161c-20 -145 -190 -166 -228 -333h-118c17 171 166 231 184 311c11 52 -10 63 -72 63c-105 0 -138 -2 -206 -5v101c78 14 115 24 241 24zM205 151h32c37 0 55 -18 50 -54l-7 -48c-4 -33 -21 -49 -56 -49h-32c-38 0 -54 18 -50 55l7 47
c4 34 22 49 56 49z" />
    <glyph glyph-name="questiondown" unicode="&#xbf;" horiz-adv-x="509" 
d="M278 509h32c36 0 55 -18 49 -55l-7 -48c-4 -34 -21 -49 -56 -49h-32c-38 0 -53 18 -48 54l6 49c4 33 22 49 56 49zM208 288h118c-18 -178 -164 -229 -185 -309c-11 -41 8 -62 73 -62c105 0 144 1 206 5l-1 -101c-77 -14 -114 -24 -240 -24c-148 0 -212 63 -199 160
c19 144 193 167 228 331z" />
    <glyph glyph-name="quotedbl" unicode="&#x22;" horiz-adv-x="374" 
d="M176 469h-91l22 221h109zM338 469h-92l23 221h108z" />
    <glyph glyph-name="quotesingle" unicode="'" horiz-adv-x="213" 
d="M176 469h-91l22 221h109z" />
    <glyph glyph-name="semicolon" unicode=";" horiz-adv-x="260" 
d="M130 451h37c36 0 54 -18 49 -55l-7 -47c-4 -34 -21 -49 -56 -49h-37c-38 0 -55 18 -50 54l7 49c5 33 23 48 57 48zM95 151h33c38 0 52 -15 47 -54l-9 -64c-8 -61 -38 -132 -73 -182l-65 23c15 43 28 82 38 129c-32 -2 -44 16 -41 45l8 53c7 39 22 50 62 50z" />
    <glyph glyph-name="slash" unicode="/" horiz-adv-x="559" 
d="M92 -72h-121l500 762h121z" />
    <glyph glyph-name="underscore" unicode="_" horiz-adv-x="558" 
d="M446 -97h-444l14 97h444z" />
    <glyph glyph-name="braceleft" unicode="{" horiz-adv-x="341" 
d="M367 768l-8 -91c-56 0 -80 -14 -86 -64l-22 -152c-10 -84 -31 -120 -120 -134c76 -24 97 -63 87 -133l-29 -207c-6 -45 7 -61 65 -61l-5 -91c-154 -19 -216 44 -201 142l33 239c7 47 -9 49 -49 65l12 96c44 13 57 16 66 73l25 181c14 99 78 156 232 137z" />
    <glyph glyph-name="braceright" unicode="}" horiz-adv-x="342" 
d="M93 677l5 91c158 21 215 -48 202 -142l-25 -182c-8 -58 1 -55 45 -69l-13 -96c-42 -15 -63 -21 -69 -69l-34 -238c-14 -99 -75 -156 -232 -137l8 91c57 0 79 13 86 63l29 210c11 70 34 106 125 130c-76 13 -96 54 -83 137l22 152c6 45 -7 59 -66 59z" />
    <glyph glyph-name="bracketleft" unicode="[" horiz-adv-x="344" 
d="M366 676h-76c-14 0 -24 -8 -26 -22l-100 -709c-1 -12 3 -18 14 -18h83l-13 -92h-156c-45 0 -78 21 -70 80l109 779c7 46 38 74 84 74h164z" />
    <glyph glyph-name="bracketright" unicode="]" horiz-adv-x="344" 
d="M99 768h155c46 0 77 -35 71 -80l-110 -779c-6 -45 -38 -74 -84 -74h-163l12 92h76c14 0 24 8 26 22l100 709c2 12 -3 18 -14 18h-82z" />
    <glyph glyph-name="parenleft" unicode="(" horiz-adv-x="364" 
d="M393 791l17 -67c-126 -53 -195 -192 -226 -417c-30 -207 -8 -350 103 -408l-19 -61c-191 63 -263 219 -226 480c37 262 143 410 351 473z" />
    <glyph glyph-name="parenright" unicode=")" horiz-adv-x="364" 
d="M83 726l19 62c191 -63 263 -216 226 -482c-37 -260 -143 -408 -351 -472l-17 67c127 57 196 203 226 418c30 211 9 353 -103 407z" />
    <glyph glyph-name="emdash" unicode="&#x2014;" horiz-adv-x="859" 
d="M787 206h-741l14 97h741z" />
    <glyph glyph-name="endash" unicode="&#x2013;" horiz-adv-x="561" 
d="M491 206h-445l14 97h444z" />
    <glyph glyph-name="hyphen" unicode="-" horiz-adv-x="414" 
d="M344 206h-298l14 97h297z" />
    <glyph glyph-name="softhyphen" unicode="&#xad;" horiz-adv-x="414" 
d="M343 206h-298l14 97h298z" />
    <glyph glyph-name="guillemotleft" unicode="&#xab;" horiz-adv-x="513" 
d="M277 413l-122 -162l87 -169l-75 -50l-139 206l2 32l176 195zM484 413l-122 -162l87 -169l-75 -50l-139 206l2 32l176 195z" />
    <glyph glyph-name="guillemotright" unicode="&#xbb;" horiz-adv-x="515" 
d="M17 82l122 162l-87 169l75 50l139 -206l-2 -32l-176 -195zM224 82l122 162l-87 169l75 50l139 -206l-2 -32l-176 -195z" />
    <glyph glyph-name="guilsinglleft" unicode="&#x2039;" horiz-adv-x="306" 
d="M276 413l-122 -162l88 -169l-75 -50l-139 206l2 32l176 195z" />
    <glyph glyph-name="guilsinglright" unicode="&#x203a;" horiz-adv-x="306" 
d="M266 259l-3 -32l-176 -195l-70 51l122 163l-87 169l75 50z" />
    <glyph glyph-name="quotedblbase" unicode="&#x201e;" horiz-adv-x="414" 
d="M80 131h31c37 0 50 -14 45 -50l-8 -58c-8 -56 -37 -120 -70 -166l-62 22c15 38 27 74 37 116c-31 -1 -42 15 -39 42l7 48c7 36 21 46 59 46zM260 131h31c36 0 50 -14 44 -50l-8 -58c-7 -56 -36 -120 -69 -166l-62 22c15 38 26 74 36 116c-30 -1 -41 15 -38 42l7 48
c6 36 21 46 59 46z" />
    <glyph glyph-name="quotedblleft" unicode="&#x201c;" horiz-adv-x="403" 
d="M150 445h-31c-36 0 -50 15 -44 50l7 58c8 56 37 120 70 166l62 -22c-15 -38 -26 -74 -36 -116c30 1 41 -15 38 -42l-7 -48c-6 -35 -21 -46 -59 -46zM330 445h-31c-37 0 -50 15 -45 50l8 58c8 56 37 120 70 166l62 -22c-15 -38 -27 -74 -37 -116c31 1 42 -15 39 -42
l-7 -48c-7 -35 -21 -46 -59 -46z" />
    <glyph glyph-name="quotedblright" unicode="&#x201d;" horiz-adv-x="402" 
d="M152 708h31c37 0 50 -14 45 -50l-8 -58c-8 -55 -37 -119 -70 -165l-62 21c15 39 27 74 37 117c-31 -2 -42 14 -39 41l7 48c7 36 21 46 59 46zM331 708h32c36 0 50 -14 44 -50l-8 -58c-7 -55 -36 -119 -70 -165l-61 21c15 39 26 74 36 117c-30 -2 -41 14 -38 41l7 48
c6 36 21 46 58 46z" />
    <glyph glyph-name="quoteleft" unicode="&#x2018;" horiz-adv-x="224" 
d="M150 445h-31c-36 0 -50 15 -44 50l7 58c8 56 37 120 70 166l62 -22c-15 -38 -26 -74 -36 -116c30 1 41 -15 38 -42l-7 -48c-6 -35 -21 -46 -59 -46z" />
    <glyph glyph-name="quoteright" unicode="&#x2019;" horiz-adv-x="222" 
d="M152 708h31c37 0 50 -14 45 -50l-8 -58c-8 -55 -37 -119 -70 -165l-62 21c15 39 27 74 37 117c-31 -2 -42 14 -39 41l7 48c7 36 21 46 59 46z" />
    <glyph glyph-name="quotesinglbase" unicode="&#x201a;" horiz-adv-x="234" 
d="M80 131h31c37 0 50 -14 45 -49l-8 -59c-8 -55 -37 -119 -70 -165l-62 21c15 39 27 74 37 117c-31 -1 -42 14 -39 42l7 48c7 35 21 45 59 45z" />
    <glyph glyph-name="space" unicode=" " horiz-adv-x="217" 
 />
    <glyph glyph-name="uni00A0" unicode="&#xa0;" horiz-adv-x="217" 
 />
    <glyph glyph-name="florin" unicode="&#x192;" horiz-adv-x="470" 
d="M483 593h-64c-44 0 -68 -14 -80 -65l-28 -122h118l-22 -100h-119l-73 -319c-21 -92 -72 -150 -184 -150c-33 0 -97 3 -130 11l29 98h61c45 0 69 19 80 66l68 294h-95l18 88l99 11l34 147c22 92 78 150 187 150c34 0 98 -4 131 -11z" />
    <glyph glyph-name="cent" unicode="&#xa2;" horiz-adv-x="518" 
d="M337 487c-88 0 -121 -26 -136 -141c-15 -119 7 -138 91 -138c36 0 99 1 155 9l9 -97c-49 -21 -109 -30 -166 -32l-22 -88h-110l24 96c-112 23 -156 101 -134 257c25 179 91 250 256 254l21 83h111l-23 -90c34 -5 66 -13 92 -25l-21 -90c-57 1 -111 2 -147 2z" />
    <glyph glyph-name="currency" unicode="&#xa4;" horiz-adv-x="585" 
d="M501 346c-5 -41 -20 -78 -43 -108l67 -73l-66 -60l-67 74c-33 -19 -71 -29 -113 -29c-43 0 -80 11 -110 32l-74 -66l-59 66l76 68c-14 31 -19 67 -14 108c6 42 21 80 44 111l-65 72l66 61l66 -75c32 18 70 28 110 28c43 0 81 -11 111 -32l76 69l59 -67l-78 -69
c15 -32 20 -69 14 -110zM182 351c-9 -74 34 -119 101 -119c73 0 126 47 134 123c9 73 -33 118 -102 118c-74 0 -124 -47 -133 -122z" />
    <glyph glyph-name="dollar" unicode="$" horiz-adv-x="572" 
d="M335 575c-71 1 -100 -1 -109 -66c-7 -47 5 -57 54 -76l122 -48c107 -44 130 -102 117 -205c-19 -150 -84 -191 -253 -193l-25 -106h-111l26 111c-42 4 -90 11 -141 22l16 109c125 -3 183 -5 213 -5c89 0 115 11 123 71c7 47 -6 58 -48 73l-129 53
c-103 43 -128 109 -116 203c21 152 102 184 255 185l23 91h111l-24 -96c42 -4 84 -11 123 -23l-15 -103c-59 2 -139 3 -212 3z" />
    <glyph glyph-name="Euro" unicode="&#x20ac;" horiz-adv-x="635" 
d="M457 702c79 0 131 -11 174 -24l-20 -110c-29 4 -113 9 -166 5c-78 -5 -119 -38 -145 -110h224l-23 -94h-452l14 94h76c44 161 135 239 318 239zM367 116c54 -5 133 0 189 11l6 -112c-50 -17 -110 -27 -189 -27c-179 0 -261 82 -264 248h-79l14 94h434l-22 -94h-190
c2 -77 32 -116 101 -120z" />
    <glyph glyph-name="sterling" unicode="&#xa3;" horiz-adv-x="581" 
d="M380 579c-61 0 -85 -15 -90 -72l-6 -104h178l-15 -78h-168l-3 -45c-6 -89 -39 -126 -95 -166c22 8 48 9 73 9h264l-17 -123h-492l15 125c73 31 98 92 103 161l3 39h-77l10 78h72l8 115c13 155 85 184 221 184c47 0 129 -3 208 -10l-15 -114c-43 1 -57 1 -177 1z" />
    <glyph glyph-name="yen" unicode="&#xa5;" horiz-adv-x="653" 
d="M466 350h101l-13 -94h-470l12 94h103l-120 340h153l77 -251c9 -31 12 -60 13 -89h12c5 27 20 63 35 91l150 249h163zM79 227h472l-13 -94h-161l-18 -133h-154l19 133h-157z" />
    <glyph glyph-name="approxequal" unicode="&#x2248;" horiz-adv-x="584" 
d="M196 464c58 -3 153 -46 202 -49c35 -3 44 13 49 48l93 -7c6 -99 -38 -149 -128 -146c-60 1 -151 46 -202 50c-34 2 -43 -14 -48 -49l-92 6c-7 108 49 153 126 147zM169 269c58 -4 153 -47 202 -51c35 -3 44 14 49 48l93 -6c6 -99 -38 -149 -128 -146
c-61 1 -151 46 -202 49c-34 2 -44 -13 -48 -48l-93 6c-6 109 50 153 127 148z" />
    <glyph glyph-name="asciitilde" unicode="~" horiz-adv-x="511" 
d="M143 363c60 -2 159 -45 199 -51c36 -6 46 13 51 48l66 -5c1 -98 -38 -144 -92 -142c-65 2 -159 45 -200 51c-35 5 -45 -13 -50 -50l-66 6c-1 102 43 144 92 143z" />
    <glyph glyph-name="divide" unicode="&#xf7;" horiz-adv-x="547" 
d="M291 552h32c42 0 58 -15 52 -57l-4 -32c-6 -40 -22 -54 -62 -54h-34c-43 0 -58 16 -52 57l5 32c5 41 23 54 63 54zM495 239h-458l16 109h458zM237 176h32c42 0 58 -15 52 -57l-5 -33c-5 -40 -21 -53 -61 -53h-34c-43 0 -58 16 -51 58l4 31c5 40 23 54 63 54z" />
    <glyph glyph-name="emptyset" unicode="&#x2205;" horiz-adv-x="685" 
d="M350 633c161 0 292 -131 292 -292c0 -162 -131 -293 -292 -293c-162 0 -293 131 -293 293c0 161 131 292 293 292zM350 545c-66 0 -83 -5 -122 -11l3 -45c40 6 58 9 119 9c42 0 66 -17 66 -46c0 -65 -97 -96 -97 -211h54c0 105 94 120 94 211c0 63 -41 93 -117 93z
M366 171h-39c-4 0 -7 -3 -7 -8v-37c0 -4 3 -7 7 -7h39c5 0 8 3 8 7v37c0 5 -3 8 -8 8z" />
    <glyph glyph-name="equal" unicode="=" horiz-adv-x="579" 
d="M526 348h-458l15 108h459zM497 137h-459l16 108h459z" />
    <glyph glyph-name="greater" unicode="&#x3e;" horiz-adv-x="514" 
d="M485 358l-16 -114l-442 -165l16 119l309 108l-278 108l15 109z" />
    <glyph glyph-name="greaterequal" unicode="&#x2265;" horiz-adv-x="554" 
d="M512 435l-16 -115l-443 -124l18 121l308 67l-289 67l15 112zM470 51h-440l15 110h441z" />
    <glyph glyph-name="infinity" unicode="&#x221e;" horiz-adv-x="766" 
d="M590 453c80 0 148 -48 134 -150c-14 -98 -90 -148 -174 -148c-77 0 -131 40 -169 84c-62 -47 -119 -84 -194 -84c-86 0 -156 55 -141 159c13 96 84 139 167 139c81 0 131 -42 173 -90c58 46 120 90 204 90zM157 304c-5 -38 16 -55 53 -54c50 2 81 30 116 62
c-22 27 -45 45 -93 45c-43 0 -71 -17 -76 -53zM611 307c4 36 -15 50 -47 50c-51 0 -84 -35 -120 -67c17 -21 42 -40 86 -40s75 18 81 57z" />
    <glyph glyph-name="integral" unicode="&#x222b;" horiz-adv-x="357" 
d="M261 714c30 0 78 1 125 -4l-20 -106h-57c-32 0 -50 -16 -54 -56l-42 -640c-6 -90 -39 -130 -138 -130c-20 0 -97 1 -117 4l19 106h55c34 0 54 17 57 59l42 637c6 88 58 130 130 130z" />
    <glyph glyph-name="less" unicode="&#x3c;" horiz-adv-x="515" 
d="M474 403l-310 -103l280 -109l-16 -113l-397 166l16 114l443 164z" />
    <glyph glyph-name="lessequal" unicode="&#x2264;" horiz-adv-x="555" 
d="M509 446l-307 -70l289 -68l-16 -112l-407 124l16 115l443 128zM457 51h-439l16 110h439z" />
    <glyph glyph-name="logicalnot" unicode="&#xac;" horiz-adv-x="579" 
d="M525 357l-32 -222h-114l16 113h-345l16 109h459z" />
    <glyph glyph-name="minus" unicode="&#x2212;" 
d="M510 239h-458l16 109h458z" />
    <glyph glyph-name="multiply" unicode="&#xd7;" horiz-adv-x="525" 
d="M344 287l117 -119l-79 -84l-128 132l-168 -133l-60 91l152 120l-115 118l79 80l126 -128l172 136l59 -90z" />
    <glyph glyph-name="notequal" unicode="&#x2260;" horiz-adv-x="611" 
d="M557 456l-15 -108h-459l16 108h225l74 146l87 -42l-54 -104h126zM70 245h458l-16 -108h-244l-71 -140l-86 41l50 99h-107z" />
    <glyph glyph-name="partialdiff" unicode="&#x2202;" 
d="M160 600l5 103c293 8 430 -62 373 -371c-45 -246 -142 -344 -309 -344c-182 0 -222 136 -198 254c22 109 95 213 232 212c56 -1 102 -15 136 -54c26 153 -8 200 -239 200zM240 107c85 0 118 82 144 214c-35 17 -61 21 -87 21c-73 0 -107 -46 -121 -113
c-16 -76 -3 -122 64 -122z" />
    <glyph glyph-name="percent" unicode="%" horiz-adv-x="907" 
d="M251 703c129 0 173 -55 151 -211c-21 -150 -68 -199 -191 -199c-127 0 -171 55 -149 211c21 150 67 199 189 199zM255 0h-101l511 690h100zM252 621c-57 0 -69 -27 -83 -129c-13 -94 -5 -117 42 -117c58 0 70 26 84 129c12 94 4 117 -43 117zM709 399
c128 0 173 -56 151 -211c-22 -150 -68 -200 -192 -200c-126 0 -171 56 -149 211c22 150 68 200 190 200zM709 316c-56 0 -68 -26 -82 -128c-14 -95 -5 -117 41 -117c59 0 71 25 84 128c12 94 5 117 -43 117z" />
    <glyph glyph-name="perthousand" unicode="&#x2030;" horiz-adv-x="1295" 
d="M251 703c129 0 173 -55 151 -211c-21 -150 -68 -199 -191 -199c-127 0 -171 55 -149 211c21 150 67 199 189 199zM255 0h-101l511 690h100zM252 621c-57 0 -69 -27 -83 -129c-13 -94 -5 -117 42 -117c58 0 70 26 84 129c12 94 4 117 -43 117zM709 399
c128 0 173 -56 151 -211c-22 -150 -68 -200 -192 -200c-126 0 -171 56 -149 211c22 150 68 200 190 200zM1095 399c128 0 173 -56 151 -211c-21 -150 -68 -200 -192 -200c-126 0 -170 56 -149 211c22 150 68 200 190 200zM709 316c-56 0 -68 -26 -82 -128
c-14 -95 -5 -117 41 -117c59 0 71 25 84 128c12 94 5 117 -43 117zM1095 316c-56 0 -68 -26 -82 -128c-13 -95 -5 -117 41 -117c59 0 71 25 84 128c13 94 5 117 -43 117z" />
    <glyph glyph-name="plus" unicode="+" horiz-adv-x="536" 
d="M489 247h-172l-24 -167h-109l23 167h-173l16 108h172l24 168h110l-24 -168h172z" />
    <glyph glyph-name="plusminus" unicode="&#xb1;" horiz-adv-x="571" 
d="M533 427l-16 -109h-173l-17 -119h-109l17 119h-173l16 109h172l17 120h110l-17 -120h173zM39 153h455l-16 -108h-455z" />
    <glyph glyph-name="product" unicode="&#x220f;" horiz-adv-x="713" 
d="M721 578h-86l-95 -675h-148l96 675h-183l-95 -675h-148l95 675h-87l16 112h652z" />
    <glyph glyph-name="radical" unicode="&#x221a;" horiz-adv-x="577" 
d="M648 876l-348 -871c-2 -5 -4 -5 -10 -5h-173c-6 0 -16 6 -15 11l-58 482h117l45 -398h13l307 781h122z" />
    <glyph glyph-name="summation" unicode="&#x2211;" horiz-adv-x="594" 
d="M586 580h-333l111 -248l-201 -358h348l-16 -110h-514l14 110l208 360l-108 246l14 110h492z" />
    <glyph glyph-name="lozenge" unicode="&#x25ca;" horiz-adv-x="570" 
d="M34 359l296 333c6 7 13 3 17 -5l202 -334c3 -6 7 -12 2 -20l-294 -335c-8 -8 -15 -3 -18 5l-204 336c-3 6 -6 12 -1 20zM150 345l113 -200l174 203l-114 199z" />
    <glyph glyph-name="ampersand" unicode="&#x26;" horiz-adv-x="748" 
d="M721 304h-86c-10 -55 -25 -105 -49 -147c-57 -104 -162 -169 -338 -169c-169 0 -233 59 -217 193c11 100 59 168 159 175l1 5c-75 6 -107 72 -91 165c26 153 125 176 275 176c57 0 109 -4 173 -22l-24 -105c-39 8 -93 13 -143 13c-91 0 -121 -14 -132 -92
c-10 -71 11 -89 80 -89h189c2 33 3 68 3 106h127c1 -37 0 -72 -2 -106h90zM467 205c18 27 31 61 39 99h-192c-75 0 -110 -23 -121 -104c-9 -66 11 -90 85 -90c90 0 151 32 189 95z" />
    <glyph glyph-name="asciicircum" unicode="^" horiz-adv-x="461" 
d="M453 402l-60 -32l-113 166h-8l-165 -166l-56 32l177 225h107z" />
    <glyph glyph-name="at" unicode="@" horiz-adv-x="799" 
d="M432 654c293 2 357 -40 315 -334c-34 -259 -78 -330 -255 -330c-89 0 -130 40 -143 94c-40 -55 -93 -96 -171 -96c-108 0 -164 65 -135 243c33 198 113 224 238 224c83 0 159 -12 247 -28l-46 -289c-3 -28 4 -40 26 -40c68 0 81 52 107 230c33 214 11 216 -186 216h-335
l9 100c108 6 225 9 329 10zM220 102c49 0 83 30 133 96l25 153l-66 1c-90 0 -114 -11 -133 -128c-19 -109 -3 -122 41 -122z" />
    <glyph glyph-name="bar" unicode="|" horiz-adv-x="260" 
d="M117 -169h-104l133 950h105z" />
    <glyph glyph-name="brokenbar" unicode="&#xa6;" horiz-adv-x="261" 
d="M195 381h-104l57 400h104zM118 -169h-104l56 400h104z" />
    <glyph glyph-name="copyright" unicode="&#xa9;" horiz-adv-x="811" 
d="M446 703c218 0 353 -146 328 -364c-24 -206 -176 -352 -396 -352s-352 148 -326 364c25 206 176 352 394 352zM450 635c-178 0 -306 -120 -325 -296c-18 -171 79 -284 251 -284c174 0 305 117 325 296c18 166 -75 284 -251 284zM450 554c50 0 87 -5 127 -15l-12 -79
c-44 1 -78 2 -116 2c-77 0 -101 -14 -114 -117c-12 -91 2 -113 64 -113c51 -1 97 0 136 4l6 -80c-44 -13 -87 -18 -135 -18c-157 0 -203 55 -182 214c20 156 79 202 226 202z" />
    <glyph glyph-name="dagger" unicode="&#x2020;" horiz-adv-x="469" 
d="M239 -110h-123l80 521l11 74l22 206h123l-36 -206l-10 -74zM44 381l15 112h129l-14 -96zM466 493l-15 -112l-127 16l13 96h129z" />
    <glyph glyph-name="daggerdbl" unicode="&#x2021;" horiz-adv-x="503" 
d="M333 492l-57 -399l-21 -203h-123l36 203l56 399l21 199h123zM190 397l-131 -16l16 112h129zM466 381l-127 16l14 96h129zM161 184l-14 -96h-129l15 112zM425 88h-129l14 96l131 16z" />
    <glyph glyph-name="degree" unicode="&#xb0;" horiz-adv-x="347" 
d="M219 701c82 0 138 -59 129 -137c-8 -76 -65 -127 -145 -127c-84 0 -135 61 -127 138c7 74 62 126 143 126zM216 628c-36 0 -59 -22 -62 -56c-4 -38 18 -62 54 -62c35 0 59 22 62 58c3 34 -16 60 -54 60z" />
    <glyph glyph-name="paragraph" unicode="&#xb6;" horiz-adv-x="591" 
d="M387 702c52 0 123 -5 174 -17l-96 -685h-97l86 611c-22 1 -43 2 -60 2l-116 -823h-97l57 411c-154 17 -211 101 -189 255c26 182 119 246 338 246z" />
    <glyph glyph-name="registered" unicode="&#xae;" horiz-adv-x="525" 
d="M312 703c120 0 214 -83 198 -228c-16 -134 -109 -217 -243 -217c-133 0 -217 94 -200 228c16 131 108 217 245 217zM468 486c11 113 -57 177 -159 177c-118 0 -187 -76 -200 -185c-12 -116 58 -181 160 -181c115 0 187 73 199 189zM310 603c60 0 104 -12 95 -73
c-3 -27 -15 -46 -53 -54l-1 -2c14 -4 22 -12 27 -37l14 -70h-65l-11 71c-3 15 -10 18 -23 18h-45l-12 -89h-63l33 233c34 3 56 3 104 3zM342 529c3 24 -4 29 -31 29h-49l-8 -61h41c30 1 43 4 47 32z" />
    <glyph glyph-name="section" unicode="&#xa7;" horiz-adv-x="543" 
d="M313 703c58 0 158 -4 225 -12l-17 -106c-45 3 -71 3 -169 3c-73 1 -104 -4 -110 -42c-4 -30 11 -47 42 -66l119 -71c99 -58 105 -131 55 -246l-103 3c14 78 7 107 -50 144l-140 90c-49 32 -93 70 -80 161c16 121 104 142 228 142zM76 359l104 -3c-14 -79 -9 -104 49 -141
l141 -87c43 -27 93 -62 79 -165c-17 -122 -97 -142 -228 -142c-57 0 -155 4 -224 12l17 106c52 -2 98 -4 161 -4c69 0 110 3 117 45c6 31 -10 46 -37 62l-122 73c-100 55 -108 128 -57 244z" />
    <glyph glyph-name="trademark" unicode="&#x2122;" horiz-adv-x="976" 
d="M320 616l-42 -300h-102l42 300h-119l11 80h340l-10 -80h-120zM823 696h98c23 0 37 -16 34 -40l-34 -340h-93l29 303h-10l-87 -218c-7 -21 -18 -29 -40 -29h-61c-22 0 -37 14 -38 34l-28 213h-11l-54 -303h-94l63 347c4 23 12 33 36 33h95c21 0 35 -14 36 -35l23 -168
c2 -19 2 -40 2 -59h9c4 18 10 40 16 58l69 175c7 21 19 29 40 29z" />
    <glyph glyph-name="acute" unicode="&#xb4;" horiz-adv-x="353" 
d="M371 631l-238 -107l-37 64l218 150z" />
    <glyph glyph-name="breve" unicode="&#x2d8;" horiz-adv-x="393" 
d="M354 708l69 -13c-1 -84 -69 -149 -178 -149c-112 0 -172 71 -150 154l72 5c-7 -43 23 -62 81 -62c65 0 102 25 106 65z" />
    <glyph glyph-name="caron" unicode="&#x2c7;" horiz-adv-x="448" 
d="M469 683l-160 -131h-79l-135 140l49 50l126 -92h8l156 90z" />
    <glyph glyph-name="cedilla" unicode="&#xb8;" horiz-adv-x="248" 
d="M21 -96l15 58c95 11 151 3 138 -70c-16 -98 -106 -144 -214 -129l20 64c47 -1 90 18 98 58c3 16 -3 19 -57 19z" />
    <glyph glyph-name="circumflex" unicode="&#x2c6;" horiz-adv-x="448" 
d="M463 587l-45 -52l-131 98h-8l-156 -96l-37 56l148 133h102z" />
    <glyph glyph-name="brevecy" horiz-adv-x="392" 
d="M326 701h97c-2 -88 -71 -155 -176 -155c-113 0 -174 67 -152 155h99c-13 -63 11 -82 58 -82c43 0 70 22 74 82z" />
    <glyph glyph-name="dieresis" unicode="&#xa8;" horiz-adv-x="423" 
d="M165 708h50c24 0 31 -10 28 -31l-10 -63c-2 -21 -12 -30 -33 -30h-53c-21 0 -30 10 -28 30l10 62c3 22 13 32 36 32zM339 708h51c23 0 31 -10 28 -31l-10 -63c-2 -21 -12 -30 -33 -30h-53c-21 0 -31 10 -28 30l10 63c3 22 13 31 35 31z" />
    <glyph glyph-name="dotaccent" unicode="&#x2d9;" horiz-adv-x="236" 
d="M155 703h44c26 0 44 -16 41 -43l-7 -53c-4 -26 -17 -39 -43 -39h-45c-29 0 -44 17 -40 44l7 52c3 26 18 39 43 39z" />
    <glyph glyph-name="grave" unicode="`" horiz-adv-x="353" 
d="M344 587l-49 -63l-221 114l66 97z" />
    <glyph glyph-name="hungarumlaut" unicode="&#x2dd;" horiz-adv-x="501" 
d="M322 682l-170 -162l-60 42l143 181zM511 682l-170 -162l-59 41l142 182z" />
    <glyph glyph-name="macron" unicode="&#xaf;" horiz-adv-x="400" 
d="M399 598h-299l13 95h299z" />
    <glyph glyph-name="ogonek" unicode="&#x2db;" horiz-adv-x="251" 
d="M102 5l64 -5c-28 -31 -53 -67 -72 -104c-19 -35 1 -44 49 -31l14 -57c-153 -57 -205 16 -168 88c16 31 49 69 113 109z" />
    <glyph glyph-name="ring" unicode="&#x2da;" horiz-adv-x="309" 
d="M215 757c69 0 121 -50 113 -119c-8 -59 -52 -108 -123 -108s-120 52 -112 119c7 59 51 108 122 108zM214 696c-30 0 -50 -22 -53 -51c-4 -34 18 -53 46 -53c31 0 51 22 53 54c3 29 -16 50 -46 50z" />
    <glyph glyph-name="tilde" unicode="&#x2dc;" horiz-adv-x="439" 
d="M188 712c59 -3 106 -41 151 -48c38 -7 49 12 54 46l62 -6c2 -95 -38 -140 -92 -138c-63 4 -112 43 -153 50c-37 5 -48 -13 -53 -49l-63 6c1 98 42 141 94 139z" />
    </font>
</defs>
</svg>
