<svg xmlns="http://www.w3.org/2000/svg" viewBox="0 0 106.31 73.35"><defs><style>.cls-1{fill:#4d4d4d;}</style></defs><title>Ресурс 1</title><g id="Слой_2" data-name="Слой 2"><g id="Layer_1" data-name="Layer 1"><path class="cls-1" d="M105.24,63.83c-1.71-2.35-4.33-4.06-6.62-5.79-3.21-2.42-6-5.26-9.08-7.86,4-2.75,3-10.94,2.9-15.07C92.34,26.31,92,17.49,91.8,8.7c-.06-2.53,0-5.45-2.35-7.12C86.9-.26,81.63.48,78.56.24,70-.44,61.31.58,52.71.26l-29,.17c-2.64,0-5.1-.26-6.83,2-2.21,2.92-1.7,7.29-1.57,10.68.43,10.75-.65,21.52.09,32.31A5.79,5.79,0,0,0,18,50.29c-4,2.84-8.14,5.53-12,8.61C3.22,61.18,0,63.32,0,67.24c0,3.44,1.6,5.2,4.91,5.59a134.06,134.06,0,0,0,20.06.3c15.24-.55,30.44-.08,45.66-.5,6.59-.18,13.18,0,19.77.06,4,0,11.32,1.46,14.41-1.9A5.39,5.39,0,0,0,105.24,63.83ZM18.12,37.1c-.15-4.57-.27-9.16-.13-13.73.13-4.23.29-8.36.19-12.58-.06-2.71,0-6.3,3.18-7.35,1.75-.57,4.53,0,6.35,0l25-.14c5.37.2,10.78.31,16.15,0,4-.23,18.37-1.61,19.85,3.27.53,1.73.1,4.19.09,6,0,4,.1,8.06.28,12.09.14,3.22.3,6.43.36,9.65,0,2,0,4,0,6-.07,2.88.39,5.25-2.2,6.79-2.9,1.73-8.12.76-11.49.74-3.73,0-7.46-.13-11.19-.07-7.31.1-14.62.51-21.93.59-3.52,0-7-.1-10.56,0-3.19.13-8.73,1.44-11.72-.2C17.1,46.44,18.22,40.14,18.12,37.1Zm83.3,32.36c-2.35,1.1-7.65.24-10.23.22-13-.08-26.15-.47-39.16-.3-13.61.18-27.19,1-40.82.71C8.56,70,3.28,70.66,3,67.24c-.18-2.19,2-3.57,3.53-4.85,4.53-3.93,9.71-7.06,14.55-10.58a1.61,1.61,0,0,0,.33-.33,35.58,35.58,0,0,0,7.38.12c9.48-.49,19-.34,28.51-.65,4.71-.15,9.42-.25,14.14-.18s9.89.67,14.63.37l.08.08C91,55.12,96,59.26,100.65,63.43,102.44,65,105.46,67.57,101.42,69.46Z"/><path class="cls-1" d="M24.41,44.47c9.76-.16,19.58-.15,29.34-.56S73.7,43,83.5,43.59a1.13,1.13,0,0,0,1.12-1.12c-.27-11.11-.33-22.2-.77-33.33A1.14,1.14,0,0,0,82.74,8c-19.61.24-39.23-.23-58.85,0a1,1,0,0,0-.63.22,1,1,0,0,0-.49.9l.52,34.23A1.14,1.14,0,0,0,24.41,44.47Zm57.24-34.2c.38,10.35.47,20.67.71,31-9.45-.49-19.17,0-28.61.37s-18.83.4-28.23.55l-.49-32C43.91,10.06,62.78,10.48,81.65,10.27Z"/><path class="cls-1" d="M64,59.31a1.18,1.18,0,0,0-1.08-.83c-6.19-.42-12.34.16-18.53.19a1.17,1.17,0,0,0-1.08.83,30.66,30.66,0,0,0-1.83,5.92,1.14,1.14,0,0,0,.06.66,1,1,0,0,0,1,.77c7.41,0,15.32.56,22.66-.59A1.13,1.13,0,0,0,66,64.87C65.29,63,64.67,61.15,64,59.31ZM44,64.6a22.27,22.27,0,0,0,.75-2.76l.37-.91h.1c2.94-.21,5.91-.23,8.86-.3a50.7,50.7,0,0,1,8,.06h0l.4,1a13.6,13.6,0,0,0,.82,2.52C57,65,50.33,64.66,44,64.6Z"/><path class="cls-1" d="M52.81,6.72a1.13,1.13,0,0,0,0-2.25A1.13,1.13,0,0,0,52.81,6.72Z"/><path class="cls-1" d="M26.84,14.11q1.28,2,2.73,3.94a1.16,1.16,0,0,0,1.54.4,1.13,1.13,0,0,0,.4-1.54Q30.07,15,28.78,13C28,11.75,26.06,12.88,26.84,14.11Z"/><path class="cls-1" d="M34,17.8c1,1.06,2.58-.54,1.59-1.59L32.1,12.48c-1-1.06-2.58.54-1.59,1.59Z"/></g></g></svg>