<svg xmlns="http://www.w3.org/2000/svg" viewBox="0 0 118.13 98.26"><defs><style>.cls-1{fill:#1a1a1a;}</style></defs><title>Ресурс 1</title><g id="Слой_2" data-name="Слой 2"><g id="OBJECTS"><path class="cls-1" d="M115.31,46.74c-1-3.25-2.33-6.16-3.51-9.37a146.54,146.54,0,0,0-10.12-20.91C98.8,11.31,97,11.21,91.46,13.32l-2.35.91c-1.29-2.81-4.34-5-6.16-7.46C81.36,4.62,79.39,3,78,.8A1.68,1.68,0,0,0,75.75.21C70.5,3,65.5,6.38,60.54,9.68,54.65,13.6,49.32,18.32,43.4,22.15s-11.2,8.59-17,12.76c-2.3,1.67-4.39,3.55-6.61,5.33a21,21,0,0,0-2.26,2.21,37.85,37.85,0,0,0-8.73,4.71h0a.53.53,0,0,0-.24.22c-2.51.63-5.2,1-7.54,2a.83.83,0,0,0-1,.76A45.47,45.47,0,0,0,2.57,67.07C5.24,74.12,7.2,81.69,9.33,89c1.13,3.86.89,9.73,6.16,9.27,3.38-.29,6.63-1.74,10-2.15,3.67-.44,7.17-1.5,10.84-2,7.43-1,14.69-3,22.12-4.06a159.13,159.13,0,0,0,22.91-5.21c6.76-2,13.52-3.86,20.27-5.75,4.09-1.14,8.63-3.48,6-8.38l0,0c-.31-2.24-.55-4.5-.77-6.78a58,58,0,0,0,9.45-5.47,4,4,0,0,0,1.85-3.57C118.12,52,116.13,49.36,115.31,46.74ZM26.88,37.21c5.81-4,11.17-8.57,17.21-12.3C49.92,21.31,55,16.7,60.83,13c5-3.15,10-6.46,15.19-9.26,2.89,4.1,7.14,7.42,9.76,11.74C73.95,20.25,62.4,25.6,50.73,30.68c-7.48,3.26-15.25,5.62-23,8.21-1.86.62-3.8,1.25-5.75,1.92C23.63,39.54,25.3,38.29,26.88,37.21Zm73.73,38.08c-1.35.49-2.8.63-4.16,1.06-2.48.77-4.77,1.56-7.33,2.15-5.95,1.37-11.7,3.58-17.59,5.15C65.25,85.32,58.81,86,52.41,87c-6.14,1-12.12,2.56-18.27,3.47a140.66,140.66,0,0,0-16.3,3.26c-1.13.31-2.7.91-3.36.41s-.76-3-.95-3.72c-.82-3-1.91-5.88-2.86-8.82-1.61-5-2.82-10.36-4.86-15.17-2.15-5.08-2.77-10.34-4-15.69,2.58-.68,5.39-1,8-1.62,2.88-.74,5.71-1.46,8.53-2.43A125.6,125.6,0,0,1,36,42.23c6-1.16,12-3,18.07-4,5.88-1,11.87-1.76,17.71-2.88,2.88-.55,5.65-1.59,8.48-2.37s5.55-1.07,8.22-2,7.61-4.32,9.65-.65A31,31,0,0,1,99,34c.51,1.43,1.28,2.76,1.76,4.2,1.73,5.12,1,10.7,1.67,16,.71,5.91.65,11.86,1.44,17.74a1.62,1.62,0,0,0,.54,1.06C103.26,73.68,101,75.15,100.61,75.29Zm12.56-19.15a29.9,29.9,0,0,1-6.68,4c-.26-3-.49-6.06-.77-9.06-.58-6.2-.4-11.19-2.83-17.09-1.66-4-1.37-8.82-6.91-8.83-2.6,0-5,1.27-7.32,2.21-3.25,1.3-6.73,1.81-10.08,2.83-6.49,2-13,2.64-19.55,4.19C52.19,36,45.34,37.69,38.49,39q-2.38.46-4.73,1c3.32-1,6.64-2,9.87-3.26,5.94-2.31,11.72-5.09,17.7-7.2,3-1.05,5.57-2.75,8.49-3.92,2.38-1,4.84-1.53,7.16-2.67a102.14,102.14,0,0,1,9.55-4.41c1.65-.61,3.33-1.17,5-1.78,1-.36,3.26-1.66,4.35-1.64,2.74.05,4.36,5.35,5.58,7.44a83.24,83.24,0,0,1,4.41,8.62,157.55,157.55,0,0,1,6.47,17.73C113.05,51.41,115.41,54.06,113.17,56.14Z"/><path class="cls-1" d="M77,52.54c-1.35-4.6-5.6-9.54-10.17-11.27-4-1.51-7.3.07-10.54,2a29.41,29.41,0,0,0-9.05,5c-4.2,3.35-6.11,7.52-6.7,12.82-.57,5,.37,10.67,4.41,14,5,4.12,10.06,3.93,16.17,3.48s10.28-3.37,14-8.19C78.89,65.37,78.69,58.44,77,52.54ZM73.57,66.85c-3,5.35-8.27,8.08-14.07,8.58-4.75.41-8.81.39-12.88-2.53-4.52-3.25-4.36-9.21-3.72-14.12.67-5.09,4.17-9.08,8.63-11.8,2.48-.78,4.82-2.24,7.32-3.13a28.74,28.74,0,0,1,3.41-.72c.26,0,.53,0,.8,0,4.27.19,9.33,5.76,10.76,9.56C75.32,56.74,75.68,63,73.57,66.85Z"/><path class="cls-1" d="M60.67,57.82l-.56-.06A40.57,40.57,0,0,0,59,50.55c1.76-1.11,3.4-1.88,3.71-1.34a.62.62,0,0,0,1.15-.31l.06-.52a.79.79,0,0,0-.57-.75c-1.23-.45-3.24-.08-5.3.77a5.36,5.36,0,0,0-.5-.67c-.58-.65-1.67.19-1.21.93a3.52,3.52,0,0,1,.22.44c-3.79,2-7.11,5.45-5.16,8.31,1.52,2.24,3.87,2.48,6.22,2.7.08.89.15,1.78.23,2.67a31.32,31.32,0,0,1-.11,4,6.59,6.59,0,0,1-4.79-2c-.24-.27-.82-.07-.77.32.39,3.23,3,4.67,5.89,4.78a4.66,4.66,0,0,0,.33.78,1.6,1.6,0,0,0,1.75.71l.31,0a1.27,1.27,0,0,0,.89-1.57c0-.09-.06-.17-.09-.26,2.87-.78,5.45-2.68,6-5.29C68.2,60.38,63.72,58.34,60.67,57.82Zm-6.47-3.42a13.35,13.35,0,0,1,2.92-2.53c0,1,0,2.1.09,2.94s.16,1.87.23,2.81C55.29,57.42,53.24,56.85,54.19,54.39ZM63,65.13a5.63,5.63,0,0,1-2,1.1c0-.23,0-.46,0-.7a37.69,37.69,0,0,0-.53-5l.55.15C62.71,61.2,65.56,62.2,63,65.13Z"/><path class="cls-1" d="M30.8,52.17c-.54-.06-.66.85-.13.95a2.52,2.52,0,0,1,2,2.5c0,2-2.3,1.85-3.74,2.07l-.12,0a4.28,4.28,0,0,0,.47-1.93c0-.42-.67-.42-.66,0A4.33,4.33,0,0,1,28,57.83c-1.43.26-2.87.58-4.31.83-.88.15-1.76.35-2.63.57.2-.39.39-.78.59-1.17,1.2-2.28,2-4.91,3.74-6.82.12-.13.11-.17.05-.17h0c1.26,0,1.64-.69,2.82-1.24.08,0,.11-.23.11-.31s0-.39,0-.56a.15.15,0,0,0-.29-.07c-.36.87-2.27.72-3,.82-.89.12-1.74.45-2.63.54-.74.08-1.47.05-2.21.1.9-1.67,1.79-3.34,2.62-5,.18-.36-.36-.68-.54-.32-.9,1.83-1.86,3.64-2.82,5.44h-.11c-1.17.22-2.3.57-3.48.77a30.74,30.74,0,0,0-4.4.94,20.29,20.29,0,0,0,2.52-6.33c0-.23-.3-.33-.35-.1a24.24,24.24,0,0,1-2.93,6.71A4.89,4.89,0,0,0,8,54.95a1.4,1.4,0,0,0-.06.14,3.57,3.57,0,0,0-.18.72,4.16,4.16,0,0,0,.53,2.47q-.76,2.15-1.49,4.31c-.58,1.71-1.54,3.24-1.69,5.05,0,.17.23.19.28,0,.62-2,1.67-3.76,2.3-5.74.32-1,.65-2,1-3a7.9,7.9,0,0,0,2,2,3,3,0,0,0,2.48,1.62c-.62,1.51-1.09,3-1.71,4.63-.71,1.86-2.27,3.35-2,5.45,0,.23.37.24.37,0,0-2.16,1.91-3.92,2.55-5.94a38.71,38.71,0,0,1,1.61-4.18A16.93,16.93,0,0,0,18,61.43l.43-.12c.3-.09.6-.15.9-.22-.95,1.92-1.87,3.85-2.79,5.79-1.27,2.66-2.12,5.42-3.56,8a11.77,11.77,0,0,0-1.29,3.75c-.28,1.37-.91,2.61-1.08,4,0,.28.37.28.45.06a22.9,22.9,0,0,0,1.45-3.84,13.58,13.58,0,0,1,1.58-4.21c1.4-2.48,2.12-5.2,3.35-7.76,1-2,1.89-4,2.86-6,1.87-.38,3.73-.58,5.62-1a.36.36,0,0,0,.26-.41l.3,0a6.12,6.12,0,0,0,.7-.16,23.24,23.24,0,0,0-1.27,2c-1.59,3.09-2.88,6.31-4.58,9.34a98.66,98.66,0,0,0-4.3,9.2c-.77,1.77-2.31,3.84-2.11,5.84a.36.36,0,0,0,.45.34l.51-.07c.16,0,.18-.27,0-.34-1.29-.65,7-16.18,7.66-17.59a86.58,86.58,0,0,1,3.82-7.88c.2-.35.44-.71.67-1.08l.34-.1c1-.23,1.87-.06,2.82-.25C34.87,58,34.33,52.56,30.8,52.17ZM10.64,54c.14-.1.28-.19.43-.27a12.4,12.4,0,0,1,4.46-1.24l.89-.15-1.35.38c-1.53.41-2.88,1.17-4.44,1.31ZM14,60.76a4.72,4.72,0,0,1-2.84-1c-.44-.76-.77-1.64-1.11-2.35l-.44-.54c0-.12,0-.22,0-.33l.08-.23c.17-.44.35-.88.55-1.31a1.3,1.3,0,0,1,.46,0c.33-.14,1.06-.11,1.42-.23,2.11-.7,4.08-1.46,6.25-2h.05c-1.41,2.58-2.84,5.15-4.24,7.73Zm6.15-1.27c-.75.21-1.5.44-2.23.68l-.92.23a12.62,12.62,0,0,1-2.22.35c.24-.49.49-1,.75-1.47,1.19-2.26,2.43-4.5,3.66-6.74a36.05,36.05,0,0,1,5.27-1.38c-1.3,1.71-1.94,3.86-3,5.73Q20.77,58.19,20.11,59.5Z"/><path class="cls-1" d="M93.45,36.08c-.41-.25-.73.29-.47.61a11.64,11.64,0,0,1,1.09,1.25c.57,1,.25,1.32-.57,1.92S91.74,41.33,90.81,42c-2,1.43-5.58,3.13-8,2.49a5.09,5.09,0,0,1-3.4-2.73c-.73-1.19-1.83-2.61-.4-4.16a5.22,5.22,0,0,1,2.5-1.17c3.14-.8,6.68-.73,9.9-1a.27.27,0,0,0,0-.54,45.93,45.93,0,0,0-9.44.43,6.5,6.5,0,0,0-4.09,1.93c-2.16,2.62,1.18,7.07,3.74,8,3.61,1.38,7.9-.72,10.73-3,.95-.76,3.29-1.86,3.52-3.25S94.43,36.69,93.45,36.08Z"/><path class="cls-1" d="M37.28,65c-.12-.28-.57-.08-.48.2.41,1.35-2.12,4.67-2.7,5.77-1.32,2.5-2.22,5.17-3.45,7.71a25.91,25.91,0,0,1-1.37,2.38,31.64,31.64,0,0,0-6.3.32c.92-2,1.93-3.88,2.93-5.86,2.36-4.66,4.29-9.53,7.08-14,.24-.38-.36-.73-.6-.35-3.15,5-5.21,10.58-8.14,15.7A47.67,47.67,0,0,0,22,81.56c-3,.59-5.44,1.75-4.73,3.93a3,3,0,0,0,2.14,1.64,5.25,5.25,0,0,0-.72,3.07c0,.34.55.23.57-.08a8.13,8.13,0,0,1,.87-2.8,11.79,11.79,0,0,0,1.23.2,8.37,8.37,0,0,0,5-1,6.76,6.76,0,0,0-.27,3.72.37.37,0,0,0,.73-.1c.09-3.06,1.45-5.45,3-8a42.43,42.43,0,0,0,3.16-6.84A54.55,54.55,0,0,1,36.51,68C37,67.13,37.71,66,37.28,65ZM19.9,86.13c-.81-.22-1.35-.39-1.34-1.3s1.25-1.68,2.91-2.13c-.33.77-.66,1.54-1,2.32C20.29,85.39,20.1,85.76,19.9,86.13Zm2.15.35a7.72,7.72,0,0,1-1.43-.19c.54-1,1.12-2,1.5-3,.12-.3.26-.59.39-.88a57.25,57.25,0,0,1,6.35-.72,30.38,30.38,0,0,0-2,3.58A10.51,10.51,0,0,1,22,86.48Z"/><path class="cls-1" d="M43.56,67.54a81.31,81.31,0,0,1-5.37,10.09,98.15,98.15,0,0,0-5,9.92c-.41.92-4.75,7.25-1.78,7.23a.28.28,0,0,0,.07-.55c-1-.35,1-3,1.28-3.63,1.39-2.51,2.27-5.29,3.55-7.85,2.52-5.08,5.81-9.73,7.95-15C44.46,67.29,43.74,67.1,43.56,67.54Z"/><path class="cls-1" d="M50.46,66.2C49.32,68,48.54,70,47.57,71.88c-1.15,2.25-2.49,4.41-3.78,6.58a61.23,61.23,0,0,0-3.23,5.89,21,21,0,0,0-2,4.92.47.47,0,0,0,.32.57,2.24,2.24,0,0,0,1.4,0c.41-.08.3-.7-.1-.7-1.4,0,.13-2,.42-2.61.43-.94.82-1.89,1.27-2.83.93-1.93,2-3.75,3.12-5.6,2.19-3.76,3.85-7.84,6.13-11.52C51.37,66.17,50.72,65.78,50.46,66.2Z"/><path class="cls-1" d="M56.71,64.33c-2.6,4.2-4.49,8.87-6.89,13.2-1.21,2.18-2.27,4.42-3.32,6.67-.78,1.66-2.08,3.44-2.25,5.3,0,.36.47.36.58.08.84-2.1,2.05-4.09,3-6.15,1-2.24,2.13-4.42,3.33-6.57,2.21-4,3.83-8.27,6.19-12.14C57.61,64.29,57,63.92,56.71,64.33Z"/><path class="cls-1" d="M63.13,61.93c-3.29,4.27-5.4,9.4-7.79,14.2-1.15,2.31-2.37,4.56-3.65,6.79a26.23,26.23,0,0,0-3,6.52.23.23,0,0,0,.41.17c1.4-2.11,2.22-4.44,3.46-6.64S55,78.43,56.09,76.1a133.92,133.92,0,0,1,7.34-14C63.55,61.91,63.26,61.76,63.13,61.93Z"/><path class="cls-1" d="M70.43,58.08c-3,6.63-6.68,13-10.2,19.37-1.45,2.63-3.22,5.12-4.88,7.61-.59.89-1.07,2,.34,2.27a.34.34,0,0,0,.18-.66c-.5-.2,3-5.37,3.15-5.59,1.57-2.37,2.83-4.86,4.17-7.36,2.71-5,5.56-10,7.92-15.25C71.31,58,70.64,57.62,70.43,58.08Z"/><path class="cls-1" d="M76.14,61.25C73,66,70.3,71.33,66.57,75.65c-1.46,1.7-2.42,3.55-4.08,5.06s-1.75,3.76-3.12,5.49c-.16.2,0,.53.29.37,1.92-1.2,1.65-3.59,3.18-5.14a15.77,15.77,0,0,0,2.11-2c.81-1.18,1.44-2.38,2.37-3.49,3.59-4.32,6.49-9.54,9.35-14.36A.3.3,0,0,0,76.14,61.25Z"/><path class="cls-1" d="M83.56,59.33c-1.56,2.39-2.74,5-4.68,7.15S75.25,71,73.4,73.2c-1.42,1.72-2.56,3.57-3.83,5.4-.78,1.12-2.31,2.55-2.12,4,0,.18.28.31.38.1,1.8-3.7,4.8-7.1,7.29-10.33,1.65-2.14,3.41-4.17,5.09-6.27s2.63-4.31,4-6.42C84.48,59.3,83.82,58.93,83.56,59.33Z"/><path class="cls-1" d="M87.38,61.15C83.74,64.29,81.25,68.4,78,71.92c-1.59,1.72-3.11,3.45-4.59,5.27-1.15,1.42-2.51,2.91-2.9,4.74a.25.25,0,0,0,.46.19,93.42,93.42,0,0,1,8.42-10.54c2.84-3.31,5.14-7.07,8.48-9.95C88.22,61.35,87.72,60.85,87.38,61.15Z"/><path class="cls-1" d="M92.39,61.25c-4.22,6.59-9.8,12.2-14.9,18.1a.22.22,0,0,0,.31.31c2.9-2.68,5.49-5.88,8.11-8.84a57.14,57.14,0,0,0,7-9.29A.28.28,0,0,0,92.39,61.25Z"/><path class="cls-1" d="M42.61,22.6H42a.09.09,0,0,0,0,.17c.29.11-4.17,8.5-4.55,9.15-1,1.63-2.15,3.18-2.95,4.9-.51,1.1-.74,3.29-1.93,3.82-.19.08-.05.37.14.33,1-.24,1.4-1.28,1.76-2.13a43.93,43.93,0,0,1,3-5.5,49.29,49.29,0,0,0,3.35-6.06A32,32,0,0,1,42.35,24c.36-.64.41-.46.45-1.24A.19.19,0,0,0,42.61,22.6Z"/><path class="cls-1" d="M47.41,25c-1.78,2.71-3.36,5.56-5.2,8.23C41,34.95,39.49,36.8,40,39c.05.24.38.16.4-.05.3-2.81,2-4.76,3.5-7.05s2.65-4.39,4-6.54C48.14,25,47.62,24.7,47.41,25Z"/><path class="cls-1" d="M54.84,21.24c-1.56,3.49-3.38,6.84-5.16,10.22-1.42,2.71-3.91,5.05-4.76,8a.25.25,0,0,0,.45.19c1.55-2.85,3.65-5.31,5.16-8.19C52.24,28.21,54,25,55.48,21.61,55.67,21.18,55,20.81,54.84,21.24Z"/><path class="cls-1" d="M58,23.12c-2.34,3.17-4,6.63-6.14,9.94-.89,1.4-3.17,3.45-2.5,5.28.07.18.36.22.41,0,.49-2.31,2.21-4,3.33-6a80,80,0,0,1,5.52-8.84C58.86,23.11,58.24,22.76,58,23.12Z"/><path class="cls-1" d="M63.63,18.85a53,53,0,0,1-5,9.87c-.86,1.33-1.54,2.77-2.4,4.11a5.18,5.18,0,0,0-1.27,3c0,.22.34.35.44.12a62,62,0,0,1,4.83-8.12,36,36,0,0,0,4-8.78C64.29,18.65,63.76,18.52,63.63,18.85Z"/><path class="cls-1" d="M69.34,21.11c-2.08,1.22-3,3.13-4.18,5.14a35.37,35.37,0,0,1-2.47,3.93c-.53.68-1,1-.89,1.86,0,.2.33.35.43.12a9.56,9.56,0,0,1,1.35-1.9,33.36,33.36,0,0,0,1.9-3.1c1.21-2,2.11-4.17,4.23-5.42A.37.37,0,0,0,69.34,21.11Z"/><path class="cls-1" d="M71,27c0-.31-.53-.32-.5,0A2.16,2.16,0,0,1,70,28.77a.21.21,0,0,0,.29.29A2.28,2.28,0,0,0,71,27Z"/></g></g></svg>