<svg xmlns="http://www.w3.org/2000/svg" viewBox="0 0 55.17 109.13"><defs><style>.cls-1{fill:#4d4d4d;}</style></defs><title>Ресурс 2</title><g id="Слой_2" data-name="Слой 2"><g id="Layer_1" data-name="Layer 1"><path class="cls-1" d="M51.65,15.48C45.92,4.57,33.32-2.42,20.94.78,10.72,2.88,1.65,11.2.22,21.8a27.31,27.31,0,0,0,13.55,27A29.05,29.05,0,0,0,23.14,52a98.48,98.48,0,0,0,1,10.5C21.22,64.95,21.35,70.57,21,74c-.66,7.5,0,15.05.2,22.57.16,3.44-.11,8.8,3.08,11.1,2.46,1.78,8.85,2,11.44.39,3.68-2.27,3.95-8,3.91-11.75a229.35,229.35,0,0,0-1.19-23.16c-.43-3.86-.32-8.87-4-11.12-.32-3.37-.15-6.76-.41-10.14a29.25,29.25,0,0,0,12.33-5.4C56.52,38.73,57.33,26.31,51.65,15.48ZM35.65,75c.6,7.55,1.41,15.62,1,23.18-.16,2.91-.3,5.24-2.86,6.78a7.56,7.56,0,0,1-5.84.67l-.21-.07c.3-.14.6-.3.91-.42a1.16,1.16,0,0,0,.79-1.38,1.13,1.13,0,0,0-1.38-.79,22.2,22.2,0,0,0-2.47,1.14,4.9,4.9,0,0,1-.7-1.31q2.15-1.7,4.46-3.19c1.22-.78.09-2.73-1.14-1.94s-2.58,1.75-3.82,2.7c0-.53-.08-1.07-.09-1.62l4.54-3.12c1.18-.82.06-2.77-1.14-1.94l-3.48,2.4q0-.8,0-1.6a35.21,35.21,0,0,1,4.42-3.58c1.19-.81.07-2.76-1.14-1.94a39.21,39.21,0,0,0-3.39,2.59L24,89a42.73,42.73,0,0,1,4.49-3A1.13,1.13,0,0,0,27.32,84c-1.19.7-2.33,1.47-3.45,2.28q0-.73,0-1.45l4.33-3c1.19-.81.06-2.76-1.14-1.94l-3.25,2.23c0-.48,0-1,0-1.44a1.15,1.15,0,0,0,.29-.22A26.47,26.47,0,0,1,29,76.31c1.21-.79.08-2.73-1.14-1.94a29.23,29.23,0,0,0-4,3.14c0-.6.06-1.2.09-1.79a26.74,26.74,0,0,1,5.36-3.43c1.3-.63.16-2.57-1.14-1.94a28.07,28.07,0,0,0-4,2.39c0-.56.09-1.14.15-1.71a28,28,0,0,1,4.24-2.46c1.31-.61.17-2.55-1.14-1.94A28.08,28.08,0,0,0,24.87,68a5.09,5.09,0,0,1,4.44-4C35.23,63.2,35.33,71,35.65,75ZM31.38,61a11.78,11.78,0,0,0-4.41.2c-.46-2.91-.63-5.88-.82-8.82a31.52,31.52,0,0,0,4.93-.08C31.28,55.19,31.19,58.1,31.38,61Zm-.94-11.63c-12.4,1-24.22-6.61-26.9-19.07S9.36,6.22,21.74,3.67C34.74.31,46.86,9.42,51,21.36,56,36,45,48.23,30.45,49.36Z"/><path class="cls-1" d="M26.34,5.53c-11.19.76-22.58,11-20.74,22.89C7.37,39.8,19.27,47.06,30.18,46.84,42.29,46.59,50.38,38.38,48.69,26,47.16,14.83,37.89,5.19,26.34,5.53ZM44.22,38.47c-3.15,4.51-8.82,6-14,6.12-9.31.19-19.63-5.52-22.05-15-2.79-11,7.8-21.08,18.22-21.78,9.41-.27,17,6.74,19.52,15.63C47.19,28.16,47.16,34.26,44.22,38.47Z"/><path class="cls-1" d="M18.23,13.07A16.47,16.47,0,0,0,9.4,26.43c0,1.66.26,4.19,2.23,4.68a2.86,2.86,0,0,0,3.21-2.16c.42-1.25.26-2.64.63-3.92a12.68,12.68,0,0,1,2.81-4.78c1.47-1.66,3.95-2.54,5.23-4.23a2.77,2.77,0,0,0-.13-3.49C22,11.23,19.61,12.37,18.23,13.07ZM19,16.52a18,18,0,0,0-4.5,5.16,13.32,13.32,0,0,0-1.41,3.64,11.56,11.56,0,0,1-.19,1.22c-.37,1.09-1.25,2.94-1.24-.12A14.06,14.06,0,0,1,17,16.53c.5-.4,4.37-3,4.28-1.6A16.63,16.63,0,0,1,19,16.52Z"/><path class="cls-1" d="M27.21,10.15l0,0-.22.09a3.26,3.26,0,0,0-1,5,3.16,3.16,0,0,0,5-.4A3.35,3.35,0,0,0,31,11.35,2.93,2.93,0,0,0,27.21,10.15Zm1.73,3.65A.88.88,0,0,1,28,14a1,1,0,0,1,0-1.76c.41-.14.7-.16.93.13a1.59,1.59,0,0,1,.27,1.06.27.27,0,0,1,0,.07A1.57,1.57,0,0,1,28.95,13.81Zm.29-.41Z"/></g></g></svg>