<svg xmlns="http://www.w3.org/2000/svg" viewBox="0 0 96.3 99.23"><defs><style>.cls-1{fill:#4d4d4d;}</style></defs><title>Ресурс 3</title><g id="Слой_2" data-name="Слой 2"><g id="Layer_1" data-name="Layer 1"><path class="cls-1" d="M18.78,78.35C21,76,23.42,73.63,25.46,71.06c1-1.2,1.44-2.32.94-3.72a1.15,1.15,0,0,0-1-1c-3.77-1.35-7,3.44-9.35,5.83-3,3.07-7,6.52-8.22,10.7A1.13,1.13,0,0,0,8.1,84C11.9,87.78,16.51,80.75,18.78,78.35Zm-6.12,3.16c-.61.55-2.45,2-2.52,1.72-.28-1.21,2.13-3.56,2.93-4.48,1-1.14,2-2.27,3-3.38s5.94-7.3,8.25-7c-.05,1.89-5.84,7-6.77,8l-3.2,3.37C13.81,80.31,13.27,81,12.66,81.51Z"/><path class="cls-1" d="M23.76,76.83c-2.37,2.49-4.74,5-7,7.55-1.75,1.95-2.87,3-2.53,5.58h0s0,.09,0,.14a.88.88,0,0,0,.53.73C18,93.65,23.5,86.2,25.29,84.3s9-7.89,7.17-11.33C30.3,68.94,25.05,75.47,23.76,76.83ZM16.36,89c.21-2.64,5-6.41,6.61-8.11.92-1,6-7,6.78-6.13C31,76.14,18.55,88.52,16.36,89Z"/><path class="cls-1" d="M88.26,73.1C79,63.77,68.95,55.22,59,46.61q8.79-8.71,17.46-17.56c1.31-1.34,2.6-2.9,4-4.13,2-1.78,3.07-1.48,5.55-2a5.22,5.22,0,0,0,2.18-.63c2.67-1.77,4.64-7.11,6-9.88s1.25-3.33-.91-5.62-3.16-4-6-2.5C84,6.06,78.89,8.18,76.44,11a4.27,4.27,0,0,0-1,1.88q0,1,0,2a7.83,7.83,0,0,1-2.75,4.38c-1.11,1.31-2.49,2.47-3.7,3.69q-8.69,8.67-17.33,17.39C47,36.18,42.4,32,37.94,27.7c4.23-6.19,4.88-14.18.22-20.37C33.29.88,26.64-1,19,.51a1.51,1.51,0,0,0-.9,2.2c1.46,2.45,2.85,4.94,4.24,7.44a27.43,27.43,0,0,0,1.44,2.59,3.51,3.51,0,0,1,.53,1.21c-.49,2.44-1.87,5.06-2.87,7.42l-4.3-.21A12.28,12.28,0,0,0,13.82,21l-.12,0c-2.26-3.52-4.31-7.2-6.44-10.79a1.52,1.52,0,0,0-2.36-.3c-6.26,5.59-6.38,15.89-1.27,22.33C9.54,39.67,18.2,40.46,26.59,38Q33.3,45,40,51.91l-1.51,1.5c-1.8-1.68-3.62-3.34-5.51-4.94a1.54,1.54,0,0,0-2.12,0,17.5,17.5,0,0,0-3.59,4.3c-1.19,2.35-.07,4.72-.94,7.17-.29.89-6,1-7.26,1.58-2.19,1-4.18,3.05-5.92,4.67a78.84,78.84,0,0,0-6.92,7.43C4.65,75.55,1.92,78.09.82,80.36c-1.62,3.35,2,6.16,4.12,8.53,2.8,3.15,6.79,8,10.57,9.86,4.14,2,7-2.79,9.62-5.39,3.89-3.92,8.12-7.83,11.4-12.29a7.78,7.78,0,0,0,1.78-4.13c.33-3.16-1.08-4.49,3.09-5.08,3.72-.52,5.88-2,8.5-4.89a1.53,1.53,0,0,0,0-2.12Q47.63,62.42,45.29,60l1.35-1.31q8.46,8.72,16.92,17.45,4.57,4.7,9.16,9.38c3.07,3.12,6.08,7,10.19,8.68,5.83,2.39,11.51-.92,13.11-6.84S92,76.86,88.26,73.1ZM67.42,27.65c3-3,8.72-6.82,10.06-10.92.34-1.05-.13-3.32.13-3.83.56-1.1,3.45-2.28,4.42-2.86,1.58-1,3.18-1.88,4.78-2.81C88.93,6,89,5.67,90.68,7.39,92,8.75,92.85,9.19,92.43,11c-.36,1.54-1.78,3.3-2.57,4.67S88.32,19,87.19,20s-3,.86-4.54,1.19c-4.41.91-7.47,6-10.5,9.05q-7.39,7.53-14.9,14.94l-3.88-3.38Q60.39,34.7,67.42,27.65Zm-53.9-6.59c-.65.14-.4-.14,0,0ZM45.11,67.43c-2.43,1.74-3.92.94-6.56,1.37s-3.38,1.8-3.44,4.29c0,2.11.54,3.72-.55,5.68s-3.1,3.72-4.62,5.36c-1.86,2-3.77,3.94-5.68,5.88q-1.84,1.86-3.69,3.7c-1.39,1.39-1.37,1.84-3.43,1.56-3.42-.46-7.35-5.53-9.66-8.08C6,85.62,3.6,83.56,4,81.26c.39-2.12,4.46-5.68,5.95-7.4,3.25-3.74,7.82-9.62,13-10.06,2.59-.22,5.34-.13,6.29-3.07.73-2.06,0-3.9.48-5.88A7.72,7.72,0,0,1,32,51.56c5.2,4.51,10.06,9.36,14.79,14.36A12.65,12.65,0,0,1,45.11,67.43Zm-1.41-9Q41.95,56.68,40.16,55l1.45-1.44,3.47,3.58ZM92.59,85.85c-.39,4-2.92,7.08-7.47,6-3.34-.8-5.86-3.94-8.18-6.28C64.73,73.25,52.73,60.72,40.66,48.26l-12.57-13,0,0a1.3,1.3,0,0,0-1.42-.35c-6.82,2.15-13.23,2.46-19-2.74-5.18-4.68-6.3-13.24-1.94-18.68l3.1,5.19c.77,1.28,1.68,4,3,4.84,2.45,1.65,7.77.77,10.67.91a1.54,1.54,0,0,0,1.45-1.1c1-2.63,3.73-7,3.57-9.79-.08-1.32-1.36-2.85-2-3.94Q23.66,6.32,21.8,3.09a14.36,14.36,0,0,1,13.39,5.3C40,14,39,21.53,34.67,27.14A1.5,1.5,0,0,0,34.9,29C47.79,41.54,61.55,53.15,75,65.08c5.41,4.79,11,9.5,15.64,15.05C92.5,82.31,92.9,82.7,92.59,85.85Z"/><path class="cls-1" d="M87.61,80.34c-2-1.48-4.53-.44-6,1.34a1.12,1.12,0,0,0-.24.31,1.06,1.06,0,0,0-.19.47,4.59,4.59,0,0,0,1.68,5.72c2.16,1.29,4.93.31,6.38-1.6C91,84.37,89.6,81.8,87.61,80.34Zm-.47,5.26a2.73,2.73,0,0,1-3,.73,2.35,2.35,0,0,1-.84-3.21c.75-1.06,2.12-1.66,3.2-.78S88.33,84.47,87.13,85.6Z"/></g></g></svg>