<svg xmlns="http://www.w3.org/2000/svg" viewBox="0 0 98.46 77.82"><defs><style>.cls-1{fill:#4d4d4d;}</style></defs><title>Ресурс 4</title><g id="Слой_2" data-name="Слой 2"><g id="Layer_1" data-name="Layer 1"><path class="cls-1" d="M22.6,70.64c4.15.06,8.81.57,9.27-4.5.57-6.18.1-12.68.15-18.9,0-3,1.71-10-2-11.43-2.13-.81-5.61-.41-7.92-.67a46,46,0,0,0-6.7-.21c-4,.12-5.93.34-5.95,4.62,0,6-.54,12.09-.49,18.14-.24,2.79-.7,8.39.86,10.77C12.14,72,19.26,70.6,22.6,70.64Zm-7.71-32.7c3.13-.32,6.2.19,9.29.49,1.32.13,4.05-.35,4.89.69.7.87,0,5.62,0,6.68q0,5.46-.1,10.91,0,3.34-.05,6.68c0,3.7-1.16,4.34-4.95,4.31-2.29,0-7,.81-9.79-.17a16.65,16.65,0,0,0,2.11-2.12c.92-1.11-.67-2.71-1.59-1.59a15.54,15.54,0,0,1-2.32,2.27S12.3,66,12.28,66a10.86,10.86,0,0,1-.53-3.58l3.74-3.24c1.1-.95-.5-2.54-1.59-1.59l-2.08,1.8c0-.62.08-1.19.12-1.65,0-.67,0-1.33,0-2,1.49-1.42,3-2.78,4.65-4.05,1.14-.9-.47-2.48-1.59-1.59s-2,1.63-3,2.49c0-.85.09-1.7.14-2.54l4.1-3.36c1.12-.92-.48-2.5-1.59-1.59L12.38,47c0-.5.06-1,.08-1.51s0-.8,0-1.21l3.58-2.64c1.15-.85,0-2.8-1.14-1.94L12.44,41.5c0-.39,0-.77,0-1.15C12.63,38.24,12.67,38.18,14.89,37.95Z"/><path class="cls-1" d="M40.87,67.82c1.47,3.39,6.12,2.62,9.07,2.54S59.4,71.42,62,69.43s1.22-9.06,1.23-11.86q.05-10.06.1-20.11,0-4.89,0-9.79c0-1.51.49-4.19-.43-5.57-1.59-2.42-7.5-1.6-10-1.88s-8.78-1.16-11.07.55-1.08,8.42-1.14,11c-.16,7-.61,14-.53,21a66.9,66.9,0,0,0,.09,8.63C40.43,63.26,40.08,66,40.87,67.82Zm2.84-44.1c1.4-2.07,9.24-.45,11.21-.23,2.23.25,4.62-.5,5.47,1.47.76,1.75,0,6,0,7.82q0,8.83-.08,17.66,0,4.32,0,8.64c0,1.52.81,6.21-.08,7.49s-8.06,1.25-12,1l3.27-2.36c1.16-.84,0-2.79-1.14-1.94l-5.34,3.85a2.32,2.32,0,0,1-1.43-1.74c2.17-1.64,4.29-3.34,6.35-5.1,1.1-.94-.5-2.53-1.59-1.59-1.6,1.37-3.25,2.69-4.91,4,0-.44,0-.89,0-1.33s0-.91-.07-1.36a41.3,41.3,0,0,1,6.61-5.88c1.17-.83,0-2.78-1.14-1.94a44.54,44.54,0,0,0-5.59,4.7q0-1.18,0-2.36a51.18,51.18,0,0,1,5.64-5.25c1.13-.9-.47-2.49-1.59-1.59a51.2,51.2,0,0,0-4,3.53q0-1.78,0-3.56a30.35,30.35,0,0,1,5.3-4.41c1.21-.79.08-2.74-1.14-1.94a33.32,33.32,0,0,0-4.09,3.16q0-1.39.09-2.79A31.84,31.84,0,0,1,48.84,37c1.19-.81.07-2.76-1.14-1.94a35,35,0,0,0-4.15,3.3q0-.69.05-1.39c0-.49,0-1,0-1.48a24.14,24.14,0,0,1,4.91-4.59c1.18-.82.06-2.77-1.14-1.94a27,27,0,0,0-3.67,3.08c0-.72,0-1.45,0-2.17a28.68,28.68,0,0,1,4.27-3.61c1.19-.81.06-2.77-1.14-1.94a32.35,32.35,0,0,0-3.24,2.55C43.56,25.67,43.41,24.15,43.7,23.72Z"/><path class="cls-1" d="M72.64,65.18c.19,2.42.48,3.89,2.89,4.83s5.47.59,8,.67c3.07.09,6.55.31,9.44-1C96.8,68,95.23,61.62,95.25,58q.06-11.05.11-22.11t.12-22.4c0-3.17,1.64-11-2-12.43-2.57-1-6.52-.6-9.31-.84C81.6,0,77.91-.24,75.41.44,71.42,1.53,73,7.25,73,10.53c-.1,14.06-.79,28.15-.58,42.21A81.3,81.3,0,0,0,72.64,65.18ZM75.88,4.82c.57-2.37,4.83-1.77,7.12-1.66,1.89.09,6.66,0,8.25.73,1.81.84,1.27,2.4,1.26,4.52q0,7.68-.08,15.36-.09,17.85-.18,35.71c0,1.63.67,5.18,0,6.66-1.1,2.4-6.58,1.61-8.71,1.55-1.23,0-2.67.09-4,0,.46-.42.91-.85,1.33-1.31,1-1.07-.61-2.66-1.59-1.59A20.8,20.8,0,0,1,76.88,67a2.71,2.71,0,0,1-.62-.53c1.06-1.18,2.16-2.33,3.32-3.41s-.54-2.58-1.59-1.59c-.89.83-1.73,1.7-2.56,2.59q-.16-1-.24-2.12l3.95-3.25c1.12-.92-.48-2.5-1.59-1.59l-2.45,2c0-.46,0-.91,0-1.37q3-2.22,5.88-4.56c1.12-.91-.48-2.5-1.59-1.59-1.37,1.11-2.76,2.19-4.16,3.25,0-.73.09-1.44.14-2.11,0-.35,0-.71,0-1.06a45.64,45.64,0,0,1,4.78-3.77c1.19-.81.06-2.76-1.14-1.94s-2.48,1.81-3.66,2.78c0-.8,0-1.6,0-2.41,1.37-1,2.74-2.08,4.08-3.17,1.13-.91-.47-2.49-1.59-1.59-.81.66-1.64,1.28-2.47,1.92q0-1.34,0-2.69a39.43,39.43,0,0,1,4.75-3.87c1.18-.82.06-2.77-1.14-1.94a43.7,43.7,0,0,0-3.57,2.78q0-2,.09-4A40.22,40.22,0,0,1,78.91,31a1.16,1.16,0,0,0,.4-1.54,1.13,1.13,0,0,0-1.54-.4q-1.1.82-2.15,1.7c0-.62,0-1.24,0-1.86A50.63,50.63,0,0,1,81,25.36a1.13,1.13,0,0,0-1.14-1.94c-1.41.82-2.77,1.71-4.1,2.66,0-.89,0-1.78.06-2.67v-.3l3.83-3.42c1.08-1-.51-2.55-1.59-1.59l-2.18,2q0-1.69.06-3.38a32.46,32.46,0,0,1,3.25-2.94,1.13,1.13,0,0,0,0-1.59,1.15,1.15,0,0,0-1.59,0c-.56.44-1.09.9-1.62,1.37q0-1.46,0-2.93c1.46-1.1,2.89-2.25,4.26-3.47,1.08-1-.51-2.55-1.59-1.59-.88.79-1.8,1.54-2.72,2.27A10.36,10.36,0,0,1,75.88,4.82Z"/><path class="cls-1" d="M97,74.32c-14.79.57-29.58.63-44.37.33-14-.29-28.06-1.28-42.09-1-1.44,0-4.72.62-5.81-.07-1.3-.83-1.21-4.07-1.27-5.33q-.23-4.71-.35-9.42C3,52.57,3,46.34,3,40.11c.15-12.71.4-25.41.14-38.13,0-1.93-3-1.93-3,0C.48,16,.11,29.92,0,43.89c0,6.65,0,13.29.27,19.94.15,4-1.22,11.08,3.66,12.6,2.51.78,5.64.19,8.22.14,3.63-.07,7.23,0,10.87.11,8,.33,15.92.63,23.89.83,16.7.43,33.4.45,50.09-.2C98.94,77.24,98.95,74.24,97,74.32Z"/></g></g></svg>