<svg xmlns="http://www.w3.org/2000/svg" viewBox="0 0 114.12 108.83"><defs><style>.cls-1{fill:#1a1a1a;}</style></defs><title>6</title><g id="Слой_2" data-name="Слой 2"><g id="OBJECTS"><path class="cls-1" d="M100,34.51A23.41,23.41,0,0,0,88.7,30.83c-1.11-.09-2.22-.16-3.34-.22a22.07,22.07,0,0,0,.9-5.72,74.32,74.32,0,0,0-.7-10.16c-1-5.88-3.36-10.84-9.3-13C73.12.61,69.58.48,66.28.39,62.81.3,59.53-.27,56.09.15,48.43,1.08,40.58,1,32.9,1.8c-7,.73-13.76,1.77-20.69,2.61-6.31.77-6.83,4.07-8.51,9.49C2.62,17.43,1.26,20.56,1,24.28.75,28.65.39,33,.05,37.35c-.27,3.48.57,6.86.49,10.34-.07,3.06-.73,6.88,0,9.87.64,2.62,2.21,3.28,4.59,4a50.46,50.46,0,0,1,4.93,1.81c2,.83,3,.45,2,3.23-1.5,4-2.26,8.15-3.61,12.16C7,83.1,4.41,87,3.31,91.51c-.24,1,.51,2.33,1.68,2.2,5-.56,8.5-6.21,11.15-10A29.37,29.37,0,0,0,20,76a27.77,27.77,0,0,1,1.94-4.14c1.41-2.57,1.62-3.73,4.72-3.73l.22,0c.48,5.15,1.73,8.8,5.22,12.83,7.37,8.52,18.36,10.76,29.17,11.67,3.44.29,6.87.48,10.31.71,2.32.15,3.54.29,4.61,2.46.67,1.35,1.22,2.75,1.94,4.07,2.27,4.19,6.58,8.39,11.52,9,1,.12,1.84-1,1.88-1.88.11-2.56-1.16-4.67-1.63-7.16a41.15,41.15,0,0,1-.27-4.41c-.1-1.15-.92-2.42-.88-3.48.1-2.25,3-2.85,5-3.87,2.39-1.22,4.73-2.67,7.07-4,4.85-2.73,7.37-5.58,9.91-10.41a30.53,30.53,0,0,0,3.36-13.78C114.25,49.66,108.13,40.14,100,34.51ZM17.6,73c-1.32,3.19-2.3,6.21-4.35,9.06-1.19,1.65-3.14,4.93-5.37,6.79,1.91-5.17,4.33-10.11,5.83-15.51.83-3,4.54-9.05,1.86-11.93-1.29-1.39-3.73-1.36-5.42-1.95-1-.36-2-.89-3-1.19C4.9,57.67,4.29,57.19,4,54.54s.18-5.72.14-8.46C4,42.25,3.5,38.77,3.84,34.9c.26-3.05.24-6.12.49-9.18.32-4,1.51-7.17,2.66-10.92.62-2,.78-3.66,2.21-5.27S11.7,7.87,14,7.67c2.51-.23,5-.43,7.5-.72,3-.34,5.86-1,8.87-1.33,3.84-.37,7.71-.3,11.53-.7,5.86-.62,12-1.81,17.88-1.54,7.6.35,19.37-.66,21.82,8.61,1.56,5.9,1.75,12.43,1.45,18.49a45.67,45.67,0,0,1-4.78-.53,15.15,15.15,0,0,0-6-.09,64.42,64.42,0,0,0-14.7,1.54c-5.86,1.32-11.87,3.11-16.87,6.55a29.41,29.41,0,0,0-5.79,4.66C33,44.86,32,48,30.61,50.56A30.45,30.45,0,0,0,26.7,64.7h-.07C20.63,64.94,19.64,68.1,17.6,73Zm85.68,5c-5.26,4.64-12.54,6.36-18,10.57a1.87,1.87,0,0,0-.83,2A33.63,33.63,0,0,1,86,99.17a30.11,30.11,0,0,0,1.34,4.9,16.79,16.79,0,0,1-5.24-4.93c-1.49-2.38-2.2-5.27-3.93-7.48a5,5,0,0,0-3.84-2.2c-3.42-.37-7-.27-10.43-.6-7.38-.7-14.25-1.13-21.09-4.36-5-2.37-10.62-7.16-11.76-12.79a31.6,31.6,0,0,1-.13-11.44c.62-4,2.43-6.87,4.14-10.4a21.54,21.54,0,0,1,7.4-8.95,35.59,35.59,0,0,1,9.11-4.47A66.67,66.67,0,0,1,73.29,33c2.47,0,4.83.35,7.24.53.94.18,1.89.36,2.86.51,3.45.55,6.86.52,10.19,1.68,7.58,2.63,13.43,9.54,15.88,17.19C112,60.84,109.74,72.27,103.28,78Z"/><path class="cls-1" d="M24.09,14.47c-1.6-.86-4.84-.17-6.41.49-2.2.92-2.54,2.64-2.45,4.88a84.41,84.41,0,0,0,1.69,11.79c.78,4.13.74,8.44,1.47,12.57a1.4,1.4,0,0,0-.16,2.08l.21.21a1,1,0,0,0,1.17.15c.08,0,1,.29,1.54,0,.88-.5,1-1.27,1.31-2.13,1.18-3.39.68-8.16,1.06-11.71.44-4.18,1.55-8.18,2.1-12.32C25.87,18.57,26.15,15.58,24.09,14.47Zm-1.71,7.18c-.53,2.36-1.2,4.67-1.52,7.08-.11.82-.36,4.94-.68,8.68a54.33,54.33,0,0,0-.64-5.73c-.46-2.86-3.8-15,1.39-14.47,1.22.14,1.1-.94,1.95,1C23.26,19.11,22.57,20.8,22.38,21.65Z"/><path class="cls-1" d="M21.54,51.54a2.58,2.58,0,0,0-4.17,2,2.76,2.76,0,0,0,.08.94,2.2,2.2,0,0,0,1,1.21,1.09,1.09,0,0,0,.43.16l.06.06,0,0h0a1.74,1.74,0,0,0,.56.44,2.11,2.11,0,0,0,2.09,0,2.76,2.76,0,0,0,1.21-1.56A3,3,0,0,0,21.54,51.54Z"/><path class="cls-1" d="M80.93,44.61a.63.63,0,0,0-.06-.36c-4.27-8.8-20.53-2.72-23,4.91C56.75,52.53,59,56.34,62.74,56c1.93-.17,4.08-1.36,5.8-2.27,1-.5,1.87-1.11,2.83-1.6a8.5,8.5,0,0,1,2.31-1.05l.85-.25.61,3.42c-.91,1.41-6,1.09-7.75,2.33a7.75,7.75,0,0,0-2.92,5.31c-.61,3.72-.2,10.73,2.66,13.52,2.09,2,5.37.65,6.87-1.51,2.1-3-2.65-9.24.46-11.1,1.16-.7,3.64-.3,5.09-.67a9.23,9.23,0,0,0,3.79-1.72,6.88,6.88,0,0,0,2.23-5C86,50.19,84.37,46.93,80.93,44.61Zm-6,15.16c-3,.55-4.51,1.89-4.43,5.06a33.59,33.59,0,0,0,.92,4.92c.17,1-.11,3.81-1.81,3.78-1.28,0-2.28-6.85-2.34-8-.22-4.38.71-6.43,5.25-7.51,3.25-.78,7.76-2.46,6.85-6.75-.58-2.73-3-3.66-5.55-3.15-3.11.62-6.4,4.42-9.41,4.41-6.9,0-2.46-4.73-1-6a14.54,14.54,0,0,1,5.53-2.76A18,18,0,0,1,76,42.63a1.48,1.48,0,0,0-.08,2.51c3.67,2,6.89,3.64,6.69,8.57C82.33,59.26,79.17,59,74.89,59.76Z"/><path class="cls-1" d="M75.25,79.73a2.27,2.27,0,0,0-2.12-1.17c-1,.05-1.56.7-2.37,1.09a1.38,1.38,0,0,1-.21-.34A1,1,0,0,0,69.23,79c-1,.56-2,.9-2.55,2a3.35,3.35,0,0,0,.73,3.58c1.64,1.78,4.44,1.5,6.52.73C76.4,84.4,76.47,81.81,75.25,79.73ZM73.53,82c-.09.47-.17.4-.66.55-.82.26-2.17.72-3,.29-1.11-.58-.41-1.38.19-2a1.15,1.15,0,0,0,.69-.18l.06,0a11.6,11.6,0,0,0,1.32.16,7.67,7.67,0,0,1,1.08-.07s.09.14.13.24A1.94,1.94,0,0,1,73.53,82Z"/><path class="cls-1" d="M13.45,12.67c-.77,1.56-2,2.89-2.86,4.38A61.34,61.34,0,0,1,6.9,22.18a24.06,24.06,0,0,0-2.2,4.09,32.29,32.29,0,0,0-1.93,3.9.12.12,0,0,0,.23.1,82.91,82.91,0,0,1,5.79-9.59,43.52,43.52,0,0,0,2.54-4.13,23.44,23.44,0,0,0,2.25-3.81A.07.07,0,0,0,13.45,12.67Z"/><path class="cls-1" d="M13.31,19.53a47.67,47.67,0,0,1-3.06,6.41c-.84,1.56-1.47,3.26-2.39,4.77C5.83,34,2.6,36.2,1.51,40.15c0,.15.19.26.26.11a30.41,30.41,0,0,1,4-6,20.25,20.25,0,0,0,3.12-4.12c1.67-3.38,3.78-6.85,4.83-10.48C13.78,19.38,13.4,19.28,13.31,19.53Z"/><path class="cls-1" d="M13.26,29.43a59.8,59.8,0,0,1-6.17,9.39C5.78,40.52,4.16,42.33,4,44.56c0,.15.25.19.27,0C4.64,42,7,39.94,8.48,38a54.41,54.41,0,0,0,5.28-8.24C13.93,29.39,13.43,29.09,13.26,29.43Z"/><path class="cls-1" d="M15.18,35c-1.89,2.08-3.17,4.54-4.76,6.84-2,2.83-4.25,5.54-6.38,8.25a.15.15,0,0,0,.21.21c4.84-4,7.18-10.3,11.34-14.89C15.84,35.12,15.43,34.71,15.18,35Z"/><path class="cls-1" d="M15.77,40.12c-1.26,3-3.43,5.34-5.36,7.9-1.7,2.25-2.68,4.86-4.52,7-.13.15,0,.43.23.29,2.29-1.64,3.08-4.8,4.74-7,2-2.62,4.13-5,5.4-8.07C16.38,40,15.89,39.83,15.77,40.12Z"/><path class="cls-1" d="M16.94,44.38c-2,3.35-4.45,6.41-6.16,9.9-.94,1.93-2.26,5.83-4.24,7a.19.19,0,0,0,.14.34c1.85-.49,3.2-3.68,4-5.23,2-4.1,4.62-7.7,6.93-11.62A.37.37,0,0,0,16.94,44.38Z"/><path class="cls-1" d="M23.28,45C20.63,48,18,51.16,15.54,54.39a29.63,29.63,0,0,0-3.24,4.68c-.6,1.2-1.71,2.28-2,3.56a.14.14,0,0,0,.26.11c.75-1.25,1.65-2,2.32-3.36a28.83,28.83,0,0,1,3.22-4.65c2.46-3.19,5-6.27,7.67-9.33C24,45.1,23.55,44.65,23.28,45Z"/><path class="cls-1" d="M28.15,45.71c-1.62,4-5.75,6-8,9.57a15.49,15.49,0,0,1-2.51,2.82,3.9,3.9,0,0,0-1,1.27c-.32.7-.43,1.49-.81,2.17-.52.92-1.11,1.29-1.4,2.3-.1.35.35.48.54.23a18.41,18.41,0,0,0,1.74-2.33,25.49,25.49,0,0,1,.92-2.43c.53-.78,1.54-1.14,2.13-1.91s1-1.72,1.62-2.52c2.39-3.13,5.89-5.2,7.41-9C29,45.48,28.33,45.29,28.15,45.71Z"/><path class="cls-1" d="M29.52,50.57c-2.72,3.25-5.33,6.62-8.34,9.62-1.86,1.85-5.08,4-5.35,6.85,0,.23.3.23.37,0,1.28-3.22,4.7-5.49,7-8S27.79,53.79,30,51C30.24,50.71,29.79,50.24,29.52,50.57Z"/><path class="cls-1" d="M53.32,34.52c-.42,1.7-2.71,3.13-3.92,4.36A62.39,62.39,0,0,1,44,43.73c-3.64,2.93-6.55,7-9.78,10.36-.53.56-1.15,1.16-1.78,1.8.1-.17-.13-.38-.32-.24-4.45,3.6-8,8.31-11.84,12.52a.16.16,0,0,0,.23.23c4.27-3.75,7.31-8.67,11.72-12.3-1.53,1.58-3.05,3.39-3.43,5.4-.29,1.51.69,1.47,1.68.64.13-.11,0-.27-.16-.21-1.82.84-.16-2.19.15-2.65a37.39,37.39,0,0,1,4.19-4.74c2.47-2.56,4.74-5.26,7.14-7.88s5.3-4.56,7.75-7.09c1.25-1.29,4.06-3,4.11-5A.17.17,0,0,0,53.32,34.52Z"/><path class="cls-1" d="M37.12,35.74c-1.73,3.66-4.4,6.33-6.87,9.46-1.23,1.56-3.54,3.52-3.79,5.6,0,.2.29.23.34,0,.4-1.48,1.66-2.43,2.58-3.57,1.12-1.39,2.18-2.8,3.35-4.15a25,25,0,0,0,4.65-7.27C37.44,35.7,37.19,35.59,37.12,35.74Z"/><path class="cls-1" d="M45.79,30c-2.71,2.69-5.3,5.56-7.82,8.42A33.33,33.33,0,0,0,35.33,42c-.93,1.38-1.53,3.06-2.6,4.31a.2.2,0,0,0,.24.31c1-.55,1.28-1.55,1.82-2.53a33.11,33.11,0,0,1,3.34-4.91c2.51-3,5.28-6,8.05-8.77A.28.28,0,0,0,45.79,30Z"/><path class="cls-1" d="M50.14,28.74a17.44,17.44,0,0,0-1.8,2.64,13.18,13.18,0,0,1-3.26,3.16c-1.56,1.26-2.36,3.29-4.2,4.22-.22.11-.06.44.16.39,2-.46,2.92-2.87,4.38-4.09a18.16,18.16,0,0,0,2.69-2.27c.93-1.14,1.45-2.53,2.45-3.63C50.83,28.88,50.41,28.45,50.14,28.74Z"/><path class="cls-1" d="M49.92,34.83c-.05-.39-.24-1.15-.64-1.35s-1.05.18-1.37.37a8.91,8.91,0,0,0-1.44,1.2c-.19.18.09.45.28.28.5-.47,1.51-1.62,2.29-1.44s.54,1.94.58,2.55a.12.12,0,0,0,.24,0A4.41,4.41,0,0,0,49.92,34.83Z"/><path class="cls-1" d="M49.47,41.8c-2.21,2.49-4.52,4.88-6.69,7.39-2,2.3-3.7,4.81-5.72,7.08a35.08,35.08,0,0,0-4.51,6.56c-.91,1.63-3.09,3.12-1.81,5,.17.25.65.1.53-.22-.23-.62.57-2.09.9-2.69s.72-1.11,1-1.69c.57-1,1.05-2.1,1.69-3.08,1.27-2,3-3.54,4.43-5.38,3.36-4.35,7-8.33,10.66-12.44C50.3,42,49.79,41.45,49.47,41.8Z"/><path class="cls-1" d="M49.45,48.76c-6,8.86-14.64,15.67-19.35,25.44a.41.41,0,0,0,.24.59,1.73,1.73,0,0,0,1.35,0c.27-.08.19-.43-.06-.46l-.6-.16a53.77,53.77,0,0,1,9.24-13.07A74.27,74.27,0,0,0,50,49.1C50.26,48.74,49.68,48.41,49.45,48.76Z"/><path class="cls-1" d="M48.85,57.52c-2,4.06-5.59,7.55-8.45,11a37.24,37.24,0,0,0-3.08,4.55c-1,1.67-2.29,3.05-3,4.88-.17.43.47.62.7.29l.48-.44a.19.19,0,0,0-.07-.35c.76-1.4,1.77-2.6,2.59-4a50.33,50.33,0,0,1,4.27-6.08c2.47-3,5.4-6,7.1-9.59C49.53,57.48,49,57.18,48.85,57.52Z"/><path class="cls-1" d="M51.45,62.41c-1.9,1.46-3.13,4-4.49,5.91-2,2.88-4.54,5.28-6.67,8.06-.93,1.22-5.11,5.49-3.21,7,.25.19.62-.13.53-.41l-.11-.35a.26.26,0,0,0-.11-.14c-.19-1.88,5.57-8,6.16-8.66a50.54,50.54,0,0,0,4-5.11c1.27-1.82,2.5-4.42,4.26-5.79C52.08,62.68,51.73,62.2,51.45,62.41Z"/><path class="cls-1" d="M53.25,68.06c-2.71,2.32-4.5,5.75-6.64,8.58-1,1.34-1.76,2.74-2.9,4a14.53,14.53,0,0,0-2.28,3.8.21.21,0,0,0,.33.25c1.25-1,1.82-2.76,2.94-4a26.5,26.5,0,0,0,2.17-3.2c.92-1.33,2-2.52,2.86-3.87a22.89,22.89,0,0,1,4-5.11C54,68.25,53.57,67.78,53.25,68.06Z"/><path class="cls-1" d="M54.46,75.51c-1.93,2.14-3.89,4.26-5.84,6.38-1.35,1.47-2.82,3-3.38,4.92a.38.38,0,0,0,.37.48H46a.28.28,0,0,0,.14-.51c-.6-.37,8.09-9.85,8.88-10.73C55.33,75.69,54.79,75.14,54.46,75.51Z"/><path class="cls-1" d="M58.8,76.23a52.63,52.63,0,0,1-5.66,6.88c-1.48,1.47-2.32,4-4.16,4.94a.25.25,0,0,0,.19.46c2.1-.57,2.82-3.2,4.21-4.65a63.87,63.87,0,0,0,6-7.28C59.67,76.22,59.06,75.87,58.8,76.23Z"/><path class="cls-1" d="M60.7,80.62a46.33,46.33,0,0,1-4.56,5.75c-.74.85-2.17,1.92-2.21,3.15,0,.19.23.21.32.09,2.21-3,5-5.51,7-8.67C61.46,80.6,60.92,80.28,60.7,80.62Z"/><path class="cls-1" d="M66.4,80c-1.68,1.46-2.7,3.48-4.36,5-.94.84-2.55,1.81-2.5,3.25a.25.25,0,0,0,.24.24l.56,0c.19,0,.21-.26,0-.32-.91-.31,2.48-3.19,2.81-3.55,1.25-1.37,2.17-3,3.59-4.22C67,80.12,66.66,79.74,66.4,80Z"/><path class="cls-1" d="M68.94,84.38l-.6.65a.18.18,0,0,0,.25.25l.65-.6C69.44,84.49,69.13,84.18,68.94,84.38Z"/></g></g></svg>