<?xml version="1.0" standalone="no"?>
<!DOCTYPE svg PUBLIC "-//W3C//DTD SVG 20010904//EN"
 "http://www.w3.org/TR/2001/REC-SVG-20010904/DTD/svg10.dtd">
<svg version="1.0" xmlns="http://www.w3.org/2000/svg"
 width="198.000000pt" height="198.000000pt" viewBox="0 0 198.000000 198.000000"
 preserveAspectRatio="xMidYMid meet">
<metadata>
Created by potrace 1.11, written by Peter Selinger 2001-2013
</metadata>
<g transform="translate(0.000000,198.000000) scale(0.100000,-0.100000)"
fill="#000000" stroke="none">
<path d="M826 1669 c-71 -17 -164 -70 -221 -127 -180 -181 -179 -464 2 -647
49 -50 148 -109 198 -119 11 -3 38 -8 60 -13 60 -12 113 -9 205 13 14 3 31 6
38 6 6 1 12 5 12 10 0 5 4 7 9 4 5 -3 14 1 21 10 7 8 19 13 27 10 8 -3 12 -2
9 3 -6 9 22 26 37 22 5 -1 6 3 2 9 -3 5 6 15 20 20 14 5 23 14 20 20 -3 5 1
10 9 10 9 0 16 6 16 13 0 8 11 24 24 36 13 13 27 34 30 47 4 13 14 24 24 25 9
0 12 3 5 5 -8 4 -9 13 -1 35 5 16 13 29 17 29 4 0 6 14 5 30 -1 17 1 32 5 34
7 5 5 105 -4 160 -11 60 -73 172 -125 225 -114 115 -289 166 -444 130z m384
-364 l0 -186 -28 15 c-52 27 -497 288 -506 297 -11 10 -16 49 -6 49 4 0 110
-61 237 -135 127 -74 236 -136 243 -137 10 -2 14 30 15 137 1 77 3 141 4 143
0 1 10 2 21 2 19 0 20 -7 20 -185z m-505 75 c6 -5 26 -17 45 -28 19 -10 91
-52 160 -92 69 -40 150 -86 180 -103 30 -17 57 -33 60 -37 3 -3 17 -11 33 -19
18 -10 27 -22 27 -38 0 -13 -2 -23 -5 -23 -4 0 -148 82 -195 110 -21 13 -118
69 -155 89 -133 72 -191 114 -191 136 0 22 14 24 41 5z m72 -124 c13 -6 23
-14 23 -18 0 -5 6 -8 13 -8 6 -1 98 -51 202 -113 147 -87 191 -117 193 -135 2
-12 -2 -22 -8 -22 -6 0 -52 25 -102 55 -50 30 -92 55 -94 55 -2 0 -33 18 -69
40 -36 22 -67 40 -69 40 -2 0 -37 20 -77 44 l-74 45 -3 -145 c-2 -142 -3 -144
-25 -144 -22 0 -22 0 -22 184 l0 184 45 -26 c25 -14 55 -30 67 -36z"/>
<path d="M22 652 l-22 -3 2 -171 3 -171 28 -1 c31 -2 29 -9 28 149 -1 113 -8
116 84 -35 67 -111 77 -120 112 -111 l26 7 0 139 c-1 212 2 195 -33 195 l-30
0 0 -122 c-1 -97 -3 -119 -12 -103 -6 11 -14 22 -18 25 -3 3 -10 12 -14 20
-23 50 -108 179 -119 182 -7 2 -22 2 -35 0z"/>
<path d="M890 652 c-8 -3 -45 -35 -82 -73 -37 -38 -70 -69 -73 -69 -3 0 -5 8
-4 18 1 9 1 41 0 70 -1 52 -1 52 -33 52 l-33 0 2 -162 c2 -195 -1 -175 22
-181 33 -8 44 8 44 66 -1 46 3 59 22 75 l23 21 53 -77 c29 -42 53 -78 54 -80
5 -6 66 -8 70 -2 3 4 -26 51 -64 105 l-69 97 21 21 c12 12 25 21 30 19 4 -1 6
2 5 7 -2 5 14 24 35 44 20 20 37 38 37 40 0 7 -44 14 -60 9z"/>
<path d="M1104 643 c-2 -7 -6 -20 -9 -28 -3 -12 5 -15 38 -16 23 -1 49 -2 57
-3 13 -1 15 -24 15 -141 l0 -140 25 -6 c14 -3 28 -4 33 -2 4 3 7 61 6 131 0
70 0 135 0 145 1 15 10 17 56 16 30 -1 58 1 62 4 3 4 2 7 -4 7 -6 0 -9 9 -6
20 4 16 0 20 -18 20 -231 5 -252 4 -255 -7z"/>
<path d="M1419 645 c-1 -5 -2 -83 -3 -172 -2 -157 -1 -163 19 -164 11 -1 59
-1 107 -1 48 -1 85 -4 83 -8 -3 -5 6 -3 20 3 23 11 37 56 18 58 -5 0 -47 1
-95 1 -94 1 -90 -1 -90 58 0 11 0 24 1 28 1 5 39 9 86 8 l85 -1 0 28 c0 29 5
28 -97 29 -67 0 -87 11 -73 38 7 13 7 21 0 25 -24 15 4 22 83 22 93 0 106 4
104 33 -1 17 -9 20 -47 20 -25 1 -80 2 -123 3 -45 1 -78 -2 -78 -8z"/>
<path d="M437 643 c-10 -16 -127 -326 -125 -329 7 -6 67 -11 66 -6 -2 4 4 23
11 42 8 19 14 38 13 41 0 3 30 6 68 6 l69 1 12 -36 c15 -47 23 -55 54 -57 31
-1 33 18 6 78 -10 23 -24 58 -31 77 -7 19 -21 54 -31 78 -11 23 -21 50 -23 60
-8 41 -18 52 -51 52 -19 0 -36 -3 -38 -7z m38 -83 c-3 -5 -2 -10 3 -10 10 0
35 -79 30 -94 -4 -11 -46 -15 -70 -7 -16 6 -16 9 -3 34 15 28 15 30 15 48 0 5
6 7 13 3 9 -6 9 -5 0 8 -13 15 -8 28 9 28 5 0 6 -4 3 -10z"/>
<path d="M995 481 l0 -169 33 -4 c31 -4 32 -3 33 32 1 45 1 293 0 303 -1 4
-16 7 -33 7 l-33 0 0 -169z"/>
<path d="M1719 633 c0 -10 -1 -85 -2 -166 -2 -124 1 -150 13 -156 8 -3 47 -6
87 -5 50 0 70 -3 66 -10 -4 -6 1 -5 10 3 9 7 28 11 42 9 22 -5 24 -2 21 25
l-3 30 -84 1 -84 1 -1 46 c-1 26 -4 51 -8 58 -4 6 -4 11 1 11 7 0 8 55 4 158
-1 7 -14 12 -31 12 -22 0 -30 -5 -31 -17z"/>
</g>
</svg>
