<?xml version="1.0" encoding="UTF-8" standalone="no"?>
<svg width="800px" height="1000px" viewBox="0 0 800 1000" version="1.1" xmlns="http://www.w3.org/2000/svg" xmlns:xlink="http://www.w3.org/1999/xlink">
    <!-- Generator: Sketch 50.2 (55047) - http://www.bohemiancoding.com/sketch -->
    <title>holdingsign_0001_DL</title>
    <desc>Created with Sketch.</desc>
    <defs></defs>
    <g id="holdingsign_0001_DL" stroke="none" stroke-width="1" fill="none" fill-rule="evenodd">
        <g id="logo-footer" transform="translate(50.000000, 907.000000)">
            <g id="logo" stroke-width="1" fill="#000000">
                <path d="M22.6934388,15.0316664 L22.6934618,15.0316568 C24.8540713,14.125507 27.8150617,14.1839247 30.9241771,14.9082707 C36.9845962,16.3204451 41.9619502,21.5064706 41.7115946,27.0189937 C41.2068812,38.153553 27.364354,46.2112467 18.9772966,38.232092 C14.9642137,34.4140282 14.2194926,29.7032983 16.2924593,24.079381 C16.5230095,23.4556991 17.0218953,22.3638417 17.504613,21.609055 C17.8990211,20.9923509 18.2694725,20.5968403 18.6858348,20.461781 C19.3399419,20.2496022 19.8246592,20.6931146 20.0757675,21.546582 C20.1972365,21.9595166 20.0384374,22.2974069 19.6891545,22.7113641 C19.6345871,22.7760354 19.5832938,22.8337164 19.4944641,22.9315608 C19.2600186,23.1897983 19.1811818,23.2867499 19.1413061,23.3702534 C18.5369963,24.6368708 18.0271956,26.2160344 17.6275809,27.9407514 C16.4561885,32.9977698 18.8129728,37.4217163 23.802912,38.8960497 C29.1341919,40.4715099 35.2467476,37.4833282 37.5113922,32.4534374 C40.079836,26.7508533 39.7580937,22.4471852 35.6756452,19.1828931 C31.0107515,15.4529094 24.2860993,15.4389598 20.8518667,19.712373 L20.615264,20.0067914 L20.2673823,19.8596814 C19.0047929,19.3257653 19.026203,18.2039119 19.937096,17.0846287 C20.6022272,16.2673318 21.7434415,15.4301465 22.6934388,15.0316664 Z" id="Fill-4" stroke="#000000" stroke-linecap="round"></path>
                <g id="Group-132" transform="translate(22.214577, 0.000813)">
                    <path d="M7.97488966,7.4513341 C8.05946614,7.04580446 8.16038126,6.43751001 8.31511778,5.84805164 C8.64765713,4.5705225 8.88408684,3.29520937 8.88024245,1.94011991 C8.87928136,1.34512152 8.59191354,0.405533734 9.47323892,0.190580869 C10.2276996,0.00665212852 11.0302151,-0.0952842818 11.607834,0.709126956 C11.9490232,1.18224486 12.2892513,1.68195487 12.5122257,2.23374109 C13.2964803,4.18050493 12.2411965,7.98871626 10.650582,9.09893673 C9.44536713,9.93991211 8.00564474,9.16430899 7.97488966,7.4513341" id="Fill-103"></path>
                    <path d="M3.80382745,4.09164297 C3.6856126,5.05228284 3.53568156,6.0107067 3.45783276,6.97688659 C3.35595654,8.23668766 2.54479119,8.79179789 1.72497597,9.24607972 C1.01664794,9.64052931 0.348685949,9.47543664 0.1756886,8.39291629 C-0.218360918,5.92871437 0.142050227,3.47448449 0.366946781,1.03687468 C0.469784094,-0.0877498515 1.84319083,-0.334834846 2.77929871,0.479548432 C3.60295831,1.19753532 3.85572666,2.12825907 3.80382745,4.09164297" id="Fill-107"></path>
                </g>
                <path d="M20.2634362,30.3053657 C16.5080524,32.7713726 11.5871517,36.3128002 7.87403308,38.8239106 C6.7950284,39.5539578 5.96613752,39.9141475 4.97166316,40.7281081 C4.02069706,41.5064055 2.93469704,42.0220626 2.14036065,41.3224341 C1.32364858,40.6028761 0.441341274,40.2694166 1.12877167,39.032742 C1.7403734,37.9313777 2.4580647,37.848449 3.75709683,37.2946201 C6.32284067,36.2005983 10.2382439,33.2542987 12.5155902,31.7585412 C13.2154515,31.298066 14.453267,30.3287667 15.0586532,29.7843781 C16.647326,28.3547025 16.2987261,27.948748 14.5086723,26.5767629 C11.3537024,24.1569083 7.45589768,21.4520095 4.27606592,19.0552311 C3.46184004,18.4426628 2.6239954,17.850024 1.85327777,17.2007436 C-0.250035497,15.4312184 0.12466323,13.523236 3.0198267,12.803678 C3.68612452,12.6379489 4.17963243,12.8215096 4.53018464,13.3029631 C7.44896688,17.3171735 12.714215,20.4522663 16.8387974,23.4112648 C18.2472217,24.4213732 19.3299145,25.5110619 21.3089184,25.9610478 C22.3767353,26.2033479 22.0870946,27.1903801 22.2002161,28.3525816 C22.3531165,29.0941668 21.2566675,29.6529385 20.2634362,30.3053657 Z" id="chevron" transform="translate(11.366064, 27.198133) rotate(-2.000000) translate(-11.366064, -27.198133) "></path>
            </g>
            <path d="M66.1285417,20.732 L62.2045417,20.732 L62.2045417,32 L60.7105417,32 L60.7105417,20.732 L56.7865417,20.732 L56.7865417,19.4 L66.1285417,19.4 L66.1285417,20.732 Z M76.1810123,26.222 L70.1330123,26.222 L70.1330123,32 L68.6390123,32 L68.6390123,19.4 L70.1330123,19.4 L70.1330123,24.89 L76.1810123,24.89 L76.1810123,19.4 L77.6750123,19.4 L77.6750123,32 L76.1810123,32 L76.1810123,26.222 Z M81.3914829,19.4 L88.2494829,19.4 L88.2494829,20.732 L82.8854829,20.732 L82.8854829,24.854 L87.7994829,24.854 L87.7994829,26.186 L82.8854829,26.186 L82.8854829,30.668 L88.3394829,30.668 L88.3394829,32 L81.3914829,32 L81.3914829,19.4 Z M97.158424,19.4 C97.3864252,19.3639998 97.6414226,19.3370001 97.923424,19.319 C98.2054255,19.3009999 98.4994225,19.289 98.805424,19.283 C99.1114256,19.277 99.4114226,19.271 99.705424,19.265 C99.9994255,19.259 100.272423,19.256 100.524424,19.256 C101.532429,19.256 102.40542,19.4119984 103.143424,19.724 C103.881428,20.0360016 104.490422,20.4709972 104.970424,21.029 C105.450426,21.5870028 105.807423,22.2559961 106.041424,23.036 C106.275425,23.8160039 106.392424,24.6739953 106.392424,25.61 C106.392424,26.4620043 106.281425,27.2809961 106.059424,28.067 C105.837423,28.8530039 105.486426,29.548997 105.006424,30.155 C104.526422,30.761003 103.902428,31.2469982 103.134424,31.613 C102.36642,31.9790018 101.43643,32.162 100.344424,32.162 C100.152423,32.162 99.9034256,32.159 99.597424,32.153 C99.2914225,32.147 98.9764257,32.1350001 98.652424,32.117 C98.3284224,32.0989999 98.0284254,32.0840001 97.752424,32.072 C97.4764227,32.0599999 97.2784246,32.0420001 97.158424,32.018 L97.158424,19.4 Z M100.560424,20.588 L100.047424,20.588 C99.8614231,20.588 99.6784249,20.5939999 99.498424,20.606 C99.3184231,20.6180001 99.1534248,20.6299999 99.003424,20.642 C98.8534233,20.6540001 98.7364245,20.6659999 98.652424,20.678 L98.652424,30.758 C98.7124243,30.7700001 98.8264232,30.779 98.994424,30.785 C99.1624249,30.791 99.3364231,30.797 99.516424,30.803 C99.6964249,30.809 99.8704232,30.815 100.038424,30.821 C100.206425,30.827 100.320424,30.83 100.380424,30.83 C101.220428,30.83 101.925421,30.6860014 102.495424,30.398 C103.065427,30.1099986 103.521422,29.7230024 103.863424,29.237 C104.205426,28.7509976 104.448423,28.1930032 104.592424,27.563 C104.736425,26.9329969 104.808424,26.2820034 104.808424,25.61 C104.808424,25.0219971 104.742425,24.431003 104.610424,23.837 C104.478423,23.242997 104.250426,22.7060024 103.926424,22.226 C103.602422,21.7459976 103.167427,21.3530015 102.621424,21.047 C102.075421,20.7409985 101.388428,20.588 100.560424,20.588 Z M109.064895,25.7 C109.064895,23.5999895 109.50889,21.9890056 110.396895,20.867 C111.284899,19.7449944 112.550886,19.184 114.194895,19.184 C115.082899,19.184 115.850891,19.3399984 116.498895,19.652 C117.146898,19.9640016 117.683893,20.4049971 118.109895,20.975 C118.535897,21.5450029 118.850894,22.228996 119.054895,23.027 C119.258896,23.825004 119.360895,24.7159951 119.360895,25.7 C119.360895,27.8000105 118.913899,29.4109944 118.019895,30.533 C117.12589,31.6550056 115.850903,32.216 114.194895,32.216 C113.31889,32.216 112.559898,32.0600016 111.917895,31.748 C111.275891,31.4359984 110.741897,30.9950028 110.315895,30.425 C109.889893,29.8549971 109.574896,29.171004 109.370895,28.373 C109.166894,27.574996 109.064895,26.6840049 109.064895,25.7 Z M110.648895,25.7 C110.648895,26.3960035 110.717894,27.0559969 110.855895,27.68 C110.993895,28.3040031 111.206893,28.8529976 111.494895,29.327 C111.782896,29.8010024 112.151892,30.1789986 112.601895,30.461 C113.051897,30.7430014 113.582892,30.884 114.194895,30.884 C115.3109,30.884 116.186891,30.4610042 116.822895,29.615 C117.458898,28.7689958 117.776895,27.4640088 117.776895,25.7 C117.776895,25.0159966 117.707895,24.3590032 117.569895,23.729 C117.431894,23.0989969 117.215896,22.5470024 116.921895,22.073 C116.627893,21.5989976 116.255897,21.2210014 115.805895,20.939 C115.355892,20.6569986 114.818898,20.516 114.194895,20.516 C113.090889,20.516 112.223898,20.9389958 111.593895,21.785 C110.963891,22.6310042 110.648895,23.9359912 110.648895,25.7 Z M122.033365,25.7 C122.033365,23.5999895 122.477361,21.9890056 123.365365,20.867 C124.25337,19.7449944 125.519357,19.184 127.163365,19.184 C128.05137,19.184 128.819362,19.3399984 129.467365,19.652 C130.115368,19.9640016 130.652363,20.4049971 131.078365,20.975 C131.504367,21.5450029 131.819364,22.228996 132.023365,23.027 C132.227366,23.825004 132.329365,24.7159951 132.329365,25.7 C132.329365,27.8000105 131.88237,29.4109944 130.988365,30.533 C130.094361,31.6550056 128.819374,32.216 127.163365,32.216 C126.287361,32.216 125.528368,32.0600016 124.886365,31.748 C124.244362,31.4359984 123.710367,30.9950028 123.284365,30.425 C122.858363,29.8549971 122.543366,29.171004 122.339365,28.373 C122.135364,27.574996 122.033365,26.6840049 122.033365,25.7 Z M123.617365,25.7 C123.617365,26.3960035 123.686365,27.0559969 123.824365,27.68 C123.962366,28.3040031 124.175364,28.8529976 124.463365,29.327 C124.751367,29.8010024 125.120363,30.1789986 125.570365,30.461 C126.020367,30.7430014 126.551362,30.884 127.163365,30.884 C128.279371,30.884 129.155362,30.4610042 129.791365,29.615 C130.427368,28.7689958 130.745365,27.4640088 130.745365,25.7 C130.745365,25.0159966 130.676366,24.3590032 130.538365,23.729 C130.400365,23.0989969 130.184367,22.5470024 129.890365,22.073 C129.596364,21.5989976 129.224367,21.2210014 128.774365,20.939 C128.324363,20.6569986 127.787368,20.516 127.163365,20.516 C126.05936,20.516 125.192368,20.9389958 124.562365,21.785 C123.932362,22.6310042 123.617365,23.9359912 123.617365,25.7 Z M135.523836,19.4 C135.751837,19.3639998 136.006834,19.3370001 136.288836,19.319 C136.570837,19.3009999 136.864834,19.289 137.170836,19.283 C137.476837,19.277 137.776834,19.271 138.070836,19.265 C138.364837,19.259 138.637835,19.256 138.889836,19.256 C139.897841,19.256 140.770832,19.4119984 141.508836,19.724 C142.24684,20.0360016 142.855833,20.4709972 143.335836,21.029 C143.815838,21.5870028 144.172835,22.2559961 144.406836,23.036 C144.640837,23.8160039 144.757836,24.6739953 144.757836,25.61 C144.757836,26.4620043 144.646837,27.2809961 144.424836,28.067 C144.202835,28.8530039 143.851838,29.548997 143.371836,30.155 C142.891833,30.761003 142.26784,31.2469982 141.499836,31.613 C140.731832,31.9790018 139.801841,32.162 138.709836,32.162 C138.517835,32.162 138.268837,32.159 137.962836,32.153 C137.656834,32.147 137.341837,32.1350001 137.017836,32.117 C136.693834,32.0989999 136.393837,32.0840001 136.117836,32.072 C135.841834,32.0599999 135.643836,32.0420001 135.523836,32.018 L135.523836,19.4 Z M138.925836,20.588 L138.412836,20.588 C138.226835,20.588 138.043837,20.5939999 137.863836,20.606 C137.683835,20.6180001 137.518837,20.6299999 137.368836,20.642 C137.218835,20.6540001 137.101836,20.6659999 137.017836,20.678 L137.017836,30.758 C137.077836,30.7700001 137.191835,30.779 137.359836,30.785 C137.527837,30.791 137.701835,30.797 137.881836,30.803 C138.061837,30.809 138.235835,30.815 138.403836,30.821 C138.571837,30.827 138.685836,30.83 138.745836,30.83 C139.58584,30.83 140.290833,30.6860014 140.860836,30.398 C141.430839,30.1099986 141.886834,29.7230024 142.228836,29.237 C142.570838,28.7509976 142.813835,28.1930032 142.957836,27.563 C143.101837,26.9329969 143.173836,26.2820034 143.173836,25.61 C143.173836,25.0219971 143.107837,24.431003 142.975836,23.837 C142.843835,23.242997 142.615837,22.7060024 142.291836,22.226 C141.967834,21.7459976 141.532839,21.3530015 140.986836,21.047 C140.440833,20.7409985 139.75384,20.588 138.925836,20.588 Z M155.404306,32 L147.952306,32 L147.952306,19.4 L149.446306,19.4 L149.446306,30.668 L155.404306,30.668 L155.404306,32 Z M157.914777,19.4 L164.772777,19.4 L164.772777,20.732 L159.408777,20.732 L159.408777,24.854 L164.322777,24.854 L164.322777,26.186 L159.408777,26.186 L159.408777,30.668 L164.862777,30.668 L164.862777,32 L157.914777,32 L157.914777,19.4 Z M181.133718,32 L173.681718,32 L173.681718,19.4 L175.175718,19.4 L175.175718,30.668 L181.133718,30.668 L181.133718,32 Z M183.986189,19.4 L185.480189,19.4 L185.480189,32 L183.986189,32 L183.986189,19.4 Z M197.134659,22.28 C197.134659,22.5800015 197.08666,22.8859984 196.990659,23.198 C196.894659,23.5100016 196.75066,23.8009987 196.558659,24.071 C196.366658,24.3410014 196.120661,24.577999 195.820659,24.782 C195.520658,24.986001 195.166661,25.1419995 194.758659,25.25 L194.758659,25.322 C195.118661,25.3820003 195.463658,25.4839993 195.793659,25.628 C196.123661,25.7720007 196.414658,25.9699987 196.666659,26.222 C196.918661,26.4740013 197.122659,26.7799982 197.278659,27.14 C197.43466,27.5000018 197.512659,27.9259975 197.512659,28.418 C197.512659,29.0660032 197.377661,29.6269976 197.107659,30.101 C196.837658,30.5750024 196.483662,30.9619985 196.045659,31.262 C195.607657,31.5620015 195.106662,31.7839993 194.542659,31.928 C193.978657,32.0720007 193.402662,32.144 192.814659,32.144 L192.094659,32.144 C191.818658,32.144 191.530661,32.1350001 191.230659,32.117 C190.930658,32.0989999 190.630661,32.0750002 190.330659,32.045 C190.030658,32.0149999 189.766661,31.9700003 189.538659,31.91 L189.538659,19.508 C189.982662,19.4359996 190.498656,19.3760002 191.086659,19.328 C191.674662,19.2799998 192.316656,19.256 193.012659,19.256 C193.480662,19.256 193.957657,19.2949996 194.443659,19.373 C194.929662,19.4510004 195.370657,19.6009989 195.766659,19.823 C196.162661,20.0450011 196.489658,20.353998 196.747659,20.75 C197.005661,21.146002 197.134659,21.6559969 197.134659,22.28 Z M192.958659,30.848 C193.342661,30.848 193.714658,30.8030005 194.074659,30.713 C194.434661,30.6229996 194.752658,30.479001 195.028659,30.281 C195.304661,30.082999 195.523659,29.8400014 195.685659,29.552 C195.84766,29.2639986 195.928659,28.922002 195.928659,28.526 C195.928659,28.0339975 195.82966,27.6380015 195.631659,27.338 C195.433658,27.0379985 195.175661,26.8040008 194.857659,26.636 C194.539658,26.4679992 194.182661,26.3540003 193.786659,26.294 C193.390657,26.2339997 192.994661,26.204 192.598659,26.204 L191.032659,26.204 L191.032659,30.722 C191.11666,30.7460001 191.236659,30.7639999 191.392659,30.776 C191.54866,30.7880001 191.716659,30.7999999 191.896659,30.812 C192.07666,30.8240001 192.262658,30.833 192.454659,30.839 C192.64666,30.845 192.814659,30.848 192.958659,30.848 Z M191.968659,24.944 C192.17266,24.944 192.418658,24.9380001 192.706659,24.926 C192.994661,24.9139999 193.234658,24.8960001 193.426659,24.872 C193.714661,24.7759995 193.984658,24.6590007 194.236659,24.521 C194.488661,24.3829993 194.713658,24.2210009 194.911659,24.035 C195.10966,23.8489991 195.265659,23.6330012 195.379659,23.387 C195.49366,23.1409988 195.550659,22.8740014 195.550659,22.586 C195.550659,22.189998 195.47566,21.8630013 195.325659,21.605 C195.175659,21.3469987 194.974661,21.1400008 194.722659,20.984 C194.470658,20.8279992 194.182661,20.7170003 193.858659,20.651 C193.534658,20.5849997 193.204661,20.552 192.868659,20.552 C192.472657,20.552 192.109661,20.5609999 191.779659,20.579 C191.449658,20.5970001 191.20066,20.6239998 191.032659,20.66 L191.032659,24.944 L191.968659,24.944 Z M200.70713,19.526 C201.163132,19.4419996 201.688127,19.3760002 202.28213,19.328 C202.876133,19.2799998 203.419128,19.256 203.91113,19.256 C204.463133,19.256 204.988128,19.3159994 205.48613,19.436 C205.984133,19.5560006 206.422128,19.7539986 206.80013,20.03 C207.178132,20.3060014 207.481129,20.6659978 207.70913,21.11 C207.937131,21.5540022 208.05113,22.0939968 208.05113,22.73 C208.05113,23.7140049 207.781133,24.5119969 207.24113,25.124 C206.701127,25.7360031 206.017134,26.143999 205.18913,26.348 L206.05313,27.014 L209.18513,32 L207.43913,32 L203.96513,26.564 L202.20113,26.294 L202.20113,32 L200.70713,32 L200.70713,19.526 Z M203.94713,20.552 L203.46113,20.552 C203.293129,20.552 203.131131,20.5579999 202.97513,20.57 C202.819129,20.5820001 202.672131,20.5939999 202.53413,20.606 C202.396129,20.6180001 202.28513,20.6359999 202.20113,20.66 L202.20113,25.304 L203.60513,25.304 C204.433134,25.304 205.117127,25.100002 205.65713,24.692 C206.197133,24.283998 206.46713,23.6480043 206.46713,22.784 C206.46713,22.1359968 206.245132,21.6020021 205.80113,21.182 C205.357128,20.7619979 204.739134,20.552 203.94713,20.552 Z M217.599601,28.508 L212.955601,28.508 L211.695601,32 L210.219601,32 L214.989601,19.202 L215.673601,19.202 L220.461601,32 L218.895601,32 L217.599601,28.508 Z M213.441601,27.212 L217.149601,27.212 L215.745601,23.378 L215.295601,21.47 L215.277601,21.47 L214.827601,23.414 L213.441601,27.212 Z M222.792071,19.526 C223.248073,19.4419996 223.773068,19.3760002 224.367071,19.328 C224.961074,19.2799998 225.504069,19.256 225.996071,19.256 C226.548074,19.256 227.073069,19.3159994 227.571071,19.436 C228.069074,19.5560006 228.507069,19.7539986 228.885071,20.03 C229.263073,20.3060014 229.56607,20.6659978 229.794071,21.11 C230.022072,21.5540022 230.136071,22.0939968 230.136071,22.73 C230.136071,23.7140049 229.866074,24.5119969 229.326071,25.124 C228.786069,25.7360031 228.102075,26.143999 227.274071,26.348 L228.138071,27.014 L231.270071,32 L229.524071,32 L226.050071,26.564 L224.286071,26.294 L224.286071,32 L222.792071,32 L222.792071,19.526 Z M226.032071,20.552 L225.546071,20.552 C225.37807,20.552 225.216072,20.5579999 225.060071,20.57 C224.90407,20.5820001 224.757072,20.5939999 224.619071,20.606 C224.481071,20.6180001 224.370072,20.6359999 224.286071,20.66 L224.286071,25.304 L225.690071,25.304 C226.518075,25.304 227.202069,25.100002 227.742071,24.692 C228.282074,24.283998 228.552071,23.6480043 228.552071,22.784 C228.552071,22.1359968 228.330073,21.6020021 227.886071,21.182 C227.442069,20.7619979 226.824075,20.552 226.032071,20.552 Z M235.850542,26.996 L231.692542,19.4 L233.438542,19.4 L236.390542,24.908 L236.696542,26.006 L236.714542,26.006 L237.038542,24.872 L239.864542,19.4 L241.466542,19.4 L237.344542,26.978 L237.344542,32 L235.850542,32 L235.850542,26.996 Z" id="the-Doodle-Library" fill="#666666" opacity="0.739717371"></path>
        </g>
        <g id="Name" transform="translate(309.000000, 921.000000)" fill="#000000" font-family="OpenSans-Regular, Open Sans" font-size="18" font-weight="normal" letter-spacing="0.6545454">
            <text id="Griffin">
                <tspan x="0" y="18">holding sign</tspan>
            </text>
        </g>
        <g id="holdingsign_0001" transform="translate(207.500000, 225.000000)">
            <rect id="Rectangle-42" fill="#FFFFFF" x="24.1019759" y="259.168177" width="356.354442" height="128.288247"></rect>
            <ellipse id="Oval-71" fill="#FFFFFF" cx="194.475815" cy="102.37143" rx="78.0338194" ry="95.8922254"></ellipse>
            <path d="M176.301228,197.065597 C176.743446,198.460112 177.448563,199.751665 178.583741,199.974243 C179.243269,200.102944 179.263024,198.478281 179.652054,197.563746 C178.471287,197.388107 177.457681,197.236694 176.301228,197.065597 M20.6648355,332.530342 C20.6648355,327.604875 20.680032,322.724831 20.6557177,317.843273 C20.6481194,316.406363 20.0159453,316.913597 19.2515618,317.396604 C15.5496963,319.728366 12.7337864,322.889871 10.2917101,326.464734 C9.22643603,328.025803 9.66713429,329.05087 11.1670281,329.655008 C14.303584,330.914765 17.4629347,332.166951 20.6648355,332.530342 M28.0655272,340.703621 C27.9743482,341.280505 27.8892478,341.572732 27.8892478,341.864959 C27.9029247,346.790427 27.9226801,351.715894 27.9485142,356.641362 C27.9834661,363.983383 27.3315366,371.296635 26.9804976,378.622 C26.9029955,380.220922 27.4591871,380.871998 29.0517795,380.746325 C31.5485631,380.547974 34.0499057,380.410188 36.548209,380.226978 C39.0358747,380.046797 41.7362913,380.378391 43.942822,379.492625 C46.0642523,378.643198 47.9349404,378.178359 50.2539251,378.11628 C59.6909466,377.866448 69.1310075,377.765002 78.5497932,378.208642 C86.3455936,378.576576 94.1505119,378.920283 101.943273,379.267019 C114.413514,379.82422 126.867039,380.656992 139.332722,381.258102 C149.398878,381.744138 159.449838,382.54057 169.519034,382.975126 C175.571796,383.237071 181.645834,382.919103 187.703156,383.305206 C190.098123,383.459648 192.455099,383.930542 194.87438,383.922972 C199.503232,383.904802 204.132083,383.988079 208.760935,384.106182 C215.067479,384.269708 221.372504,384.484714 227.679048,384.716376 C237.708732,385.081282 247.753614,385.26752 257.765063,385.918596 C268.978554,386.646893 280.175329,387.665903 291.366026,388.737908 C302.068915,389.762975 312.838669,389.938614 323.573471,390.529125 C331.923944,390.987906 340.297211,390.974279 348.623369,391.732859 C353.752185,392.200725 358.914433,391.950894 364.026533,392.850287 C367.021761,393.375691 370.071697,394.078247 373.402768,393.704257 C369.327069,376.739935 367.536922,359.66811 367.284661,342.240464 C363.30318,343.413915 359.380965,343.557757 355.467869,342.08148 C354.677651,341.783196 354.130577,341.643896 354.084988,340.649112 C354.040918,339.630102 354.660935,339.465062 355.378209,339.113783 C358.566433,337.545144 361.730343,335.950764 365.319754,335.434445 C366.739107,335.230038 367.570355,334.530509 367.454861,332.836197 C367.325691,330.961703 367.453342,329.056926 367.623543,327.179404 C367.72232,326.105885 367.685848,325.403328 366.564347,324.788591 C365.660156,324.29347 364.290952,323.027657 365.733099,322.152489 C367.866686,320.859422 367.965464,319.180251 368.047525,317.07258 C368.313463,310.14846 369.003384,303.233424 369.086965,296.310818 C369.15231,290.952309 369.550458,285.622568 369.79968,280.280715 C369.950125,277.063187 370.121846,273.84263 370.629409,270.644786 C371.019958,268.196436 371.212954,265.717804 371.073146,263.219488 C371.018439,262.232275 370.785932,261.865855 369.694824,261.670532 C362.882237,260.453171 355.98303,260.110978 349.115735,259.485642 C343.008265,258.928441 336.885598,258.534767 330.775089,258.012392 C323.426065,257.384028 316.089199,256.590623 308.734097,256.059164 C300.169354,255.43837 291.595493,256.04705 283.03227,256.336249 C276.605673,256.55277 270.179077,256.925246 263.764638,257.377972 C257.347159,257.833725 250.952475,258.672553 244.530438,258.979922 C238.049134,259.290319 231.546555,259.14042 225.051574,259.414478 C215.271112,259.826321 205.476973,259.437189 195.694991,259.143448 C193.246836,259.07077 190.818437,259.659767 188.417391,259.319087 C184.207963,258.721006 180.010692,259.443246 175.789106,259.21007 C172.391171,259.020803 168.879261,259.62797 165.403824,259.759699 C158.322258,260.0277 151.246772,260.518279 144.163687,260.774167 C140.443585,260.908925 136.683973,260.491025 132.997304,260.66515 C125.973486,260.996744 119.028689,260.371408 112.056538,259.929282 C107.464159,259.637055 102.8657,259.752129 98.2702809,259.101052 C95.3176025,258.683152 92.2099199,258.262224 89.2268485,259.894457 C87.2315491,260.984631 85.0675686,260.041328 83.1725661,258.999606 C81.5328646,258.098698 79.8171806,257.730764 77.9540907,257.621747 C68.3453488,257.052433 58.7198908,257.085744 49.1050703,256.726895 C42.1921861,256.469493 35.2793019,256.181808 28.3740159,255.782078 C26.3559218,255.66549 25.8392411,256.186351 25.960813,258.265252 C26.5337208,268.131329 27.0412836,278.003462 27.3057026,287.880138 C27.5078159,295.420509 27.2054057,302.974508 27.320899,310.519422 C27.4348727,317.94472 27.2464362,325.377588 27.697772,332.799858 C27.7403222,333.503928 27.702331,334.027818 28.4530377,334.115637 C31.0151662,334.415435 33.5423429,335.508638 36.0999125,333.615974 C37.3870553,332.662072 39.3929923,332.162409 40.6011134,333.894574 C41.5280994,335.225495 42.1587538,336.853186 42.5538626,338.441509 C43.3729535,341.7408 41.9611994,343.197394 38.6210105,342.646251 C35.1166994,342.067853 31.4862575,342.267718 28.0655272,340.703621 M20.4156131,284.526338 C20.1755085,275.838255 19.1391078,267.210737 18.7546365,258.53931 C18.7288025,257.98211 18.8807674,257.367373 17.7942182,257.5203 C15.0451728,257.907917 13.7169994,255.30664 11.6214032,254.270975 C11.0302596,253.978748 11.0576133,252.494899 11.5606172,251.733292 C12.3417169,250.553784 13.2215938,249.35005 14.8977668,249.286456 C18.0920695,249.165326 25.9425772,248.954862 26.6917643,248.992715 C31.8935235,249.263744 37.093763,249.554457 42.2940026,249.852741 C51.7051901,250.393286 61.1209365,250.724881 70.5458009,250.888407 C73.4179379,250.938373 76.2915945,251.268454 79.1500546,251.600048 C80.0664031,251.706037 81.0374589,251.586421 81.5131091,251.082215 C83.0525138,249.449982 84.9308002,249.436355 86.9321782,249.340965 C88.3317751,249.274343 89.6477913,248.702002 90.8756679,247.870744 C99.9358164,241.733972 108.631249,235.092994 117.557669,228.771497 C125.687792,223.014772 134.202386,217.893981 142.691147,212.74745 C150.439838,208.047588 158.238678,203.343184 166.608905,199.731982 C167.906686,199.173267 168.552537,197.806007 169.829042,197.112535 C171.321338,196.303989 170.862403,195.575692 169.40354,195.094199 C162.3858,192.777579 155.877143,189.384411 149.959629,185.034313 C140.63962,178.184385 131.725358,170.919586 124.602762,161.589511 C120.657753,156.420269 117.237023,151.175319 115.092798,145.021891 C112.35439,137.165066 112.074774,129.173484 113.602022,121.154647 C115.234125,112.593751 116.971084,104.017714 120.318871,95.9034865 C122.643934,90.2678915 124.248684,84.3340126 127.208961,78.9633905 C128.94592,75.8170266 130.950337,72.8432736 133.703941,70.4342914 C134.959171,69.3335183 136.43931,69.1215399 137.943763,69.2305574 C140.241472,69.3971118 140.663935,70.4252066 139.714154,72.593442 C139.03639,74.143912 138.098767,75.4899743 137.107955,76.840579 C133.823994,81.3163499 131.938109,86.4871067 129.647998,91.4837385 C127.345729,96.5030823 125.707547,101.720777 124.032894,106.926359 C121.824843,113.797485 120.10764,120.813967 119.273352,128.012145 C118.755152,132.472775 118.902558,136.912207 119.607675,141.341039 C120.679028,148.047125 124.054169,153.644867 128.219527,158.820166 C134.910543,167.129716 142.799042,174.235532 151.474719,180.369276 C160.43761,186.7044 170.289496,191.162001 181.499948,191.822162 C190.161948,192.332424 198.586883,191.317956 206.829461,188.379028 C215.144981,185.41436 221.487997,179.874155 227.676008,173.923621 C231.993332,169.771874 236.11462,165.468714 239.979088,160.899068 C242.18258,158.294763 244.0016,155.426999 246.044008,152.713676 C250.096913,147.329427 253.943145,141.799821 257.47481,136.068836 C261.506439,129.526276 264.761527,122.636981 267.297822,115.3313 C269.552981,108.83265 270.47085,102.173502 271.297539,95.4613603 C271.627303,92.7843769 271.475338,90.0332012 271.367443,87.322907 C271.121259,81.1391965 270.852281,74.9236894 269.484597,68.8807931 C267.758276,61.2389747 265.816164,53.651665 262.32553,46.5246511 C259.295349,40.3318559 256.061536,34.2950162 251.681907,28.9425636 C247.689788,24.064034 243.425653,19.4565338 238.23757,15.7696252 C234.309277,12.9760537 229.905334,11.0425086 225.507469,9.29520162 C213.578223,4.55748617 201.135335,4.33339481 188.523766,5.73396585 C183.817413,6.25482686 179.250867,7.48127286 174.714714,8.51845249 C171.090351,9.34668207 167.472066,11.1575826 163.961676,12.8110135 C159.756807,14.7930108 155.808758,17.2943549 152.401705,20.2832492 C148.274338,23.9050502 143.926621,27.2936751 139.980092,31.1289685 C137.545614,33.4925268 135.085302,35.7955198 133.723697,39.0115338 C133.032256,40.6437668 132.647785,42.3093108 132.606755,44.0717591 C132.550528,46.4852837 131.438144,47.1590719 129.239212,46.1279488 C126.376193,44.787943 124.981155,40.7785245 126.342761,37.7290649 C128.369973,33.1881865 131.150931,29.3650061 135.238787,26.2610378 C139.805333,22.7921641 144.060351,18.8932771 148.519001,15.2548207 C153.486735,11.1984641 158.890607,8.22168284 164.890182,6.09130073 C171.629826,3.69745985 178.54423,2.02131699 185.592363,0.964453656 C197.599111,-0.83584793 209.551152,-0.0530422779 221.287403,2.81320743 C225.715661,3.89429686 229.861264,6.12158335 234.140596,7.81438164 C239.646285,9.99170181 244.373914,13.3288462 248.642608,17.3685473 C258.626704,26.8136956 266.244705,37.9243878 271.259547,50.6415729 C275.090583,60.351694 277.620799,70.4221784 278.292484,80.9650715 C278.736222,87.9452147 278.707348,94.8769058 278.132921,101.804054 C277.518983,109.211183 275.546478,116.371507 272.558848,123.150271 C267.846415,133.841549 261.839242,143.781818 254.892926,153.237565 C249.59087,160.452399 244.244744,167.579413 237.964034,173.964503 C232.291183,179.731827 226.706472,185.62331 219.545885,189.659983 C214.663252,192.414187 209.567869,194.415868 204.056101,195.842179 C198.69022,197.229123 193.363849,197.618255 187.947819,197.930166 C187.200152,197.974076 186.90686,198.304156 186.698668,198.970374 C183.630496,208.721376 181.502987,218.6889 179.807059,228.751814 C178.975811,233.678795 178.334519,238.639088 177.468319,243.560013 C177.223655,244.942415 176.574765,246.280906 175.941071,247.557319 C175.457823,248.529391 172.415485,248.324983 171.974787,247.27569 C171.486979,246.10981 170.856325,244.833397 171.221041,243.56607 C172.752847,238.240872 172.778681,232.69461 173.746698,227.284621 C174.970015,220.460433 175.77239,213.560539 177.516947,206.594023 C172.774122,206.56374 168.283559,206.557683 164.048296,209.077197 C160.297802,211.309026 156.082295,212.774705 152.368273,215.0565 C148.128451,217.659291 143.736665,220.016793 139.639691,222.870929 C134.126404,226.710765 128.445955,230.311368 122.847567,234.031588 C115.071522,239.197802 107.686027,244.900019 100.312689,250.612835 C99.5103146,251.235143 98.2702809,251.350217 97.8189451,252.650855 C100.376515,253.189886 102.935604,253.392779 105.500772,253.550249 C111.924329,253.943923 118.349406,254.746412 124.765365,254.657078 C131.287699,254.566231 137.819151,254.637395 144.341486,254.405733 C156.003274,253.989347 167.642267,253.055128 179.316212,252.999105 C184.054478,252.976393 188.792744,253.023331 193.529491,252.943082 C204.890388,252.750788 216.242168,253.479085 227.615222,253.073297 C235.345678,252.797726 243.098928,252.887059 250.798991,252.108796 C258.5568,251.32599 266.332845,250.939887 274.110409,250.518959 C275.751631,250.429625 275.698443,249.575655 275.171125,248.626295 C274.666601,247.722359 273.953886,246.844163 273.131755,246.217313 C267.6519,242.045882 262.178124,237.894136 256.400418,234.093667 C247.630522,228.3218 238.219335,223.823318 228.698732,219.632203 C220.100557,215.845362 211.399046,212.158454 202.373849,209.407278 C199.720542,208.597218 196.922868,208.15812 194.158626,207.828039 C192.225632,207.597891 190.497791,206.968013 188.844412,206.079218 C187.551191,205.384232 187.010196,202.911656 187.698597,201.471718 C188.487295,199.825858 189.736447,199.279256 191.443013,199.990898 C196.413785,202.062229 201.699125,203.146347 206.792989,204.839145 C214.199759,207.299608 221.349709,210.346039 228.464706,213.48029 C236.183005,216.879514 243.887626,220.340817 251.300475,224.368405 C257.331963,227.644984 263.153739,231.280412 268.831148,235.1687 C272.545171,237.71244 275.909674,240.83155 280.272587,242.425929 C282.737458,243.326837 284.144653,245.399682 284.302697,247.955535 C284.415151,249.761893 285.170416,250.091974 286.682467,249.910278 C291.578777,249.321281 296.514598,249.492378 301.413947,249.571113 C307.039688,249.660447 312.653272,250.455365 318.277494,250.874779 C322.742223,251.206374 327.247983,251.182148 331.676241,251.766603 C338.207693,252.631171 344.786254,252.753816 351.331383,253.403378 C355.621353,253.830363 359.955393,254.018115 364.259039,254.436015 C365.845553,254.590457 367.489813,254.613169 368.988187,255.079521 C371.702281,255.924406 374.366226,254.416332 377.068162,255.209736 C379.688037,255.9774 381.853538,259.985305 380.37188,262.282241 C378.709383,264.857778 378.671392,267.618038 378.239812,270.450977 C377.428319,275.768605 376.980023,281.115001 376.432949,286.453826 C376.226277,288.482762 376.043919,290.540465 376.130539,292.572429 C376.522608,301.761689 375.037911,310.852531 374.752217,320.005452 C374.69751,321.757301 375.317526,322.655181 376.663936,323.425874 C380.06643,325.37456 382.399092,328.236267 383.917221,331.824757 C384.666408,333.594776 384.208994,334.843934 382.648314,335.870515 C380.485853,337.293798 378.209419,338.514187 375.797736,339.422666 C374.282645,339.993493 373.775082,340.874717 373.823711,342.422159 C373.983274,347.489955 373.899694,352.535039 374.446767,357.622519 C375.031832,363.087017 375.439098,368.58634 376.056076,374.061438 C376.683691,379.631925 378.359864,384.982863 379.352195,390.473102 C379.873435,393.349951 381.488822,395.725622 382.538899,398.355667 C383.105729,399.775922 383.470444,401.27794 382.426445,402.445335 C381.526813,403.450717 380.119618,403.629385 378.665314,403.458288 C376.68977,403.226626 374.995361,402.236385 373.161144,401.735207 C369.989636,400.872153 366.696556,400.301325 363.418673,399.998499 C355.042367,399.227806 346.658462,398.402605 338.257841,398.105836 C329.290391,397.789382 320.360933,396.920271 311.391963,396.646213 C305.805733,396.475117 300.239258,395.649915 294.649988,395.448536 C288.071427,395.209303 281.55973,394.181208 274.953815,394.135784 C272.429677,394.119129 269.831077,393.262131 267.197525,392.986559 C262.214595,392.46267 257.219509,392.489924 252.236579,392.190126 C243.082212,391.638983 233.918727,391.069669 224.753723,390.93794 C214.648056,390.792584 204.556066,390.31109 194.448879,390.177846 C185.599961,390.061258 176.735848,389.949213 167.88845,389.301165 C157.576111,388.545613 147.227299,388.282155 136.91496,387.523575 C132.008013,387.161698 127.08131,386.763481 122.183481,386.496994 C116.066893,386.1654 109.930549,385.870144 103.795725,385.720245 C92.5548802,385.444673 81.3216333,384.852648 70.0792686,384.664896 C65.1024174,384.581619 48.4075513,387.520547 45.3697726,387.525089 C39.1635253,387.531146 32.9952692,388.338177 27.1582966,390.050659 C23.205689,391.208969 20.6709141,389.864421 17.8458863,388.035351 C16.1074076,386.908838 15.9782374,384.649755 17.5449957,382.431553 C18.2106021,381.491278 18.6847326,380.59037 18.8746888,379.412376 C20.5584601,369.025438 21.2757345,358.574907 21.1693591,348.062297 C21.143525,345.58215 21.0189138,343.103518 21.0736212,340.6264 C21.1040142,339.243999 20.5447833,338.977512 19.2470028,338.720109 C12.7337864,337.43007 6.51234256,335.482898 1.73760477,330.424186 C-0.0920528643,328.486099 0.266584347,326.429909 1.31514229,324.628093 C4.85744458,318.541287 9.63066271,313.499232 15.4205262,309.468615 C16.742621,308.548024 18.336733,308.114982 20.1359976,309.229383 C20.6861106,300.777504 20.6405212,292.658735 20.4156131,284.526338 Z" id="Fill-89" stroke="#000000" stroke-width="4" fill="#000000"></path>
            <path d="M200.266856,128.131913 C192.472575,128.147054 186.469961,128.019867 180.555486,127.174982 C177.121079,126.684404 173.3022,126.554189 170.901155,123.194332 C170.085103,122.051164 169.083654,121.017012 169.930099,119.571017 C170.925469,117.86762 173.203423,117.071187 174.849203,117.978152 C178.541951,120.013144 182.61765,120.378049 186.650799,120.786864 C197.750317,121.914892 208.942533,121.705942 220.028374,123.008094 C221.955289,123.235214 223.303218,121.949717 225.055373,121.808903 C227.395633,121.622665 229.895456,123.435079 230.652241,125.59423 C231.486529,127.972929 230.928818,129.718722 229.339264,131.534165 C228.354532,132.65765 228.515615,134.433726 227.891039,135.747991 C223.888283,144.171101 221.253211,153.202892 215.770317,160.97644 C209.156803,170.35648 195.793008,173.802642 185.029333,168.123137 C178.947697,164.91318 174.166881,160.420754 170.816054,154.536841 C169.352632,151.967361 168.892178,148.872478 168.606484,145.909324 C168.269122,142.407139 167.522974,138.94735 167.550328,135.398227 C167.556407,134.488234 166.878643,133.578242 166.539761,132.659164 C165.46385,129.756576 166.232792,127.82303 169.065418,126.797964 C170.629137,126.231679 171.905643,126.464855 173.112244,128.089517 C174.548313,130.023063 176.251839,131.938438 175.604469,134.309567 C174.77778,137.343885 175.204801,140.308553 175.299019,143.273222 C175.452504,148.13661 176.428119,152.859184 179.918753,156.617257 C185.552092,162.681351 192.762828,164.772366 200.067782,162.481486 C205.239148,160.858337 208.807284,157.450029 211.427159,152.921264 C215.066719,146.627022 217.428254,139.780122 219.862732,132.975618 C220.804915,130.34103 220.417404,129.87165 217.780813,129.596078 C211.355736,128.923804 204.950414,127.971415 200.266856,128.131913" id="Fill-91" stroke="#000000" stroke-width="4" fill="#000000"></path>
            <path d="M210.276177,86.0838044 C210.082579,81.8268482 209.686553,79.0960905 213.508471,78.2103239 C214.512959,77.9771478 215.19984,78.1361315 216.035648,78.6448795 C220.146299,81.1341106 220.115906,84.957291 219.574911,89.0121335 C219.108378,92.4991768 218.111488,95.9195984 218.524833,99.5186875 C218.690475,100.973767 217.891139,102.079083 216.222564,102.259264 C213.265327,102.58026 210.794377,101.646041 208.671428,99.5747103 C208.045332,98.9660297 208.92217,98.4436545 208.527061,97.9591327 C208.388773,97.0037161 210.316176,86.963317 210.276177,86.0838044 Z" id="Fill-93" stroke="#000000" stroke-width="3" fill="#000000" stroke-linecap="round"></path>
            <path d="M195.969136,82.2108091 C195.95242,86.0461025 194.902342,89.1364436 194.326395,92.299463 C193.935845,94.4359016 193.420684,96.5390293 193.403968,98.7299767 C193.388771,100.612041 192.054519,101.65982 190.281089,101.107162 C188.452951,100.539363 186.908987,99.4355617 185.447085,98.2182005 C184.664465,97.5671242 184.810352,96.8055164 185.001827,95.9576031 C185.94249,91.7892009 187.323851,87.7222454 187.816218,83.4508822 C188.004654,81.8110785 188.302506,80.1818737 188.571483,78.5511548 C188.808549,77.1051598 189.937648,76.7584239 191.147289,76.4207727 C192.376685,76.0785791 193.441959,76.5721858 193.891775,77.4640088 C194.7367,79.14318 196.459982,80.5588923 195.969136,82.2108091" id="Fill-95" stroke="#000000" stroke-width="3" fill="#000000"></path>
        </g>
    </g>
</svg>