<?xml version="1.0" standalone="no"?>
<!DOCTYPE svg PUBLIC "-//W3C//DTD SVG 20010904//EN"
 "http://www.w3.org/TR/2001/REC-SVG-20010904/DTD/svg10.dtd">
<svg version="1.0" xmlns="http://www.w3.org/2000/svg"
 width="250.000000pt" height="250.000000pt" viewBox="0 0 250.000000 250.000000"
 preserveAspectRatio="xMidYMid meet">
<metadata>
Created by potrace 1.11, written by Peter Selinger 2001-2013
</metadata>
<g transform="translate(0.000000,250.000000) scale(0.100000,-0.100000)"
fill="#000000" stroke="none">
<path d="M150 2380 l-135 -5 -3 -960 -2 -961 42 -12 c24 -7 178 -48 343 -91
165 -44 335 -89 378 -100 146 -39 222 -60 358 -95 l135 -36 110 30 c60 17 165
46 234 65 69 18 290 79 492 134 201 56 369 101 372 101 3 0 6 429 6 954 0 814
-2 955 -14 965 -11 9 -279 13 -1098 14 -596 1 -1144 0 -1218 -3z"/>
</g>
</svg>
