<?xml version="1.0" standalone="no"?>
<!DOCTYPE svg PUBLIC "-//W3C//DTD SVG 20010904//EN"
 "http://www.w3.org/TR/2001/REC-SVG-20010904/DTD/svg10.dtd">
<svg version="1.0" xmlns="http://www.w3.org/2000/svg"
 width="1157.000000pt" height="1157.000000pt" viewBox="0 0 1157.000000 1157.000000"
 preserveAspectRatio="xMidYMid meet">
<metadata>
Created by potrace 1.11, written by Peter Selinger 2001-2013
</metadata>
<g transform="translate(0.000000,1157.000000) scale(0.100000,-0.100000)"
fill="#000000" stroke="none">
<path d="M4625 11562 l-31 -3 1 -2542 0 -2541 1182 -1 c782 0 1183 3 1184 10
0 6 2 1150 2 2543 1 1682 -1 2532 -8 2533 -38 2 -2306 3 -2330 1z"/>
<path d="M3385 10481 c-44 -21 -105 -50 -135 -64 -90 -43 -277 -145 -395 -215
-96 -57 -357 -227 -389 -253 -6 -5 -63 -48 -126 -95 -99 -75 -241 -187 -276
-219 -6 -5 -44 -39 -84 -75 -189 -166 -419 -396 -570 -569 -30 -35 -60 -68
-65 -75 -156 -177 -387 -497 -527 -731 -300 -500 -521 -1077 -625 -1630 -4
-22 -8 -42 -8 -45 -1 -3 -5 -25 -9 -50 -5 -25 -10 -52 -11 -60 -15 -79 -38
-260 -50 -395 -25 -272 -25 -811 0 -1010 2 -16 6 -66 10 -110 4 -44 9 -87 10
-95 1 -8 6 -40 10 -70 9 -76 42 -265 61 -353 8 -39 17 -81 19 -92 43 -212 178
-633 270 -840 7 -16 32 -73 55 -125 64 -144 168 -342 283 -535 75 -127 285
-430 360 -521 9 -11 51 -62 94 -114 43 -53 92 -111 108 -129 17 -19 50 -57 75
-85 85 -97 396 -402 515 -507 121 -105 331 -275 395 -319 19 -13 37 -27 40
-31 3 -4 82 -58 175 -121 550 -368 1112 -618 1750 -776 137 -35 333 -74 425
-87 14 -2 52 -8 85 -14 33 -6 85 -13 115 -16 30 -3 62 -8 70 -10 8 -2 53 -6
100 -10 47 -3 96 -8 110 -10 132 -23 957 -23 1050 0 8 2 55 7 104 10 50 4 97
8 105 10 9 1 39 6 66 9 110 14 133 18 220 32 823 139 1588 456 2275 943 25 17
56 39 70 49 14 9 27 19 30 22 3 3 23 19 45 35 45 33 177 137 185 145 3 3 18
15 33 27 28 22 101 84 206 178 88 78 430 423 496 500 33 39 62 72 65 75 3 3
44 52 91 110 267 327 495 682 666 1037 40 84 73 154 73 157 0 2 13 34 30 69
16 36 30 68 30 72 0 3 9 25 19 49 48 105 162 467 210 666 21 86 64 301 76 375
20 129 30 210 41 320 4 39 8 84 10 100 21 211 21 763 0 960 -2 17 -7 62 -10
100 -10 105 -19 172 -47 340 -117 712 -386 1386 -796 1992 -89 133 -142 207
-186 263 -7 8 -28 35 -47 60 -18 25 -48 61 -65 80 -16 20 -48 57 -70 84 -59
72 -69 83 -161 182 -171 187 -416 423 -569 549 -33 28 -62 53 -65 56 -19 21
-282 221 -410 311 -63 44 -348 228 -354 228 -2 0 -43 23 -92 52 -102 58 -486
248 -494 243 -3 -2 -5 -804 -4 -1783 l0 -1780 61 -114 c52 -96 131 -270 158
-348 1 -3 4 -12 8 -20 6 -18 31 -93 32 -100 0 -3 10 -36 22 -75 12 -38 24 -83
27 -100 3 -16 14 -73 25 -125 10 -52 22 -124 26 -160 4 -36 9 -73 11 -84 20
-105 19 -515 -1 -676 -20 -157 -21 -164 -40 -260 -9 -41 -17 -84 -19 -96 -9
-48 -69 -244 -102 -333 -80 -218 -233 -493 -384 -691 -192 -252 -441 -489
-690 -655 -84 -56 -286 -175 -297 -175 -2 0 -32 -13 -66 -29 -111 -51 -325
-127 -418 -147 -271 -59 -415 -75 -659 -75 -80 0 -172 3 -205 6 -213 19 -341
41 -499 87 -38 11 -76 21 -85 23 -47 9 -233 85 -356 145 -215 105 -443 264
-619 429 -112 106 -228 227 -281 296 -16 21 -48 61 -71 89 -166 207 -327 507
-421 780 -32 95 -69 223 -79 276 -3 14 -7 32 -9 40 -2 8 -7 31 -10 50 -3 19
-10 58 -15 85 -10 56 -18 121 -30 240 -8 83 -5 521 4 565 2 14 7 48 10 75 24
229 101 520 196 740 40 93 113 240 147 293 l34 54 0 1451 c0 799 -1 1599 -1
1780 0 180 -3 327 -7 327 -5 0 -44 -18 -88 -39z"/>
</g>
</svg>
