<?xml version="1.0" standalone="no"?>
<!DOCTYPE svg PUBLIC "-//W3C//DTD SVG 20010904//EN"
 "http://www.w3.org/TR/2001/REC-SVG-20010904/DTD/svg10.dtd">
<svg version="1.0" xmlns="http://www.w3.org/2000/svg"
 width="720.000000pt" height="720.000000pt" viewBox="0 0 720.000000 720.000000"
 preserveAspectRatio="xMidYMid meet">
<metadata>
Created by potrace 1.11, written by Peter Selinger 2001-2013
</metadata>
<g transform="translate(0.000000,720.000000) scale(0.100000,-0.100000)"
fill="#000000" stroke="none">
<path d="M2560 7185 c-25 -7 -56 -17 -70 -23 -44 -18 -111 -84 -133 -131 -17
-35 -28 -46 -47 -47 -41 -3 -162 -14 -200 -19 -19 -3 -55 -7 -80 -10 -25 -3
-63 -8 -85 -11 -72 -10 -89 -13 -133 -19 -24 -3 -80 -13 -125 -21 -45 -8 -95
-18 -112 -20 -371 -65 -824 -232 -1029 -378 -76 -54 -186 -162 -186 -182 0
-11 17 -14 73 -15 78 -1 129 -3 337 -14 257 -14 375 -21 461 -29 30 -3 90 -8
134 -11 44 -3 99 -8 123 -10 23 -3 61 -7 85 -10 23 -2 74 -7 112 -10 39 -4 86
-9 105 -12 19 -3 42 -5 50 -5 8 0 44 -4 80 -10 36 -5 83 -11 105 -13 22 -2 58
-6 80 -9 22 -3 60 -8 85 -11 77 -10 78 -11 75 -58 -18 -235 -24 -858 -11
-1107 14 -268 18 -336 21 -358 2 -13 7 -65 11 -115 3 -51 8 -95 10 -98 2 -3 6
-38 9 -76 3 -39 7 -79 9 -90 3 -11 7 -44 11 -74 3 -30 8 -65 10 -79 14 -87 26
-158 30 -180 2 -13 7 -42 11 -65 5 -36 17 -102 30 -160 2 -11 10 -51 18 -90 8
-38 17 -79 19 -90 3 -11 14 -59 26 -107 35 -149 111 -406 168 -571 30 -87 52
-164 50 -172 -3 -7 -17 -19 -31 -27 -14 -7 -140 -87 -280 -178 -141 -91 -264
-169 -274 -175 -10 -5 -101 -62 -202 -126 -102 -64 -261 -163 -355 -219 -93
-57 -204 -124 -245 -149 -99 -60 -216 -178 -265 -266 -98 -175 -95 -342 11
-485 81 -110 179 -160 323 -165 76 -2 119 4 211 32 94 28 189 87 347 216 289
234 1052 827 1066 827 2 0 46 -83 96 -185 51 -101 121 -237 156 -301 36 -65
65 -121 65 -125 0 -4 4 -9 8 -11 4 -2 25 -34 47 -73 21 -38 51 -89 67 -112 15
-23 28 -44 28 -46 0 -10 217 -327 288 -422 213 -283 375 -467 480 -547 117
-89 225 -129 362 -134 129 -4 242 22 370 86 147 75 192 139 186 270 -2 41 -9
91 -15 111 -16 51 -78 148 -141 220 -345 393 -549 648 -773 964 -59 83 -110
155 -115 160 -14 18 -218 338 -264 415 -113 190 -144 247 -138 253 3 3 88 64
190 136 102 73 195 140 207 149 13 9 52 37 88 62 36 25 107 75 158 111 51 36
146 102 212 147 66 45 138 95 160 110 71 49 356 243 515 350 85 57 163 110
173 118 9 8 19 14 21 14 2 0 43 27 92 60 48 33 91 60 94 60 5 0 49 -80 55
-100 1 -3 25 -54 54 -115 71 -149 70 -147 149 -345 39 -96 76 -187 82 -202 36
-77 179 -76 414 3 93 31 318 136 324 151 2 4 8 8 13 8 16 0 116 79 131 103 68
107 -74 473 -375 972 l-36 59 32 20 c17 11 38 26 45 33 7 7 17 13 21 13 5 0
20 11 34 24 25 24 25 24 11 77 -59 210 -220 445 -384 558 -34 22 -65 41 -71
41 -5 0 -39 -22 -75 -50 -36 -28 -69 -50 -73 -50 -4 0 -19 14 -32 32 -120 158
-262 320 -402 459 -207 207 -360 296 -436 258 -57 -30 -171 -121 -257 -207
-153 -153 -270 -324 -293 -429 -8 -37 -6 -47 16 -80 14 -21 44 -53 67 -71 126
-102 556 -519 556 -539 0 -5 -39 -38 -87 -74 -49 -35 -131 -95 -183 -133 -83
-61 -631 -454 -794 -569 -32 -23 -64 -48 -71 -54 -8 -7 -16 -13 -19 -13 -5 0
-144 -95 -171 -118 -65 -52 -470 -321 -475 -315 -21 23 -166 433 -206 578 -35
131 -84 321 -89 345 -2 14 -16 84 -29 155 -14 72 -28 148 -31 170 -3 22 -8 47
-10 55 -4 13 -17 115 -40 305 -3 22 -8 76 -11 120 -3 44 -7 96 -9 115 -14 153
-21 608 -13 913 l3 138 50 -6 c28 -4 82 -14 120 -22 39 -8 81 -17 95 -19 14
-3 59 -12 100 -21 41 -8 86 -17 100 -19 14 -3 41 -9 60 -14 19 -5 46 -11 60
-14 32 -6 198 -44 226 -52 42 -11 143 111 219 264 118 241 146 486 67 592 -33
44 -73 79 -89 80 -7 0 -13 3 -13 8 0 16 -182 85 -285 107 -5 1 -28 5 -50 10
-22 4 -49 10 -60 12 -114 24 -346 47 -517 52 -32 1 -38 5 -47 34 -21 61 -94
123 -176 149 -48 15 -195 17 -245 3z"/>
</g>
</svg>
