<?xml version="1.0" standalone="no"?>
<!DOCTYPE svg PUBLIC "-//W3C//DTD SVG 20010904//EN"
 "http://www.w3.org/TR/2001/REC-SVG-20010904/DTD/svg10.dtd">
<svg version="1.0" xmlns="http://www.w3.org/2000/svg"
 width="101.000000pt" height="101.000000pt" viewBox="0 0 101.000000 101.000000"
 preserveAspectRatio="xMidYMid meet">
<metadata>
Created by potrace 1.11, written by Peter Selinger 2001-2013
</metadata>
<g transform="translate(0.000000,101.000000) scale(0.100000,-0.100000)"
fill="#000000" stroke="none">
<path d="M455 859 c-221 -27 -392 -207 -407 -429 -2 -22 5 -30 26 -30 26 0 38
21 41 70 3 43 5 47 20 47 18 0 28 -24 26 -60 -2 -15 3 -29 11 -32 9 -4 13 -17
10 -38 -4 -42 16 -71 40 -54 11 9 20 41 28 110 6 53 9 101 5 106 -3 5 -1 12 4
15 5 4 10 32 10 63 0 38 5 61 16 72 15 15 17 15 29 -1 7 -10 17 -62 21 -115
12 -152 14 -167 19 -188 2 -11 5 -27 5 -36 1 -26 32 -32 47 -10 12 16 20 18
43 11 l30 -8 -3 131 -3 132 59 0 c60 0 73 -10 43 -35 -12 -10 -13 -15 -4 -21
10 -6 10 -11 -2 -25 -9 -11 -9 -15 -1 -10 15 9 16 -6 1 -21 -7 -7 -7 -13 -1
-17 7 -4 7 -17 2 -36 -5 -16 -5 -29 -2 -29 20 3 30 -3 35 -20 3 -14 11 -18 25
-14 16 4 19 12 18 44 -3 45 2 50 51 56 58 8 78 -2 78 -39 0 -29 3 -32 30 -33
20 0 30 -5 30 -15 0 -17 15 -31 27 -24 4 3 8 45 8 95 0 49 2 89 5 89 14 0 65
-32 65 -40 0 -6 4 -10 10 -10 16 0 -26 99 -67 159 -50 72 -149 144 -232 170
-83 25 -121 29 -196 20z"/>
<path d="M493 575 c0 -8 4 -12 9 -9 5 3 6 10 3 15 -9 13 -12 11 -12 -6z"/>
<path d="M530 574 c0 -8 5 -12 10 -9 6 4 8 11 5 16 -9 14 -15 11 -15 -7z"/>
<path d="M495 539 c-4 -6 -4 -13 -1 -16 3 -4 6 -1 6 6 0 7 5 9 12 5 7 -4 8 -3
4 4 -9 15 -13 15 -21 1z"/>
<path d="M530 535 c0 -8 2 -15 4 -15 2 0 6 7 10 15 3 8 1 15 -4 15 -6 0 -10
-7 -10 -15z"/>
<path d="M495 500 c-3 -6 1 -7 9 -4 18 7 21 14 7 14 -6 0 -13 -4 -16 -10z"/>
<path d="M530 499 c0 -5 5 -7 10 -4 6 3 10 8 10 11 0 2 -4 4 -10 4 -5 0 -10
-5 -10 -11z"/>
<path d="M497 461 c-10 -12 -9 -13 3 -6 8 5 23 8 33 7 9 -2 17 1 17 5 0 14
-40 10 -53 -6z"/>
<path d="M495 431 c-3 -6 3 -9 14 -8 11 0 17 5 15 9 -7 11 -22 10 -29 -1z"/>
<path d="M14 233 c1 -44 5 -58 16 -58 8 0 14 6 12 13 -3 17 15 15 22 -3 8 -22
24 -18 32 7 l7 23 8 -23 c15 -41 29 -23 29 38 0 52 -2 60 -19 60 -12 0 -23
-11 -31 -32 l-11 -33 -14 33 c-9 20 -21 32 -33 32 -17 0 -20 -7 -18 -57z"/>
<path d="M155 280 c-3 -5 0 -10 7 -10 8 0 9 -3 3 -8 -14 -9 -14 -75 -1 -84 20
-14 23 -8 24 52 0 44 -4 60 -13 60 -8 0 -17 -4 -20 -10z"/>
<path d="M486 238 c1 -29 2 -56 3 -59 0 -3 19 -6 41 -7 30 -1 40 2 40 13 0 9
-9 15 -25 15 -24 0 -37 19 -15 21 6 1 15 2 20 3 19 2 11 21 -12 28 -22 6 -21
6 5 7 17 1 27 7 27 16 0 11 -11 15 -43 15 l-42 0 1 -52z"/>
<path d="M288 268 c-3 -8 -19 -12 -41 -10 -20 2 -38 0 -38 -5 -7 -49 -6 -63 7
-74 22 -18 67 5 59 30 -3 11 -1 22 5 26 6 4 10 -4 10 -19 0 -24 13 -39 38 -42
15 -3 15 11 2 37 -6 11 -7 19 -1 19 5 0 12 -11 15 -24 7 -29 28 -38 61 -26 44
17 28 80 -20 80 -12 0 -26 -5 -32 -11 -8 -8 -13 -5 -18 10 -7 23 -41 29 -47 9z
m103 -51 c-1 -12 -15 -9 -19 4 -3 6 1 10 8 8 6 -3 11 -8 11 -12z"/>
<path d="M582 219 c4 -50 28 -67 28 -20 0 17 5 31 10 31 6 0 10 -13 10 -28 0
-19 5 -29 15 -29 12 0 15 10 13 41 -3 40 -4 41 -41 44 l-38 3 3 -42z"/>
<path d="M683 253 c-7 -2 -13 -18 -13 -34 0 -36 38 -56 72 -38 16 8 22 8 29
-2 11 -18 22 -6 22 25 0 14 6 27 13 30 25 10 15 26 -16 26 -24 0 -30 -4 -31
-22 l0 -23 -9 23 c-9 21 -37 28 -67 15z"/>
<path d="M832 248 c-13 -13 -16 -51 -5 -62 4 -4 8 -15 8 -24 0 -18 29 -24 57
-10 12 6 16 20 15 53 -1 25 -1 45 1 45 2 0 10 -16 18 -36 13 -30 13 -38 2 -45
-10 -7 -10 -11 0 -21 15 -15 34 3 50 47 5 17 13 38 17 48 5 13 2 17 -13 17
-11 0 -23 -8 -25 -17 -4 -17 -5 -17 -6 0 -1 14 -11 17 -54 17 -29 0 -58 -5
-65 -12z m42 -33 c-4 -8 -10 -12 -15 -9 -11 6 -2 24 11 24 5 0 7 -7 4 -15z"/>
</g>
</svg>
