<?xml version="1.0" standalone="no"?>
<!DOCTYPE svg PUBLIC "-//W3C//DTD SVG 20010904//EN"
 "http://www.w3.org/TR/2001/REC-SVG-20010904/DTD/svg10.dtd">
<svg version="1.0" xmlns="http://www.w3.org/2000/svg"
 width="105.000000pt" height="105.000000pt" viewBox="0 0 105.000000 105.000000"
 preserveAspectRatio="xMidYMid meet">
<metadata>
Created by potrace 1.11, written by Peter Selinger 2001-2013
</metadata>
<g transform="translate(0.000000,105.000000) scale(0.100000,-0.100000)"
fill="#000000" stroke="none">
<path d="M396 1034 c-244 -64 -410 -292 -393 -539 10 -142 58 -248 158 -345
304 -298 820 -124 881 297 39 269 -126 518 -389 587 -65 17 -193 17 -257 0z
m249 -81 c216 -63 352 -274 318 -493 -16 -100 -60 -184 -132 -254 -201 -191
-516 -157 -675 73 -91 130 -97 332 -15 470 54 89 156 170 257 201 69 22 178
23 247 3z"/>
<path d="M200 680 c-11 -8 -9 -9 11 -4 34 7 48 -13 17 -25 l-23 -10 23 0 c17
-1 22 -6 20 -18 -3 -13 -12 -18 -33 -16 -29 1 -29 1 -7 -10 27 -13 59 2 53 25
-2 7 -4 24 -5 38 -1 28 -30 38 -56 20z"/>
<path d="M301 683 c4 -27 -3 -64 -15 -76 -9 -9 -11 -19 -5 -28 6 -10 9 -10 9
-1 0 8 16 12 46 12 33 0 43 -3 38 -12 -4 -8 -2 -8 7 1 11 10 11 15 2 18 -8 3
-13 23 -13 49 0 44 0 44 -35 44 -19 0 -34 -3 -34 -7z m59 -43 c0 -38 -2 -40
-29 -40 -28 0 -29 2 -21 30 5 17 6 30 4 30 -3 0 -2 5 1 10 3 6 15 10 26 10 16
0 19 -7 19 -40z"/>
<path d="M412 670 c-16 -26 -6 -68 19 -75 23 -8 59 3 59 17 0 7 -5 6 -15 -2
-17 -14 -51 -5 -59 15 -4 12 4 15 34 15 40 0 45 5 34 34 -9 23 -57 20 -72 -4z
m66 -7 c2 -9 -7 -13 -27 -13 -30 0 -39 9 -24 24 11 10 46 3 51 -11z"/>
<path d="M526 674 c-43 -42 13 -107 64 -74 11 7 6 8 -17 4 -28 -6 -34 -3 -42
17 -4 13 -6 29 -4 36 7 19 42 26 58 13 9 -8 15 -8 15 -2 0 24 -52 29 -74 6z"/>
<path d="M630 685 c-1 -5 -3 -29 -4 -53 l-2 -43 36 3 c30 3 35 7 35 28 0 20
-6 26 -27 28 -18 2 -28 10 -31 25 -2 12 -5 18 -7 12z m55 -65 c0 -8 -10 -16
-22 -18 -18 -3 -23 2 -23 18 0 16 5 21 23 18 12 -2 22 -10 22 -18z"/>
<path d="M789 688 c-6 -12 -4 -48 2 -48 5 0 8 11 7 25 -2 22 -5 30 -9 23z"/>
<path d="M832 656 c-14 -20 -29 -33 -37 -30 -8 4 -13 -1 -11 -10 4 -29 13 -27
37 9 13 19 27 35 31 35 4 0 9 -17 11 -37 3 -31 4 -29 5 15 1 28 -1 52 -5 52
-5 0 -19 -16 -31 -34z"/>
<path d="M460 488 c0 -11 38 -10 44 1 3 5 -5 8 -19 7 -14 0 -25 -4 -25 -8z"/>
<path d="M227 452 c-22 -24 -21 -45 3 -67 21 -19 70 -14 70 7 0 9 -3 9 -12 0
-16 -16 -33 -15 -51 3 -31 30 3 73 46 59 13 -4 17 -2 13 5 -11 17 -51 13 -69
-7z"/>
<path d="M332 458 c-27 -27 -5 -88 31 -88 12 0 29 5 37 11 11 8 8 9 -13 4 -28
-6 -57 8 -57 26 0 5 18 9 40 9 33 0 40 4 40 19 0 30 -54 43 -78 19z m52 -4
c28 -11 17 -24 -20 -24 -31 0 -35 2 -24 15 14 17 21 18 44 9z"/>
<path d="M439 421 c-3 -33 0 -51 7 -51 8 0 10 16 6 48 -6 63 -9 63 -13 3z"/>
<path d="M486 436 c-35 -46 -33 -60 2 -17 l28 33 -2 -41 c-1 -23 1 -39 5 -36
9 10 11 95 2 95 -5 0 -20 -15 -35 -34z"/>
<path d="M552 439 c3 -31 6 -34 36 -34 21 0 31 -4 28 -12 -3 -7 -1 -15 4 -18
6 -4 10 16 9 47 0 37 -3 47 -8 33 -5 -11 -7 -23 -5 -27 6 -9 -33 -21 -45 -13
-6 3 -8 14 -6 25 2 11 -1 22 -6 26 -7 4 -9 -7 -7 -27z"/>
<path d="M676 462 c-2 -4 7 -8 21 -7 14 0 28 -6 30 -12 3 -9 -6 -13 -26 -13
-35 0 -59 -31 -38 -49 15 -11 76 -11 78 2 5 26 4 35 -4 60 -6 19 -16 27 -32
27 -13 0 -26 -4 -29 -8z m54 -56 c0 -18 -39 -31 -52 -18 -15 15 0 32 28 32 14
0 24 -6 24 -14z"/>
<path d="M788 459 c-21 -12 -24 -59 -6 -77 14 -14 47 -15 68 -2 11 8 6 9 -19
8 -23 -2 -37 2 -45 15 -16 25 5 53 38 50 15 -1 24 2 21 8 -8 12 -35 11 -57 -2z"/>
</g>
</svg>
